<svg width="60" height="69" viewBox="0 0 60 69" fill="none" xmlns="http://www.w3.org/2000/svg">
<mask id="path-1-inside-1_408_9161" fill="white">
<path d="M0.54664 61.5214C8.58726 67.2483 18.5736 69.5466 28.3087 67.9106C38.0439 66.2746 46.7304 60.8383 52.4573 52.7977C58.1843 44.757 60.4825 34.7707 58.8465 25.0356C57.2105 15.3005 51.7742 6.61394 43.7336 0.886998L22.1401 31.2042L0.54664 61.5214Z"/>
</mask>
<path d="M0.54664 61.5214C8.58726 67.2483 18.5736 69.5466 28.3087 67.9106C38.0439 66.2746 46.7304 60.8383 52.4573 52.7977C58.1843 44.757 60.4825 34.7707 58.8465 25.0356C57.2105 15.3005 51.7742 6.61394 43.7336 0.886998L22.1401 31.2042L0.54664 61.5214Z" fill="black" stroke="black" stroke-width="10" mask="url(#path-1-inside-1_408_9161)"/>
</svg>
