<svg width="60" height="56" viewBox="0 0 60 56" fill="none" xmlns="http://www.w3.org/2000/svg">
<mask id="path-1-inside-1_408_9159" fill="white">
<path d="M65.4559 55.8686C70.3918 47.3195 71.7293 37.1598 69.1743 27.6245C66.6194 18.0892 60.3812 9.95946 51.8321 5.02364C43.283 0.0878134 33.1233 -1.24974 23.588 1.30523C14.0527 3.8602 5.92293 10.0984 0.987106 18.6475L33.2215 37.2581L65.4559 55.8686Z"/>
</mask>
<path d="M65.4559 55.8686C70.3918 47.3195 71.7293 37.1598 69.1743 27.6245C66.6194 18.0892 60.3812 9.95946 51.8321 5.02364C43.283 0.0878134 33.1233 -1.24974 23.588 1.30523C14.0527 3.8602 5.92293 10.0984 0.987106 18.6475L33.2215 37.2581L65.4559 55.8686Z" fill="#FFCC02" stroke="#FFCC02" stroke-width="6" mask="url(#path-1-inside-1_408_9159)"/>
</svg>
