<svg width="52" height="191" viewBox="0 0 52 191" fill="none" xmlns="http://www.w3.org/2000/svg">
<path d="M50.1175 0C50.1175 10.5787 39.0391 10.5787 39.0391 21.1574C39.0391 31.7361 50.1175 31.8491 50.1175 42.3148C50.1175 52.7805 39.0391 52.8934 39.0391 63.4721C39.0391 74.0508 50.1175 74.0282 50.1175 84.6069C50.1175 95.1856 39.0391 95.1857 39.0391 105.764C39.0391 116.343 50.1175 116.343 50.1175 126.922C50.1175 137.5 39.0391 137.5 39.0391 148.079C39.0391 158.658 50.1175 158.68 50.1175 169.259C50.1175 179.838 39.0391 179.838 39.0391 190.416" stroke="#FFCC02" stroke-width="2" stroke-miterlimit="10"/>
<path d="M31.3633 0C31.3633 10.5787 20.3945 10.5787 20.3945 21.1574C20.3945 31.7361 31.3633 31.7361 31.3633 42.3148C31.3633 52.8935 20.3945 52.8934 20.3945 63.4721C20.3945 74.0508 31.3633 74.0282 31.3633 84.6069C31.3633 95.1856 20.3945 95.1857 20.3945 105.764C20.3945 116.343 31.3633 116.343 31.3633 126.922C31.3633 137.5 20.3945 137.5 20.3945 148.079C20.3945 158.658 31.3633 158.68 31.3633 169.259C31.3633 179.838 20.3945 179.838 20.3945 190.416" stroke="#FFCC02" stroke-width="2" stroke-miterlimit="10"/>
<path d="M12.6761 0C12.6761 10.5787 1.59766 10.5787 1.59766 21.1574C1.59766 31.7361 12.6761 31.7361 12.6761 42.3148C12.6761 52.8935 1.59766 52.8934 1.59766 63.4721C1.59766 74.0508 12.6761 74.0282 12.6761 84.6069C12.6761 95.1856 1.59766 95.1857 1.59766 105.764C1.59766 116.343 12.6761 116.343 12.6761 126.922C12.6761 137.5 1.59766 137.5 1.59766 148.079C1.59766 158.658 12.6761 158.68 12.6761 169.259C12.6761 179.838 1.59766 179.838 1.59766 190.416" stroke="#FFCC02" stroke-width="2" stroke-miterlimit="10"/>
</svg>
