<svg width="71" height="57" viewBox="0 0 71 57" fill="none" xmlns="http://www.w3.org/2000/svg">
<mask id="path-1-inside-1_440_1840" fill="white">
<path d="M5.6964 0.710492C0.760575 9.25959 -0.576978 19.4193 1.97799 28.9546C4.53297 38.4899 10.7712 46.6196 19.3203 51.5555C27.8694 56.4913 38.0291 57.8288 47.5643 55.2739C57.0996 52.7189 65.2294 46.4807 70.1652 37.9316L37.9308 19.321L5.6964 0.710492Z"/>
</mask>
<path d="M5.6964 0.710492C0.760575 9.25959 -0.576978 19.4193 1.97799 28.9546C4.53297 38.4899 10.7712 46.6196 19.3203 51.5555C27.8694 56.4913 38.0291 57.8288 47.5643 55.2739C57.0996 52.7189 65.2294 46.4807 70.1652 37.9316L37.9308 19.321L5.6964 0.710492Z" stroke="black" stroke-width="10" mask="url(#path-1-inside-1_440_1840)"/>
</svg>
