<svg width="30" height="30" viewBox="0 0 30 30" fill="none" xmlns="http://www.w3.org/2000/svg">
<path d="M25.9347 15.3818L27.3147 13.0763C27.4806 12.7989 27.5257 12.4692 27.4401 12.1597C27.3546 11.8502 27.1453 11.5861 26.8585 11.4257L24.471 10.0917V7.43337C24.471 7.1129 24.3393 6.80556 24.1048 6.57895C23.8704 6.35234 23.5525 6.22504 23.221 6.22504H20.4722L19.0935 3.91833C18.9269 3.64152 18.6544 3.43923 18.3347 3.35525C18.1762 3.3137 18.0107 3.30299 17.8478 3.32373C17.6849 3.34447 17.528 3.39625 17.386 3.47608L14.9985 4.81008L12.611 3.47487C12.3239 3.31464 11.9827 3.27122 11.6625 3.35416C11.3422 3.4371 11.0692 3.6396 10.9035 3.91712L9.52346 6.22504H6.77471C6.44319 6.22504 6.12524 6.35234 5.89082 6.57895C5.6564 6.80556 5.52471 7.1129 5.52471 7.43337V10.0905L3.13721 11.4245C2.99475 11.5037 2.86988 11.6094 2.76979 11.7354C2.66969 11.8614 2.59634 12.0052 2.55394 12.1587C2.51155 12.3122 2.50094 12.4723 2.52274 12.6298C2.54454 12.7872 2.59831 12.939 2.68096 13.0763L4.06096 15.3818L2.68096 17.6873C2.51594 17.9649 2.47117 18.2944 2.5564 18.6038C2.64164 18.9132 2.84996 19.1775 3.13596 19.3391L5.52346 20.6731V23.3302C5.52346 23.6507 5.65515 23.958 5.88957 24.1846C6.12399 24.4112 6.44194 24.5385 6.77346 24.5385H9.52346L10.9035 26.8465C11.0141 27.0293 11.1721 27.1812 11.3619 27.2871C11.5517 27.3931 11.7668 27.4494 11.986 27.4506C12.2035 27.4506 12.4197 27.395 12.6122 27.2875L14.9972 25.9535L17.3847 27.2875C17.6717 27.4475 18.0127 27.4909 18.3328 27.4082C18.6529 27.3256 18.926 27.1235 19.0922 26.8465L20.471 24.5385H23.2197C23.5512 24.5385 23.8692 24.4112 24.1036 24.1846C24.338 23.958 24.4697 23.6507 24.4697 23.3302V20.6731L26.8572 19.3391C26.9994 19.2596 27.124 19.1539 27.224 19.0278C27.3239 18.9018 27.3971 18.758 27.4395 18.6046C27.4818 18.4512 27.4925 18.2912 27.4709 18.1338C27.4493 17.9764 27.3958 17.8247 27.3135 17.6873L25.9347 15.3818ZM11.8722 9.32804C12.3697 9.3282 12.8467 9.51938 13.1983 9.85951C13.5499 10.1996 13.7474 10.6609 13.7472 11.1417C13.747 11.6226 13.5493 12.0837 13.1974 12.4236C12.8455 12.7635 12.3684 12.9544 11.871 12.9542C11.3735 12.9541 10.8965 12.7629 10.5449 12.4228C10.1932 12.0826 9.99579 11.6214 9.99596 11.1405C9.99612 10.6597 10.1939 10.1986 10.5458 9.85866C10.8976 9.51875 11.3748 9.32788 11.8722 9.32804ZM12.2472 20.928L10.2472 19.4792L17.7472 9.81258L19.7472 11.2614L12.2472 20.928ZM18.1222 21.4114C17.8759 21.4113 17.632 21.3643 17.4045 21.2731C17.177 21.1819 16.9702 21.0483 16.7961 20.8799C16.622 20.7115 16.4839 20.5116 16.3897 20.2916C16.2956 20.0715 16.2471 19.8358 16.2472 19.5977C16.2473 19.3596 16.2959 19.1238 16.3902 18.9039C16.4846 18.6839 16.6228 18.4841 16.797 18.3158C16.9712 18.1475 17.178 18.014 17.4056 17.9229C17.6332 17.8319 17.8771 17.7851 18.1235 17.7852C18.6209 17.7853 19.0979 17.9765 19.4495 18.3166C19.8012 18.6568 19.9986 19.118 19.9985 19.5989C19.9983 20.0797 19.8005 20.5408 19.4487 20.8808C19.0968 21.2207 18.6197 21.4115 18.1222 21.4114Z" fill="#FFCC02"/>
</svg>
