<svg width="153" height="123" viewBox="0 0 153 123" fill="none" xmlns="http://www.w3.org/2000/svg">
<g clip-path="url(#clip0_444_5588)">
<path d="M82.4254 0.458387C80.1226 1.22603 77.4402 3.58377 76.6546 5.47546C76.1938 6.62691 76.0042 6.59951 75.5977 5.44806C75.1643 4.26917 73.1592 2.37749 71.5607 1.66468C70.7477 1.30828 69.7182 1.11636 68.5262 1.11636C64.6517 1.08895 61.292 3.69343 60.7499 7.14782L60.5603 8.29927L59.5848 8.10738C56.2251 7.44941 53.1366 9.06691 52.0798 12.0827C51.6463 13.2889 51.592 14.9887 51.9715 15.7015C52.188 16.1402 52.0254 16.3047 50.5355 17.0175C48.151 18.1689 46.715 19.5123 45.6855 21.6782C44.8999 23.2957 44.7913 23.7617 44.7913 25.7083C44.7913 27.5726 44.9269 28.1483 45.6312 29.6836C46.092 30.6705 46.8506 31.8768 47.3111 32.3977C47.7988 32.8912 48.1783 33.3572 48.1783 33.4121C48.1783 33.4669 47.4736 33.7137 46.6337 33.9604C45.7668 34.2071 44.71 34.6732 44.2765 34.9748C42.6236 36.1538 41.4046 40.4307 40.8355 47.1472L40.4834 51.0405L38.5053 51.7532C35.7959 52.7127 33.4117 54.1932 31.786 55.8657C30.5939 57.1267 30.0519 57.4283 27.3696 58.4425C25.6627 59.0732 23.2241 59.8135 21.9507 60.0875C18.9703 60.7457 18.4013 60.9649 17.5072 61.9244C15.0416 64.5839 16.3422 68.7784 20.3792 71.0813C21.1379 71.52 22.3842 72.507 23.1158 73.2745L24.4705 74.6727V77.0579C24.4705 78.374 24.3621 80.4301 24.2267 81.6363C24.037 83.6924 24.037 83.8844 24.6602 84.789C25.5814 86.16 27.0716 86.8179 29.212 86.7907C31.3796 86.7631 36.0941 85.6389 39.3726 84.3779C40.7272 83.8571 43.5722 82.8425 45.7398 82.1023C47.9071 81.3623 50.6438 80.3205 51.8089 79.7446C54.3013 78.5932 55.5751 78.4013 64.5704 77.9077C71.5877 77.5242 83.2654 77.7158 90.1747 78.3465C96.3251 78.8948 104.751 80.0738 105.619 80.5125C105.998 80.7041 107.515 81.4992 109.005 82.2394C113.855 84.7342 117.134 85.8856 121.496 86.5987C126.156 87.3662 128.405 86.7083 129.678 84.2407C130.274 83.0893 130.301 82.7877 130.139 79.9914C130.058 78.3189 130.085 76.7015 130.193 76.3724C130.301 76.0436 131.521 74.5907 132.875 73.1649C136.046 69.875 137.455 67.2707 137.455 64.6111C137.455 62.6646 136.94 61.7324 135.395 60.8005C134.664 60.3618 133.77 60.2246 130.925 60.0875C126.779 59.8955 125.153 59.32 124.124 57.6475C122.525 55.0979 122.471 55.0707 116.321 52.9594L112.528 51.6709L112.446 50.2179C112.229 45.1459 110.712 37.6067 109.574 35.8522C109.303 35.4407 108.436 34.8104 107.596 34.4265C106.323 33.8233 106.133 33.6588 106.296 33.1379C107.19 30.177 107.109 27.737 106.052 25.626C105.402 24.3375 103.424 22.2813 102.801 22.2813C101.852 22.2539 101.825 21.8153 102.638 20.2526C103.911 17.7577 103.695 15.3726 101.934 13.0422C100.335 10.9312 96.8128 10.2184 94.6452 11.5892L93.5614 12.2746L94.8078 12.4391C99.2513 13.097 101.717 17.3191 99.9557 21.3217C99.6305 22.0346 99.3866 22.6651 99.3866 22.7199C99.3866 22.7748 99.8744 22.6377 100.498 22.391C101.581 21.9249 101.581 21.9249 102.584 22.7474C104.182 24.0633 104.941 25.8454 104.941 28.3128C104.941 30.0126 104.833 30.5883 104.237 31.6027C103.83 32.3155 103.397 32.8089 103.153 32.7541C102.936 32.6993 101.852 32.4251 100.741 32.151C95.6747 30.8624 89.47 29.8755 83.6992 29.4094C81.6941 29.2723 79.96 29.1353 79.8517 29.1353C79.7431 29.1353 79.5805 28.9159 79.5265 28.6417C79.4452 28.395 79.3909 29.9851 79.3639 32.1784C79.3369 34.8104 79.2013 36.6197 78.9305 37.5244C77.6571 41.774 72.5362 43.0898 69.3931 39.9371C67.8758 38.4018 67.4154 36.7569 67.2254 32.4799C67.1442 30.6157 66.9816 29.2175 66.9006 29.3546C66.8193 29.5191 64.8413 29.9577 62.5384 30.3689C60.2352 30.7528 57.011 31.3833 55.3582 31.7397L52.4049 32.4251L51.4837 31.5478C50.9959 31.0543 50.2916 30.0126 49.8852 29.2175C48.3679 26.0647 49.2078 22.4184 51.9715 20.0881C53.4075 18.8817 57.0923 16.7982 57.878 16.7708C58.8805 16.7433 56.9024 16.195 55.1686 16.0305L53.3262 15.8386L53.9765 14.4678C55.4938 11.2054 58.8535 9.88941 61.9693 11.315C62.6197 11.6166 63.2157 11.8085 63.297 11.7263C63.5409 11.4795 62.728 9.91681 62.1046 9.42333C61.7524 9.12174 61.4546 8.76536 61.4546 8.60086C61.4546 7.91546 63.947 5.58512 65.2747 5.00941C68.9866 3.41929 73.62 5.03681 75.3539 8.57343L76.0312 9.91681L76.1938 9.03951C76.6816 6.65434 79.8517 3.4467 82.5341 2.62423C87.8988 1.03412 92.8571 3.6386 94.9704 9.2314L95.6204 10.9038L95.4582 9.12174C95.187 5.63995 92.9654 2.48715 89.6869 0.95187C88.4405 0.37614 87.6819 0.211645 85.8395 0.156813C84.4848 0.129398 83.0758 0.266477 82.4254 0.458387ZM88.874 37.9083C95.1057 38.813 102.15 40.4579 103.071 41.2257C103.397 41.4997 104.128 44.9815 104.399 47.6955C104.616 49.6971 104.697 49.6423 101.744 49.0117C98.7093 48.381 92.8571 47.5311 88.4675 47.0924C83.1028 46.5717 69.0409 46.5717 63.351 47.0652C59.1244 47.4491 52.3236 48.4086 50.1017 48.9021C49.4517 49.0389 48.8556 49.094 48.7744 49.0117C48.5844 48.8473 49.1808 42.5963 49.4244 41.9109C49.5057 41.6641 50.3729 41.253 51.4024 40.9514C55.4938 39.7176 65.1395 37.7711 65.356 38.1551C65.4103 38.2374 65.5999 38.8405 65.7625 39.4709C66.2229 41.2257 67.9301 43.1994 69.7726 44.1041C72.7528 45.5846 76.7085 45.0091 79.0118 42.7607C80.0682 41.7465 81.0981 39.8272 81.369 38.3742L81.5585 37.36H83.2927C84.2409 37.36 86.7607 37.6067 88.874 37.9083ZM90.4456 51.7257C97.7067 52.6579 104.535 54.0288 110.496 55.7558C113.828 56.7156 115.643 57.3735 115.643 57.6203C115.643 57.7298 115.318 58.0042 114.912 58.2506L114.207 58.6893L115.129 58.8813C117.405 59.3472 119.599 59.9231 119.87 60.1423C120.114 60.3342 120.087 61.76 119.843 61.76C119.816 61.76 119.084 61.4584 118.245 61.0745C116.239 60.1698 113.611 60.1423 111.85 60.9925L110.631 61.568L112.798 61.8971C115.4 62.3083 118.678 63.1034 119.003 63.4325C119.139 63.5693 119.111 63.8161 118.922 64.0628C118.597 64.4467 118.488 64.4467 117.784 64.0904C117.378 63.8709 116.673 63.6789 116.266 63.6789C115.427 63.6789 113.611 64.5015 113.611 64.8855C113.611 64.995 114.505 65.3514 115.589 65.6257C116.673 65.8997 117.648 66.2013 117.784 66.2561C118.001 66.3932 117.865 67.7914 117.621 67.7914C117.567 67.7914 117.079 67.4623 116.538 67.0511C115.264 66.0641 112.473 65.8173 110.929 66.5576C110.387 66.8319 109.98 67.0787 110.035 67.1335C110.089 67.1883 111.308 67.5446 112.771 67.9286C114.939 68.5041 116.727 69.1623 117.215 69.5735C117.242 69.6007 117.161 69.9574 117.025 70.341C116.754 71.054 116.754 71.054 115.86 70.5877C114.533 69.9298 112.067 69.8202 110.604 70.3958C109.927 70.6425 109.439 70.9441 109.547 71.0265C109.628 71.1088 110.82 71.4104 112.175 71.6844C115.481 72.3698 116.456 72.8086 116.266 73.494C116.158 73.96 116.023 74.0148 115.291 73.7956C114.072 73.4389 111.579 74.1792 111.579 74.8922C111.579 75.0018 112.338 75.2486 113.286 75.4405C115.21 75.8241 115.779 76.0984 115.535 76.5096C115.156 77.1675 113.015 77.1403 109.141 76.4272C96.2708 74.0971 88.5761 73.4389 74.1888 73.4389C59.7474 73.4117 55.3582 73.768 38.8578 76.4C38.6952 76.4 38.5596 76.2356 38.5053 75.9888C38.397 75.5225 40.3477 74.755 42.4341 74.4535C43.7348 74.2615 43.8431 74.0148 42.9218 73.4117C41.811 72.6714 40.5103 72.6166 39.1287 73.2197C38.4513 73.5488 37.8823 73.6856 37.8823 73.5488C37.8823 73.4389 37.801 73.1373 37.7197 72.9182C37.5301 72.3974 39.779 71.52 43.1387 70.8073C44.4391 70.5329 45.5772 70.2314 45.6312 70.1766C45.7125 70.0942 45.2521 69.8475 44.6017 69.5735C42.8405 68.8608 40.8625 68.9428 39.21 69.8203C38.4513 70.2042 37.7197 70.4506 37.5841 70.3686C37.1506 70.1218 37.3132 69.2171 37.8823 68.8056C38.4513 68.3945 41.9463 67.1883 44.1139 66.64L45.3333 66.3384L44.2495 65.8449C42.1902 64.8855 39.2913 65.379 37.6927 66.9415C36.9341 67.6818 36.9067 67.6818 36.5546 66.6948C36.3107 65.9545 36.338 65.8449 37.0423 65.4886C37.4488 65.269 38.5866 64.9127 39.5621 64.7207C40.5103 64.5291 41.3776 64.2272 41.4316 64.0904C41.5941 63.6789 39.779 62.8566 38.6679 62.8566C38.0718 62.8566 37.3132 63.1306 36.7172 63.5421C35.7147 64.2 35.7147 64.2 35.4168 63.6517C35.2269 63.2677 35.1999 62.9938 35.3895 62.8018C35.769 62.4179 40.4021 61.2389 42.4341 61.0473C43.3553 60.9373 44.1952 60.773 44.2495 60.6634C44.5204 60.2246 42.1632 59.5667 40.3477 59.5667C38.37 59.5667 36.6902 60.0327 35.4438 60.9373C34.4413 61.6504 34.36 61.6228 34.36 60.6906C34.36 59.5667 35.0915 59.128 38.2074 58.4153C39.6434 58.0862 40.7542 57.7023 40.6729 57.5655C40.5916 57.4283 40.0769 57.1267 39.5351 56.9072L38.5596 56.4688L39.4538 56.0849C43.3823 54.44 56.3877 52.0272 65.1395 51.3421C69.8808 50.9582 86.4898 51.2325 90.4456 51.7257ZM30.3229 63.0486C30.4855 63.4873 31.0003 64.7483 31.515 65.8725C32.5989 68.2849 32.8698 69.3815 33.4117 73.3569C33.8723 76.7839 34.5226 78.4561 35.8503 79.7446L36.7985 80.6493L35.0915 81.1976C32.2737 82.075 28.9411 82.7057 28.6972 82.4314C28.5618 82.2942 28.5618 81.5815 28.6702 80.814C29.1036 78.3465 28.9682 75.3582 28.3992 73.494C27.9386 71.9587 27.6135 71.4924 26.042 69.9574C25.0124 68.9704 23.5222 67.7914 22.6823 67.2979C21.3275 66.5028 20.2709 65.2418 20.7586 64.9675C20.8669 64.8855 21.3817 64.7483 21.8965 64.6659C24.3621 64.1724 26.7735 63.5421 28.1282 62.9662C30.0249 62.1711 29.9978 62.1711 30.3229 63.0486ZM125.885 63.9532C127.132 64.3371 128.378 64.5015 130.274 64.5015C131.738 64.5015 133.011 64.6111 133.092 64.7483C133.445 65.2966 131.629 68.0929 129.299 70.5605C125.993 74.0423 125.831 74.4259 125.858 78.8124C125.885 82.8153 125.912 82.7877 123.42 82.459C121.983 82.2942 117.486 81.2524 117.296 81.0608C117.215 81.0056 117.675 80.5125 118.326 79.9642C119.762 78.7028 120.114 77.9901 120.493 75.4678C121.008 72.2055 122.309 67.2707 123.203 65.2418C123.663 64.2272 124.07 63.4049 124.124 63.4049C124.151 63.4049 124.964 63.6517 125.885 63.9532Z" fill="white"/>
<path d="M73.1061 60.033C73.1061 62.4178 73.0248 65.187 72.9165 66.2012L72.7539 68.0657H77.3057C81.5054 68.0657 81.8848 68.0109 82.6435 67.4898C84.1877 66.366 84.7025 63.8164 83.646 62.4454C83.0769 61.7327 83.0769 61.6779 83.5104 60.7729C84.0794 59.5395 84.0525 58.5249 83.4291 57.483C82.6161 56.1397 81.0176 55.7285 76.7097 55.7285H73.1061V60.033ZM78.6334 58.7444C79.0129 58.8812 79.3377 59.1828 79.3377 59.4295C79.3377 59.8682 78.1999 60.2794 77.7392 59.9778C77.414 59.7862 77.333 58.9364 77.6309 58.662C77.8478 58.4153 77.8205 58.4153 78.6334 58.7444ZM79.3377 63.542C79.8255 64.1179 79.2025 64.8306 78.2812 64.721C77.7392 64.6662 77.5496 64.4743 77.4953 63.8712C77.414 63.2129 77.4953 63.1309 78.1999 63.1309C78.6334 63.1309 79.1482 63.3228 79.3377 63.542Z" fill="white"/>
<path d="M64.8967 56.4416C63.1086 56.6336 61.6183 56.8528 61.537 56.9076C61.4831 56.99 61.5913 58.5801 61.8352 60.4446C62.0518 62.2811 62.323 65.0227 62.4039 66.476L62.5939 69.1627L63.569 69.0256C66.1975 68.6416 69.286 68.3401 70.2885 68.3401C71.6162 68.3401 71.7518 68.1209 71.7518 65.9549C71.7518 64.4743 71.7244 64.4471 71.0744 64.6115C70.7223 64.6939 69.6654 64.8583 68.7712 64.9679C67.3895 65.105 67.1187 65.0502 66.9831 64.6391C66.7122 63.9536 67.3082 63.6793 69.1234 63.6793H70.668V61.9523V60.1978L68.9881 60.4446C67.2 60.691 66.2514 60.5266 66.414 60.0331C66.5496 59.5943 67.5521 59.3476 69.4216 59.3204C70.641 59.2928 70.9658 59.2108 70.8575 58.9092C70.7762 58.7173 70.6136 57.977 70.5324 57.2643L70.3428 56.0029L69.2047 56.0305C68.6086 56.0577 66.6579 56.2497 64.8967 56.4416Z" fill="white"/>
<path d="M86.9237 56.3041C86.9237 57.3459 86.246 62.7742 85.8125 65.1594C85.5147 66.7771 85.2978 68.1753 85.3521 68.2025C85.4061 68.2573 87.0859 68.5589 89.091 68.8608C91.096 69.1895 93.0741 69.5187 93.4532 69.6007C94.1305 69.7654 94.2118 69.6555 94.7539 68.0381C95.0518 67.1059 95.2956 66.3108 95.2417 66.2836C95.2143 66.256 94.2118 66.0641 93.0197 65.8997C90.7169 65.5705 90.1208 65.269 90.6625 64.7207C90.9064 64.4739 91.3669 64.4739 92.6406 64.7207C93.5618 64.8854 94.4017 64.9674 94.51 64.9126C94.6183 64.8306 94.7809 64.3095 94.8892 63.7064C94.9705 63.1033 95.1061 62.4454 95.1874 62.2535C95.2956 61.9519 94.8892 61.7872 93.3992 61.568C91.4755 61.2664 90.6356 60.7457 91.3942 60.307C91.6108 60.1974 92.6676 60.2794 93.7514 60.5262C94.8352 60.7457 95.7564 60.9373 95.8104 60.9373C95.8377 60.9373 95.8647 60.1422 95.8647 59.1556C95.8647 57.0991 96.4607 57.3735 90.7981 56.6332C88.6575 56.3316 86.9237 56.1945 86.9237 56.3041Z" fill="white"/>
<path d="M51.1598 58.6342C49.6155 59.0181 48.2878 59.3469 48.2608 59.402C48.2065 59.4568 48.4774 60.7726 48.8839 62.3352C49.2633 63.8981 49.8051 66.5301 50.0759 68.1474C50.3472 69.7651 50.618 71.1633 50.6993 71.2453C50.9432 71.5197 55.2241 70.4503 55.2241 70.1215C55.2241 69.9571 55.0342 69.162 54.7903 68.367C54.5738 67.5719 54.4382 66.8316 54.5195 66.7492C54.709 66.5573 54.6821 66.5025 55.8472 68.3942C56.3889 69.2716 56.9853 69.9843 57.1749 69.9843C57.6083 69.9843 61.5371 69.162 61.6454 69.0521C61.6997 68.9973 61.0763 68.1202 60.2364 67.0784C59.4238 66.0365 58.7464 65.1043 58.7464 64.9947C58.7464 64.8851 59.0173 64.364 59.3152 63.8157C60.1824 62.3352 59.9385 60.1147 58.8004 58.9357C58.0148 58.1407 57.7709 58.0586 55.9828 58.0035C54.6551 57.9763 53.0835 58.1682 51.1598 58.6342ZM55.3324 62.0888C55.7389 62.7467 55.2511 63.5142 54.3569 63.6238C53.7878 63.7061 53.6526 63.569 53.49 62.8563C53.4087 62.3628 53.4087 61.8692 53.49 61.7049C53.7339 61.2937 55.0072 61.5677 55.3324 62.0888Z" fill="white"/>
<path d="M98.0574 60.7178C97.7323 62.2807 97.0819 64.9399 96.6485 66.6397C96.1877 68.367 95.8898 69.8199 95.9438 69.8747C96.0251 69.9571 97.0819 70.2586 98.3283 70.5602C99.5747 70.8618 101.363 71.3553 102.311 71.6568C103.26 71.9856 104.1 72.1776 104.18 72.0955C104.262 72.0132 104.614 71.1357 104.939 70.1763L105.589 68.3942L103.503 68.0926C102.365 67.9282 101.336 67.6815 101.2 67.5443C100.956 67.2976 101.851 63.6514 102.853 60.663L103.368 59.1553L101.58 58.689C100.604 58.415 99.5474 58.1407 99.2222 58.0311C98.7075 57.8939 98.6262 58.1134 98.0574 60.7178Z" fill="white"/>
<path d="M80.2057 12.6851C78.6885 13.6172 77.8216 15.6734 78.4989 16.7426C78.6615 17.0168 78.7968 17.0168 79.068 16.6604C79.718 15.8653 81.0187 15.3719 82.4004 15.3719C83.4572 15.3719 83.9719 15.5363 84.9475 16.2217C85.6248 16.7152 86.2208 17.0716 86.2478 17.0168C86.6813 16.5781 86.6 15.3993 86.0583 14.3575C84.9745 12.2464 82.2108 11.4514 80.2057 12.6851Z" fill="white"/>
<path d="M82.3715 80.074C81.369 80.4028 79.8517 81.7738 79.4452 82.7608C78.6596 84.6797 79.1474 86.8457 80.6646 88.1615C82.3175 89.5597 84.783 89.7517 86.246 88.5727L86.9233 88.0519L86.3816 86.9553C85.7855 85.8039 85.6772 85.7491 84.6474 86.1602C82.6424 86.9277 81.315 84.0766 83.2657 83.1992C83.9974 82.8704 84.6204 82.98 85.3521 83.6107C85.7585 83.967 85.8668 83.9122 86.5172 82.8976C86.9233 82.2945 87.1945 81.6094 87.1132 81.3898C86.7607 80.4304 83.8075 79.6353 82.3715 80.074Z" fill="white"/>
<path d="M68.2034 80.3206L66.957 80.4301L67.0926 84.8714C67.1469 87.3114 67.2282 89.3127 67.2552 89.3403C67.2552 89.3675 68.0408 89.3127 68.9894 89.2307L70.7232 89.0935L70.5336 87.7774C70.4254 87.0374 70.4523 86.434 70.588 86.434C70.6962 86.434 71.0754 87.0647 71.4006 87.8325C71.9966 89.1755 72.0509 89.2307 72.8639 89.066C73.3243 88.9839 74.1372 88.9016 74.652 88.9016H75.5732L74.7333 87.2842L73.8664 85.6665L74.4624 84.8714C75.3293 83.6652 75.1398 81.6364 74.1103 80.8413C73.3243 80.2658 71.0754 80.0462 68.2034 80.3206ZM71.4819 83.0073C71.7531 83.3361 71.7531 83.5008 71.4819 83.8296C70.9401 84.4875 70.1272 84.3507 70.1272 83.6104C70.1272 82.541 70.8318 82.2395 71.4819 83.0073Z" fill="white"/>
<path d="M61.5902 81.1699C60.0999 81.3891 58.8535 81.6086 58.7995 81.6634C58.7452 81.6906 58.9078 83.3083 59.1517 85.2548C59.8834 91.0122 59.7747 90.6283 60.4521 90.4364C60.7773 90.354 62.2406 90.1348 63.7035 89.9704L66.3316 89.6413V88.3255C66.3316 87.5852 66.2776 86.9821 66.2233 86.9821C66.1693 86.9821 65.519 87.0917 64.733 87.2561C63.1075 87.5576 62.3488 87.3933 62.8366 86.8174C63.0262 86.5982 63.6495 86.4338 64.3269 86.4338H65.519V85.1724V83.9114L64.6517 84.1034C64.1643 84.213 63.5682 84.3226 63.3513 84.4049C63.1344 84.4597 62.7823 84.4049 62.5657 84.2678C61.8611 83.8291 62.5657 83.4179 64.0557 83.4179H65.5729L65.3834 82.2389C65.2751 81.6086 65.1395 81.0055 65.0582 80.8683C64.9229 80.6488 65.0855 80.6216 61.5902 81.1699Z" fill="white"/>
<path d="M88.9592 84.8989C87.7668 87.229 86.8456 89.203 86.9269 89.2578C87.1981 89.5046 90.1783 89.6417 90.1783 89.395C90.1783 88.9838 92.6168 89.1482 92.7794 89.5594C92.8607 89.7789 93.3754 90.0257 93.9175 90.1077C94.4592 90.2173 95.2449 90.3545 95.6243 90.4368L96.3287 90.574L95.8139 87.8872C95.5431 86.4067 95.0553 84.323 94.7574 83.254C94.1884 81.3347 94.161 81.2799 93.1859 81.1155C92.6438 81.0332 91.9664 80.896 91.6686 80.814C91.2078 80.6768 90.8287 81.2524 88.9592 84.8989ZM92.6981 86.0503C92.6168 86.2695 92.3729 86.4343 92.1833 86.4343C91.6143 86.4343 91.4247 85.6664 91.8312 85.1729C92.1564 84.789 92.2103 84.789 92.5085 85.2005C92.6981 85.4472 92.7794 85.8308 92.6981 86.0503Z" fill="white"/>
<path d="M53.0308 82.7053L50.457 83.2808L51.0531 85.8852C51.3783 87.311 51.7304 89.1203 51.8387 89.8606C52.0826 91.8894 52.2721 92.0814 53.5185 91.725C54.0876 91.5331 55.4966 91.2587 56.6617 91.0668L58.748 90.738V89.3671C58.748 88.0785 58.7207 88.0237 58.1517 88.2156C57.7995 88.298 56.9596 88.4624 56.2552 88.5448C55.1984 88.6543 54.9545 88.6268 54.9545 88.2704C54.9545 87.8321 55.7405 87.5302 56.9326 87.5302C57.6369 87.5302 57.6642 87.4481 57.6642 86.2691C57.6642 85.3097 57.5829 85.0354 57.2847 85.1453C57.0952 85.2273 56.3635 85.3921 55.6592 85.4741C54.6297 85.6385 54.4128 85.6112 54.4128 85.2549C54.4128 84.9533 54.765 84.7614 55.4423 84.6518C57.7455 84.2679 57.6369 84.3502 57.339 83.1437C57.0139 81.8279 56.9056 81.8279 53.0308 82.7053Z" fill="white"/>
<path d="M98.4678 82.5135C98.3865 82.7875 98.197 83.7469 98.0614 84.652C97.8991 85.5566 97.5196 87.1468 97.2214 88.2158C96.9236 89.2576 96.6797 90.2722 96.6797 90.409C96.6797 90.7106 99.3621 91.3961 99.7142 91.1769C99.8225 91.1221 99.9851 90.4638 100.094 89.6963C100.202 88.9561 100.392 88.2706 100.527 88.1886C100.662 88.1062 101.178 88.9289 101.665 90.0255C102.586 91.9992 102.613 92.0267 103.941 92.3283L105.296 92.6571L106.38 88.2982L107.436 83.9665L106.732 83.8021C106.352 83.7197 105.621 83.5278 105.133 83.4182C104.131 83.1438 104.131 83.1438 103.86 85.1179C103.779 85.8306 103.589 86.4888 103.48 86.5709C103.345 86.6257 102.83 85.721 102.342 84.5148C101.502 82.4587 101.421 82.3215 100.635 82.3215C100.175 82.3215 99.5247 82.2392 99.1995 82.1572C98.793 82.0472 98.5764 82.1296 98.4678 82.5135Z" fill="white"/>
<path d="M44.7929 84.7887C43.7634 85.0902 42.5714 85.4194 42.1649 85.5014C41.7314 85.6113 41.4062 85.8029 41.4062 85.9129C41.4062 86.0497 41.8124 87.6946 42.3275 89.5315C42.8422 91.3684 43.33 93.2329 43.4383 93.644C43.5465 94.1923 43.7091 94.3843 43.98 94.2747C44.1969 94.1923 45.5786 93.8084 47.0419 93.4248C49.9681 92.6298 50.8893 91.9167 50.8893 90.5185C50.8893 89.5863 50.4555 88.5996 49.8868 88.2429C49.6156 88.1061 49.5343 87.7498 49.6429 87.1463C49.8325 86.1321 48.9926 84.5147 48.2609 84.5147C47.9901 84.5147 47.5296 84.4596 47.2314 84.3775C46.9332 84.3227 45.8498 84.5147 44.7929 84.7887ZM46.2289 87.1739C46.1746 87.4482 45.8768 87.6946 45.5246 87.7498C45.0638 87.8318 44.9286 87.6946 44.9286 87.2835C44.9286 86.8448 45.0911 86.7079 45.6329 86.7079C46.1476 86.7079 46.3102 86.8448 46.2289 87.1739ZM47.4483 90.1898C47.7192 90.4637 47.0958 91.0944 46.5271 91.0944C45.9581 91.0944 45.6329 90.6829 45.8768 90.2718C46.0663 89.9702 47.1771 89.8882 47.4483 90.1898Z" fill="white"/>
<path d="M109.225 85.9948C108.521 86.5979 108.467 86.8171 108.467 88.5168C108.467 90.2989 108.439 90.4085 107.654 90.82C107.22 91.0392 106.787 91.2584 106.732 91.286C106.705 91.3135 106.732 91.9714 106.841 92.7117C107.031 94.0551 107.058 94.1099 107.843 94.1099C109.144 94.1099 110.688 93.534 111.365 92.8213C111.88 92.2454 111.989 91.8891 111.935 90.6005C111.88 89.2299 111.962 88.9556 112.504 88.4896C113.127 87.9685 113.154 87.8589 112.883 86.6252L112.585 85.3369H111.284C110.309 85.3369 109.794 85.5013 109.225 85.9948Z" fill="white"/>
<path d="M55.9315 94.2476C55.6603 95.0154 55.7416 96.5508 56.1481 97.4827C56.4463 98.2505 57.5841 99.3195 58.0718 99.3195C58.1531 99.3195 58.2074 98.6892 58.2074 97.9489C58.2074 96.4136 57.801 95.3993 56.7715 94.4395C56.2024 93.8912 56.0941 93.864 55.9315 94.2476Z" fill="white"/>
<path d="M97.6009 94.5765C96.4358 95.7555 95.8124 98.0856 96.3815 99.0178C96.5984 99.3469 96.7336 99.3469 97.3027 98.963C98.3052 98.3051 98.9556 96.3859 98.6574 94.9329L98.4408 93.7539L97.6009 94.5765Z" fill="white"/>
<path d="M103.426 96.0294C102.315 96.3586 101.34 97.126 100.717 98.1131C100.039 99.2373 100.202 99.5936 101.421 99.5936C102.884 99.5936 103.67 99.0729 104.402 97.5923C105.269 95.8102 105.106 95.5087 103.426 96.0294Z" fill="white"/>
<path d="M49.9679 96.9068C50.2927 98.0582 50.8891 99.0177 51.4851 99.4288C52.1351 99.8951 54.6822 100.032 54.6822 99.6208C54.6822 99.1273 53.4089 97.5099 52.5416 96.934C52.0269 96.5777 51.2139 96.3037 50.6992 96.3037C49.8592 96.3037 49.7779 96.3585 49.9679 96.9068Z" fill="white"/>
<path d="M60.4798 97.5651C60.2359 98.9357 60.778 100.526 61.8075 101.403L62.6744 102.144L62.7557 100.827C62.864 99.1004 62.7017 98.4425 61.8345 97.4279C60.9406 96.3313 60.6967 96.3589 60.4798 97.5651Z" fill="white"/>
<path d="M93.1012 97.3172C92.1799 98.3042 91.8008 99.3185 91.8008 100.854C91.8008 102.17 91.936 102.28 92.8303 101.621C93.6972 101.018 94.2393 99.7848 94.2393 98.4414C94.2393 96.7141 93.9411 96.4125 93.1012 97.3172Z" fill="white"/>
<path d="M66.1699 100.306C65.926 101.622 66.4407 103.267 67.335 103.953C67.7141 104.282 68.1476 104.528 68.2562 104.528C68.6083 104.528 68.554 101.842 68.2019 101.156C67.8227 100.416 66.8472 99.3193 66.5763 99.3193C66.4407 99.3193 66.2781 99.7581 66.1699 100.306Z" fill="white"/>
<path d="M87.4371 99.8953C86.6245 100.718 86.1094 102.143 86.1094 103.569V104.83L86.9223 104.364C87.9518 103.733 88.5482 102.445 88.5482 100.882C88.5482 99.3742 88.223 99.1002 87.4371 99.8953Z" fill="white"/>
<path d="M72.4868 100.882C72.3782 100.964 72.2969 101.786 72.2969 102.691C72.2969 104.171 72.3782 104.391 73.2454 105.268C73.7602 105.789 74.3019 106.145 74.4645 106.036C74.8167 105.816 74.8167 104.418 74.4645 103.13C74.1936 102.115 72.812 100.552 72.4868 100.882Z" fill="white"/>
<path d="M81.1264 101.649C80.1512 102.718 79.6091 105.022 80.1242 105.871C80.449 106.392 81.3976 105.844 81.9123 104.802C82.3728 103.897 82.4814 100.964 82.0476 100.964C81.885 100.964 81.4789 101.265 81.1264 101.649Z" fill="white"/>
<path d="M93.8354 102.938C89.1753 105.131 82.8081 107.79 79.5566 108.915L76.9016 109.819L74.4088 108.915C71.6721 107.928 63.9502 104.638 59.8592 102.718C58.4502 102.061 57.2581 101.567 57.2038 101.622C56.9869 101.814 60.9969 104.83 63.2458 106.173C65.6843 107.626 68.9358 109.134 71.2117 109.847C73.6502 110.642 73.5689 110.587 72.9728 110.834C72.6207 110.998 73.1081 111.08 74.4631 111.108C75.5739 111.108 77.2807 111.217 78.2563 111.355C79.2315 111.464 80.5592 111.492 81.2365 111.409L82.4559 111.217L81.3178 110.998C80.1527 110.779 79.6922 110.285 80.6674 110.285C81.643 110.285 86.7908 108.448 89.121 107.27C91.7491 105.926 95.6509 103.294 96.7887 102.088C97.2494 101.622 97.5473 101.238 97.466 101.238C97.412 101.266 95.7861 102.006 93.8354 102.938Z" fill="white"/>
<path d="M51.6751 103.788C51.1604 104.117 50.7539 104.528 50.7539 104.665C50.7539 104.83 51.2143 105.104 51.7834 105.268C52.6503 105.57 52.9755 105.542 53.8154 105.186C54.9805 104.72 56.0913 103.733 55.8748 103.404C55.7935 103.267 55.0348 103.157 54.1679 103.157C52.9755 103.157 52.3795 103.322 51.6751 103.788Z" fill="white"/>
<path d="M98.6259 103.404C98.1381 103.706 99.6281 104.967 100.983 105.378C101.823 105.625 102.148 105.597 102.879 105.241C103.936 104.693 103.855 104.336 102.636 103.651C101.66 103.13 99.2759 102.965 98.6259 103.404Z" fill="white"/>
<path d="M58.2341 106.228C56.9877 106.447 55.2266 107.598 55.2266 108.202C55.2266 108.695 55.8226 108.915 57.096 108.915C57.9089 108.915 58.3964 108.695 59.3989 107.79C60.0762 107.187 60.6453 106.584 60.6453 106.447C60.6453 106.118 59.5345 105.981 58.2341 106.228Z" fill="white"/>
<path d="M94.2679 107.023C95.406 108.668 97.4924 109.38 98.9014 108.613C99.4431 108.311 99.4431 108.311 98.7927 107.626C97.8175 106.557 96.842 106.173 95.1891 106.173H93.6719L94.2679 107.023Z" fill="white"/>
<path d="M62.293 109.244C60.1797 110.341 60.1527 111.355 62.2117 111.383C63.2686 111.383 64.3254 110.862 65.2193 109.902C66.0052 109.052 65.8966 108.915 64.515 108.751C63.7833 108.641 63.1603 108.778 62.293 109.244Z" fill="white"/>
<path d="M89.1747 108.832C88.3621 108.997 88.3891 109.216 89.3373 110.121C90.3668 111.135 91.9383 111.656 92.9678 111.355C93.9704 111.08 94.0247 111.025 93.8078 110.477C93.4016 109.408 90.7732 108.476 89.1747 108.832Z" fill="white"/>
<path d="M68.0971 111.081C67.7989 111.218 67.2028 111.657 66.7964 112.096C66.0647 112.808 66.0647 112.891 66.4982 113.219C67.1215 113.686 68.3406 113.686 69.2618 113.192C70.2644 112.671 71.3212 111.493 71.0773 111.136C70.8877 110.779 68.8827 110.752 68.0971 111.081Z" fill="white"/>
<path d="M83.4572 111.053C83.0237 111.355 83.9449 112.588 85.0287 113.164C85.8956 113.603 87.3859 113.712 87.982 113.329C88.4967 113 87.955 112.04 86.8442 111.382C85.95 110.834 84.1075 110.669 83.4572 111.053Z" fill="white"/>
</g>
<defs>
<clipPath id="clip0_444_5588">
<rect width="152" height="122" fill="white" transform="translate(0.953125 0.0742188)"/>
</clipPath>
</defs>
</svg>
