<svg width="150" height="52" viewBox="0 0 150 52" fill="none" xmlns="http://www.w3.org/2000/svg">
                <path
                    d="M190.418 50.1668C179.839 50.1668 179.839 39.0884 169.261 39.0884C158.682 39.0884 158.569 50.1668 148.103 50.1668C137.638 50.1668 137.525 39.0884 126.946 39.0884C116.367 39.0884 116.39 50.1668 105.811 50.1668C95.2323 50.1668 95.2323 39.0884 84.6536 39.0884C74.0749 39.0884 74.0749 50.1668 63.4963 50.1668C52.9176 50.1668 52.9175 39.0884 42.3388 39.0884C31.7601 39.0884 31.7375 50.1668 21.1588 50.1668C10.5802 50.1668 10.5802 39.0884 0.00148835 39.0884"
                    stroke="black" stroke-width="2" stroke-miterlimit="10" class="svg-elem-1"></path>
                <path
                    d="M190.418 31.4126C179.839 31.4126 179.839 20.4438 169.261 20.4438C158.682 20.4438 158.682 31.4126 148.103 31.4126C137.524 31.4126 137.525 20.4438 126.946 20.4438C116.367 20.4438 116.39 31.4126 105.811 31.4126C95.2323 31.4126 95.2323 20.4438 84.6536 20.4438C74.0749 20.4438 74.0749 31.4126 63.4963 31.4126C52.9176 31.4126 52.9175 20.4438 42.3388 20.4438C31.7601 20.4438 31.7375 31.4126 21.1588 31.4126C10.5802 31.4126 10.5802 20.4438 0.00148835 20.4438"
                    stroke="black" stroke-width="2" stroke-miterlimit="10" class="svg-elem-2"></path>
                <path
                    d="M190.418 12.7249C179.839 12.7249 179.839 1.64648 169.261 1.64648C158.682 1.64648 158.682 12.7249 148.103 12.7249C137.524 12.7249 137.525 1.64648 126.946 1.64648C116.367 1.64648 116.39 12.7249 105.811 12.7249C95.2323 12.7249 95.2323 1.64648 84.6536 1.64648C74.0749 1.64648 74.0749 12.7249 63.4963 12.7249C52.9176 12.7249 52.9175 1.64649 42.3388 1.64649C31.7601 1.64649 31.7375 12.7249 21.1588 12.7249C10.5802 12.7249 10.5802 1.64649 0.00148835 1.64649"
                    stroke="black" stroke-width="2" stroke-miterlimit="10" class="svg-elem-3"></path>
            </svg>