<svg width="46" height="57" viewBox="0 0 46 57" fill="none" xmlns="http://www.w3.org/2000/svg">
<mask id="path-1-inside-1_440_1844" fill="white">
<path d="M-18.6122 0.210492C-23.548 8.75959 -24.8856 18.9193 -22.3306 28.4546C-19.7756 37.9899 -13.5374 46.1196 -4.98833 51.0555C3.56077 55.9913 13.7205 57.3288 23.2558 54.7739C32.791 52.2189 40.9208 45.9807 45.8566 37.4316L13.6222 18.821L-18.6122 0.210492Z"/>
</mask>
<path d="M-18.6122 0.210492C-23.548 8.75959 -24.8856 18.9193 -22.3306 28.4546C-19.7756 37.9899 -13.5374 46.1196 -4.98833 51.0555C3.56077 55.9913 13.7205 57.3288 23.2558 54.7739C32.791 52.2189 40.9208 45.9807 45.8566 37.4316L13.6222 18.821L-18.6122 0.210492Z" stroke="#FFCC02" stroke-width="10" mask="url(#path-1-inside-1_440_1844)"/>
</svg>
