<svg width="70" height="57" viewBox="0 0 70 57" fill="none" xmlns="http://www.w3.org/2000/svg">
<mask id="path-1-inside-1_440_1839" fill="white">
<path d="M64.8895 56.7104C69.8254 48.1613 71.1629 38.0016 68.6079 28.4663C66.053 18.931 59.8148 10.8013 51.2657 5.86544C42.7166 0.92961 32.5569 -0.40794 23.0216 2.14703C13.4863 4.702 5.35653 10.9402 0.4207 19.4893L32.6551 38.0999L64.8895 56.7104Z"/>
</mask>
<path d="M64.8895 56.7104C69.8254 48.1613 71.1629 38.0016 68.6079 28.4663C66.053 18.931 59.8148 10.8013 51.2657 5.86544C42.7166 0.92961 32.5569 -0.40794 23.0216 2.14703C13.4863 4.702 5.35653 10.9402 0.4207 19.4893L32.6551 38.0999L64.8895 56.7104Z" fill="#FFCC02" stroke="#FFCC02" stroke-width="6" mask="url(#path-1-inside-1_440_1839)"/>
</svg>
