<svg width="154" height="52" viewBox="0 0 154 52" fill="none" xmlns="http://www.w3.org/2000/svg">
<path d="M153.582 50.1629C143.003 50.1629 143.003 39.0845 132.425 39.0845C121.846 39.0845 121.733 50.1629 111.267 50.1629C100.802 50.1629 100.689 39.0845 90.1099 39.0845C79.5312 39.0845 79.5538 50.1629 68.9751 50.1629C58.3964 50.1629 58.3964 39.0845 47.8177 39.0845C37.239 39.0845 37.239 50.1629 26.6603 50.1629C16.0816 50.1629 16.0816 39.0845 5.50289 39.0845C-5.07581 39.0845 -5.0984 50.1629 -15.6771 50.1629C-26.2558 50.1629 -26.2558 39.0845 -36.8344 39.0845" stroke="#FFCC02" stroke-width="2" stroke-miterlimit="10"/>
<path d="M153.582 31.4087C143.003 31.4087 143.003 20.4399 132.425 20.4399C121.846 20.4399 121.846 31.4087 111.267 31.4087C100.689 31.4087 100.689 20.4399 90.1099 20.4399C79.5312 20.4399 79.5538 31.4087 68.9751 31.4087C58.3964 31.4087 58.3964 20.4399 47.8177 20.4399C37.239 20.4399 37.239 31.4087 26.6603 31.4087C16.0816 31.4087 16.0816 20.4399 5.50289 20.4399C-5.07581 20.4399 -5.0984 31.4087 -15.6771 31.4087C-26.2558 31.4087 -26.2558 20.4399 -36.8344 20.4399" stroke="#FFCC02" stroke-width="2" stroke-miterlimit="10"/>
<path d="M153.582 12.721C143.003 12.721 143.003 1.64258 132.425 1.64258C121.846 1.64258 121.846 12.721 111.267 12.721C100.689 12.721 100.689 1.64258 90.1099 1.64258C79.5312 1.64258 79.5538 12.721 68.9751 12.721C58.3964 12.721 58.3964 1.64258 47.8177 1.64258C37.239 1.64258 37.239 12.721 26.6603 12.721C16.0816 12.721 16.0816 1.64258 5.50289 1.64258C-5.07581 1.64258 -5.0984 12.721 -15.6771 12.721C-26.2558 12.721 -26.2558 1.64258 -36.8344 1.64258" stroke="#FFCC02" stroke-width="2" stroke-miterlimit="10"/>
</svg>
