<svg width="67" height="54" viewBox="0 0 67 54" fill="none" xmlns="http://www.w3.org/2000/svg">
<rect x="0.5" y="0.556641" width="70" height="52" rx="4.5" stroke="black"/>
<path d="M35.6262 35.0183L35.4993 35.151L35.3598 35.0183C29.3354 29.2977 25.353 25.5149 25.353 21.679C25.353 19.0244 27.2554 17.0335 29.792 17.0335C31.7452 17.0335 33.6476 18.3608 34.3198 20.1659H36.6788C37.351 18.3608 39.2535 17.0335 41.2066 17.0335C43.7432 17.0335 45.6457 19.0244 45.6457 21.679C45.6457 25.5149 41.6632 29.2977 35.6262 35.0183ZM41.2066 14.3789C38.9998 14.3789 36.8818 15.454 35.4993 17.1397C34.1169 15.454 31.9988 14.3789 29.792 14.3789C25.8857 14.3789 22.8164 17.5777 22.8164 21.679C22.8164 26.6829 27.1286 30.7843 33.6603 36.9827L35.4993 38.7347L37.3384 36.9827C43.8701 30.7843 48.1823 26.6829 48.1823 21.679C48.1823 17.5777 45.113 14.3789 41.2066 14.3789Z" fill="black"/>
</svg>
