<svg width="82" height="17" viewBox="0 0 82 17" fill="none" xmlns="http://www.w3.org/2000/svg">
<path d="M8.91016 0.537109L10.7107 6.07847H16.5372L11.8234 9.50322L13.6239 15.0446L8.91016 11.6198L4.19639 15.0446L5.99689 9.50322L1.28313 6.07847H7.10966L8.91016 0.537109Z" fill="#FFCC02"/>
<path d="M24.9492 0.537109L26.7497 6.07847H32.5762L27.8625 9.50322L29.663 15.0446L24.9492 11.6198L20.2355 15.0446L22.036 9.50322L17.3222 6.07847H23.1487L24.9492 0.537109Z" fill="#FFCC02"/>
<path d="M40.9883 0.537109L42.7888 6.07847H48.6153L43.9015 9.50322L45.702 15.0446L40.9883 11.6198L36.2745 15.0446L38.075 9.50322L33.3613 6.07847H39.1878L40.9883 0.537109Z" fill="#FFCC02"/>
<path d="M57.0273 0.537109L58.8278 6.07847H64.6544L59.9406 9.50322L61.7411 15.0446L57.0273 11.6198L52.3136 15.0446L54.1141 9.50322L49.4003 6.07847H55.2268L57.0273 0.537109Z" fill="#FFCC02"/>
<path d="M73.0664 0.537109L74.8669 6.07847H80.6934L75.9797 9.50322L77.7802 15.0446L73.0664 11.6198L68.3526 15.0446L70.1531 9.50322L65.4394 6.07847H71.2659L73.0664 0.537109Z" fill="#FFCC02"/>
</svg>
