<svg width="71" height="57" viewBox="0 0 71 57" fill="none" xmlns="http://www.w3.org/2000/svg">
<mask id="path-1-inside-1_440_974" fill="white">
<path d="M65.0809 56.4555C70.0168 47.9064 71.3543 37.7467 68.7993 28.2114C66.2444 18.6762 60.0062 10.5464 51.4571 5.61055C42.908 0.674727 32.7483 -0.662823 23.213 1.89215C13.6777 4.44712 5.54793 10.6853 0.612106 19.2344L32.8465 37.845L65.0809 56.4555Z"/>
</mask>
<path d="M65.0809 56.4555C70.0168 47.9064 71.3543 37.7467 68.7993 28.2114C66.2444 18.6762 60.0062 10.5464 51.4571 5.61055C42.908 0.674727 32.7483 -0.662823 23.213 1.89215C13.6777 4.44712 5.54793 10.6853 0.612106 19.2344L32.8465 37.845L65.0809 56.4555Z" fill="black" stroke="black" stroke-width="6" mask="url(#path-1-inside-1_440_974)"/>
</svg>
