<svg width="30" height="30" viewBox="0 0 30 30" fill="none" xmlns="http://www.w3.org/2000/svg">
<path d="M25.9347 14.8818L27.3147 12.5763C27.4806 12.2989 27.5257 11.9692 27.4401 11.6597C27.3546 11.3502 27.1453 11.0861 26.8585 10.9257L24.471 9.59171V6.93337C24.471 6.6129 24.3393 6.30556 24.1048 6.07895C23.8704 5.85234 23.5525 5.72504 23.221 5.72504H20.4722L19.0935 3.41833C18.9269 3.14152 18.6544 2.93923 18.3347 2.85525C18.1762 2.8137 18.0107 2.80299 17.8478 2.82373C17.6849 2.84447 17.528 2.89625 17.386 2.97608L14.9985 4.31008L12.611 2.97487C12.3239 2.81464 11.9827 2.77122 11.6625 2.85416C11.3422 2.9371 11.0692 3.1396 10.9035 3.41712L9.52346 5.72504H6.77471C6.44319 5.72504 6.12524 5.85234 5.89082 6.07895C5.6564 6.30556 5.52471 6.6129 5.52471 6.93337V9.5905L3.13721 10.9245C2.99475 11.0037 2.86988 11.1094 2.76979 11.2354C2.66969 11.3614 2.59634 11.5052 2.55394 11.6587C2.51155 11.8122 2.50094 11.9723 2.52274 12.1298C2.54454 12.2872 2.59831 12.439 2.68096 12.5763L4.06096 14.8818L2.68096 17.1873C2.51594 17.4649 2.47117 17.7944 2.5564 18.1038C2.64164 18.4132 2.84996 18.6775 3.13596 18.8391L5.52346 20.1731V22.8302C5.52346 23.1507 5.65515 23.458 5.88957 23.6846C6.12399 23.9112 6.44194 24.0385 6.77346 24.0385H9.52346L10.9035 26.3465C11.0141 26.5293 11.1721 26.6812 11.3619 26.7871C11.5517 26.8931 11.7668 26.9494 11.986 26.9506C12.2035 26.9506 12.4197 26.895 12.6122 26.7875L14.9972 25.4535L17.3847 26.7875C17.6717 26.9475 18.0127 26.9909 18.3328 26.9082C18.6529 26.8256 18.926 26.6235 19.0922 26.3465L20.471 24.0385H23.2197C23.5512 24.0385 23.8692 23.9112 24.1036 23.6846C24.338 23.458 24.4697 23.1507 24.4697 22.8302V20.1731L26.8572 18.8391C26.9994 18.7596 27.124 18.6539 27.224 18.5278C27.3239 18.4018 27.3971 18.258 27.4395 18.1046C27.4818 17.9512 27.4925 17.7912 27.4709 17.6338C27.4493 17.4764 27.3958 17.3247 27.3135 17.1873L25.9347 14.8818ZM11.8722 8.82804C12.3697 8.8282 12.8467 9.01938 13.1983 9.35951C13.5499 9.69965 13.7474 10.1609 13.7472 10.6417C13.747 11.1226 13.5493 11.5837 13.1974 11.9236C12.8455 12.2635 12.3684 12.4544 11.871 12.4542C11.3735 12.4541 10.8965 12.2629 10.5449 11.9228C10.1932 11.5826 9.99579 11.1214 9.99596 10.6405C9.99612 10.1597 10.1939 9.69857 10.5458 9.35866C10.8976 9.01875 11.3748 8.82788 11.8722 8.82804ZM12.2472 20.428L10.2472 18.9792L17.7472 9.31258L19.7472 10.7614L12.2472 20.428ZM18.1222 20.9114C17.8759 20.9113 17.632 20.8643 17.4045 20.7731C17.177 20.6819 16.9702 20.5483 16.7961 20.3799C16.622 20.2115 16.4839 20.0116 16.3897 19.7916C16.2956 19.5715 16.2471 19.3358 16.2472 19.0977C16.2473 18.8596 16.2959 18.6238 16.3902 18.4039C16.4846 18.1839 16.6228 17.9841 16.797 17.8158C16.9712 17.6475 17.178 17.514 17.4056 17.4229C17.6332 17.3319 17.8771 17.2851 18.1235 17.2852C18.6209 17.2853 19.0979 17.4765 19.4495 17.8166C19.8012 18.1568 19.9986 18.618 19.9985 19.0989C19.9983 19.5797 19.8005 20.0408 19.4487 20.3808C19.0968 20.7207 18.6197 20.9115 18.1222 20.9114Z" fill="#FFCC02"/>
</svg>
