<svg width="71" height="57" viewBox="0 0 71 57" fill="none" xmlns="http://www.w3.org/2000/svg">
<mask id="path-1-inside-1_440_973" fill="white">
<path d="M65.3036 56.4555C70.2394 47.9064 71.577 37.7467 69.022 28.2114C66.467 18.6762 60.2288 10.5464 51.6797 5.61055C43.1306 0.674727 32.9709 -0.662823 23.4357 1.89215C13.9004 4.44712 5.77059 10.6853 0.834762 19.2344L33.0692 37.845L65.3036 56.4555Z"/>
</mask>
<path d="M65.3036 56.4555C70.2394 47.9064 71.577 37.7467 69.022 28.2114C66.467 18.6762 60.2288 10.5464 51.6797 5.61055C43.1306 0.674727 32.9709 -0.662823 23.4357 1.89215C13.9004 4.44712 5.77059 10.6853 0.834762 19.2344L33.0692 37.845L65.3036 56.4555Z" fill="#FFCC02" stroke="#FFCC02" stroke-width="6" mask="url(#path-1-inside-1_440_973)"/>
</svg>
