<svg width="189" height="51" viewBox="0 0 189 51" fill="none" xmlns="http://www.w3.org/2000/svg">
<path d="M188.867 49.7635C178.288 49.7635 178.289 38.6851 167.71 38.6851C157.131 38.6851 157.018 49.7635 146.552 49.7635C136.087 49.7635 135.974 38.6851 125.395 38.6851C114.816 38.6851 114.839 49.7635 104.26 49.7635C93.6816 49.7635 93.6815 38.6851 83.1028 38.6851C72.5241 38.6851 72.5242 49.7635 61.9455 49.7635C51.3668 49.7635 51.3667 38.6851 40.788 38.6851C30.2094 38.6851 30.1868 49.7635 19.6081 49.7635C9.02937 49.7635 9.0294 38.6851 -1.54929 38.6851" stroke="#FFCC02" stroke-width="2" stroke-miterlimit="10"/>
<path d="M188.867 31.9687C178.288 31.9687 178.289 21 167.71 21C157.131 21 157.131 31.9687 146.552 31.9687C135.974 31.9687 135.974 21 125.395 21C114.816 21 114.839 31.9687 104.26 31.9687C93.6816 31.9687 93.6815 21 83.1028 21C72.5241 21 72.5242 31.9687 61.9455 31.9687C51.3668 31.9687 51.3667 21 40.788 21C30.2094 21 30.1868 31.9687 19.6081 31.9687C9.02937 31.9687 9.0294 21 -1.54929 21" stroke="#FFCC02" stroke-width="2" stroke-miterlimit="10"/>
<path d="M188.867 12.3216C178.288 12.3216 178.289 1.24316 167.71 1.24316C157.131 1.24316 157.131 12.3216 146.552 12.3216C135.974 12.3216 135.974 1.24316 125.395 1.24316C114.816 1.24316 114.839 12.3216 104.26 12.3216C93.6816 12.3216 93.6815 1.24316 83.1028 1.24316C72.5241 1.24316 72.5242 12.3216 61.9455 12.3216C51.3668 12.3216 51.3667 1.24316 40.788 1.24316C30.2094 1.24316 30.1868 12.3216 19.6081 12.3216C9.02937 12.3216 9.0294 1.24316 -1.54929 1.24317" stroke="#FFCC02" stroke-width="2" stroke-miterlimit="10"/>
</svg>
