<svg width="70" height="57" viewBox="0 0 70 57" fill="none" xmlns="http://www.w3.org/2000/svg">
<mask id="path-1-inside-1_437_453" fill="white">
<path d="M5.52453 0.746624C0.5887 9.29572 -0.748853 19.4554 1.80612 28.9907C4.36109 38.526 10.5993 46.6558 19.1484 51.5916C27.6975 56.5274 37.8572 57.865 47.3925 55.31C56.9278 52.755 65.0575 46.5168 69.9934 37.9677L37.7589 19.3572L5.52453 0.746624Z"/>
</mask>
<path d="M5.52453 0.746624C0.5887 9.29572 -0.748853 19.4554 1.80612 28.9907C4.36109 38.526 10.5993 46.6558 19.1484 51.5916C27.6975 56.5274 37.8572 57.865 47.3925 55.31C56.9278 52.755 65.0575 46.5168 69.9934 37.9677L37.7589 19.3572L5.52453 0.746624Z" stroke="black" stroke-width="10" mask="url(#path-1-inside-1_437_453)"/>
</svg>
