<svg width="53" height="72" viewBox="0 0 53 72" fill="none" xmlns="http://www.w3.org/2000/svg">
<g clip-path="url(#clip0_391_190)">
<path d="M48.9795 11.3319C47.3069 10.2355 46.0636 8.60912 45.4551 6.72152L45.3778 6.48162C45.015 5.35616 43.9552 4.5918 42.7577 4.5918H11.1483C9.9507 4.5918 8.89095 5.35616 8.52814 6.48162L8.4508 6.72152C7.84231 8.60898 6.59919 10.2353 4.92659 11.3318C4.16005 11.8344 3.69922 12.6819 3.69922 13.5895V61.3058C3.69922 62.2136 4.15991 63.0611 4.92645 63.5635C6.59905 64.66 7.84231 66.2864 8.45066 68.1738L8.528 68.4137C8.89081 69.5392 9.95056 70.3035 11.1481 70.3035H42.7577C43.9552 70.3035 45.015 69.5392 45.3778 68.4137L45.4551 68.1738C46.0636 66.2864 47.3067 64.6599 48.9793 63.5635C49.7459 63.061 50.2066 62.2134 50.2066 61.3058V13.5898C50.2069 12.6821 49.7462 11.8345 48.9795 11.3319Z" fill="#FFCC02"/>
<path d="M48.9801 11.3319C47.3075 10.2355 46.0641 8.60912 45.4557 6.72152L45.3784 6.48162C45.0156 5.35616 43.9558 4.5918 42.7583 4.5918H36.0039C37.2015 4.5918 38.2612 5.35629 38.624 6.48162L38.7014 6.72152C39.3099 8.60912 40.5531 10.2355 42.2257 11.3319C42.9923 11.8345 43.453 12.6821 43.453 13.5897V61.306C43.453 62.2137 42.9923 63.0613 42.2257 63.5638C40.5531 64.6603 39.3099 66.2866 38.7014 68.1741L38.624 68.414C38.2612 69.5395 37.2015 70.3038 36.0039 70.3038H42.7583C43.9558 70.3038 45.0157 69.5393 45.3784 68.414L45.4557 68.1741C46.0642 66.2866 47.3073 64.6603 48.9799 63.5638C49.7465 63.0613 50.2072 62.2137 50.2072 61.306V13.5898C50.2075 12.6821 49.7468 11.8345 48.9801 11.3319Z" fill="#FFBB00"/>
<path d="M3.83594 62.1553C4.0262 62.7244 4.40477 63.2239 4.92452 63.5646C6.59711 64.6611 7.84038 66.2874 8.44872 68.1749L8.52606 68.4148C8.88887 69.5402 9.94863 70.3046 11.1462 70.3046H42.7557C43.9533 70.3046 45.0132 69.5402 45.3759 68.4148L45.4532 68.1749C46.0617 66.2874 47.3048 64.6609 48.9774 63.5646C49.4972 63.2239 49.8756 62.7244 50.066 62.1553H3.83594Z" fill="#E5EBF6"/>
<path d="M49.1952 63.4058C49.2369 63.3724 49.2774 63.3377 49.3167 63.3021C49.3295 63.2906 49.3425 63.2792 49.3551 63.2674C49.4057 63.2197 49.4548 63.1708 49.5015 63.1196C49.5039 63.1171 49.5059 63.1143 49.5083 63.1118C49.5526 63.0629 49.5946 63.0121 49.6351 62.9604C49.6444 62.9485 49.6534 62.9365 49.6624 62.9245C49.6991 62.8758 49.7343 62.8262 49.7674 62.7753C49.7721 62.7682 49.7769 62.7614 49.7814 62.7543C49.8205 62.6933 49.8572 62.6311 49.8912 62.5673C49.8916 62.5666 49.8919 62.5659 49.8922 62.5652C49.9247 62.504 49.9543 62.4415 49.982 62.3781C49.9861 62.3688 49.9902 62.3594 49.9941 62.35C50.0213 62.2858 50.0466 62.2206 50.0688 62.1543H43.3143C43.124 62.7234 42.7455 63.2229 42.2257 63.5636C40.5531 64.6601 39.3099 66.2864 38.7014 68.1739L38.624 68.4138C38.2612 69.5393 37.2015 70.3036 36.0039 70.3036H42.7583C42.908 70.3036 43.0555 70.2917 43.1998 70.2685C43.3441 70.2455 43.4852 70.2111 43.6218 70.1666C43.6902 70.1443 43.7574 70.1195 43.8235 70.092C43.9555 70.0372 44.0828 69.9725 44.204 69.8986C44.2646 69.8615 44.3238 69.8223 44.3814 69.7808C44.7838 69.4906 45.1064 69.0925 45.3023 68.6206C45.3303 68.5532 45.3558 68.4843 45.3784 68.4139L45.4557 68.174C45.6459 67.5841 45.898 67.0199 46.2058 66.4892C46.3906 66.1708 46.5954 65.8646 46.8188 65.5721C46.8933 65.4747 46.9698 65.3788 47.0485 65.2845C47.3629 64.9073 47.7097 64.556 48.0858 64.2345C48.3679 63.9935 48.6665 63.7693 48.9801 63.5636C49.0386 63.5253 49.0945 63.4843 49.1494 63.4421C49.1649 63.4304 49.1799 63.418 49.1952 63.4058Z" fill="#D1DCED"/>
<path d="M26.9511 53.244C34.984 53.244 41.4959 44.6135 41.4959 33.9672C41.4959 23.3209 34.984 14.6904 26.9511 14.6904C18.9182 14.6904 12.4062 23.3209 12.4062 33.9672C12.4062 44.6135 18.9182 53.244 26.9511 53.244Z" fill="#FE4F60"/>
<path opacity="0.2" d="M26.9532 14.6904C25.8024 14.6904 24.683 14.8683 23.6094 15.2031C30.0302 17.2052 34.8102 24.8459 34.8102 33.9668C34.8102 43.0877 30.0302 50.7282 23.6094 52.7305C24.683 53.0652 25.8024 53.2432 26.9532 53.2432C34.9859 53.2432 41.4977 44.6128 41.4977 33.9668C41.4977 23.3207 34.9859 14.6904 26.9532 14.6904Z" fill="white"/>
<path d="M41.2725 39.2942H12.6312C11.2987 39.2942 10.2188 38.2291 10.2188 36.9153V31.0205C10.2188 29.7066 11.2989 28.6416 12.6312 28.6416H41.2724C42.6048 28.6416 43.6848 29.7067 43.6848 31.0205V36.9153C43.685 38.2292 42.6048 39.2942 41.2725 39.2942Z" fill="white"/>
<path d="M41.2721 28.6416H37.0234V39.2942H41.2721C42.6046 39.2942 43.6846 38.2291 43.6846 36.9153V31.0205C43.6847 29.7067 42.6046 28.6416 41.2721 28.6416Z" fill="#F4F2ED"/>
<path d="M46.726 5.42403H7.17975C6.5347 5.42403 6.01172 4.90831 6.01172 4.27222V2.58833C6.01172 1.95224 6.5347 1.43652 7.17975 1.43652H46.7259C47.3709 1.43652 47.8939 1.95224 47.8939 2.58833V4.27222C47.8941 4.90831 47.3711 5.42403 46.726 5.42403Z" fill="#FFBF14"/>
<path d="M46.7271 1.43652H41.1406V5.42403H46.7271C47.3721 5.42403 47.8951 4.90831 47.8951 4.27222V2.58847C47.8951 1.95224 47.3721 1.43652 46.7271 1.43652Z" fill="#EDA60A"/>
<path d="M20.452 33.7091C20.9095 33.5133 21.1859 33.0619 21.1859 32.3721C21.1859 31.1629 20.3224 30.8564 19.4589 30.8564H17.6887C17.395 30.8564 17.1016 30.9926 17.1016 31.2651V36.6808C17.1016 36.8937 17.326 37.081 17.6887 37.081H19.6057C20.5815 37.081 21.3413 36.5957 21.3413 35.2503V35.0715C21.3413 34.2201 20.9786 33.905 20.452 33.7091ZM18.4399 32.0146H19.3465C19.6746 32.0146 19.8388 32.3126 19.8388 32.6106C19.8388 32.9002 19.6747 33.1982 19.3465 33.1982H18.4399V32.0146ZM19.9942 35.1396C19.9942 35.6846 19.735 35.923 19.3033 35.923H18.4399V34.2199H19.3033C19.735 34.2199 19.9942 34.4243 19.9942 35.0033V35.1396Z" fill="black"/>
<path d="M26.1377 32.0146C26.3969 32.0146 26.5436 31.7421 26.5436 31.4271C26.5436 31.1546 26.4228 30.8564 26.1377 30.8564H23.0637C22.77 30.8564 22.4766 30.9926 22.4766 31.2651V36.6723C22.4766 36.9448 22.77 37.081 23.0637 37.081H26.1377C26.4228 37.081 26.5436 36.783 26.5436 36.5105C26.5436 36.1954 26.3969 35.923 26.1377 35.923H23.8235V34.4755H25.1188C25.4037 34.4755 25.5246 34.203 25.5246 33.9731C25.5246 33.7006 25.3778 33.4536 25.1188 33.4536H23.8235V32.0146H26.1377Z" fill="black"/>
<path d="M31.2237 32.0146C31.4828 32.0146 31.6295 31.7421 31.6295 31.4271C31.6295 31.1546 31.5087 30.8564 31.2237 30.8564H28.1496C27.856 30.8564 27.5625 30.9926 27.5625 31.2651V36.6723C27.5625 36.9448 27.856 37.081 28.1496 37.081H31.2237C31.5087 37.081 31.6295 36.783 31.6295 36.5105C31.6295 36.1954 31.4828 35.923 31.2237 35.923H28.9094V34.4755H30.2047C30.4896 34.4755 30.6105 34.203 30.6105 33.9731C30.6105 33.7006 30.4637 33.4536 30.2047 33.4536H28.9094V32.0146H31.2237Z" fill="black"/>
<path d="M35.9298 34.4073C36.5342 34.1774 36.9746 33.6324 36.9746 32.6787C36.9746 31.2906 36.0333 30.8564 34.8503 30.8564H33.0629C32.8124 30.8564 32.6484 31.0438 32.6484 31.2567V36.6723C32.6484 36.9448 32.9851 37.081 33.3219 37.081C33.6587 37.081 33.9955 36.9448 33.9955 36.6723V34.6201H34.5654L35.7484 36.8852C35.8434 37.0641 36.0074 37.1322 36.1801 37.1322C36.5774 37.1322 37.0264 36.7745 37.0264 36.4424C37.0264 36.3999 37.0178 36.3402 36.9832 36.2892L35.9298 34.4073ZM34.8503 33.5984H33.9955V32.0146H34.8503C35.3338 32.0146 35.6276 32.2104 35.6276 32.8066C35.6276 33.4026 35.334 33.5984 34.8503 33.5984Z" fill="black"/>
<path d="M49.5774 10.4442C48.1421 9.50332 47.0591 8.10135 46.5162 6.48971H46.7252C47.9654 6.48971 48.9744 5.49474 48.9744 4.27179V2.58804C48.9744 1.36509 47.9654 0.370117 46.7252 0.370117H7.1792C5.93903 0.370117 4.93005 1.36509 4.93005 2.58804V4.27193C4.93005 5.49487 5.93903 6.48985 7.1792 6.48985H7.38803C6.84536 8.10149 5.76227 9.50346 4.32705 10.4444C3.25633 11.1463 2.61719 12.3221 2.61719 13.5898V61.3061C2.61719 62.3585 3.05889 63.3468 3.82094 64.0539C3.82797 64.0604 3.83528 64.0668 3.84245 64.0733C3.90602 64.1314 3.97169 64.1873 4.03961 64.2414C4.0562 64.2547 4.07266 64.2682 4.08953 64.2812C4.16645 64.3404 4.24506 64.3978 4.32705 64.4516C4.60127 64.6314 4.86255 64.8279 5.10991 65.0396C6.18133 65.9566 6.98739 67.1564 7.41967 68.4975L7.49702 68.7372C7.90947 70.0168 8.95516 70.9552 10.2318 71.2621C10.5264 71.333 10.8332 71.3701 11.1474 71.3701H42.7569H42.757C43.9711 71.3701 45.0734 70.8129 45.7827 69.9082C45.9303 69.7202 46.0627 69.519 46.1734 69.3027C46.1775 69.2946 46.1807 69.2862 46.1848 69.2781C46.2715 69.1057 46.3466 68.9255 46.4072 68.7374L46.4849 68.4973C46.5846 68.1879 46.7043 67.886 46.8425 67.5933C46.9346 67.3981 47.035 67.2072 47.1433 67.0208C47.7388 65.9958 48.572 65.1107 49.5774 64.4518C49.6593 64.398 49.738 64.3406 49.8147 64.2815C49.8316 64.2685 49.8481 64.255 49.8648 64.2416C49.9324 64.1876 49.998 64.1317 50.0614 64.0739C50.0687 64.0672 50.0762 64.0607 50.0835 64.0539C50.8457 63.3467 51.2872 62.3585 51.2872 61.3061V13.5898C51.2872 12.3221 50.6479 11.1462 49.5774 10.4442ZM47.4489 63.3708C47.4217 63.3936 47.3939 63.4158 47.367 63.4388C47.2687 63.5232 47.1721 63.6095 47.0773 63.6975C47.0551 63.7181 47.0339 63.7396 47.0119 63.7604C46.9397 63.8289 46.8679 63.8979 46.7978 63.9685C46.7647 64.0018 46.7327 64.0358 46.7002 64.0693C46.6422 64.1294 46.5846 64.1897 46.5282 64.2511C46.494 64.2883 46.4604 64.326 46.4268 64.3637C46.3734 64.4238 46.3205 64.4845 46.2686 64.5458C46.2358 64.5845 46.2032 64.6233 46.171 64.6626C46.1187 64.7262 46.0675 64.7908 46.0169 64.8557C45.9876 64.8932 45.9581 64.9305 45.9294 64.9683C45.8737 65.042 45.8194 65.1167 45.7659 65.192C45.7443 65.2222 45.722 65.2519 45.7009 65.2823C45.6268 65.3886 45.5545 65.4964 45.4846 65.6055C45.4762 65.6188 45.4683 65.6324 45.4599 65.6457C45.3991 65.7417 45.3399 65.8386 45.2825 65.9367C45.2612 65.9733 45.2409 66.0104 45.22 66.0472C45.1768 66.1232 45.1342 66.1995 45.0931 66.2766C45.0703 66.3193 45.0484 66.3624 45.0263 66.4054C44.9888 66.4785 44.9521 66.5518 44.9163 66.6259C44.8947 66.6707 44.8735 66.7156 44.8525 66.7608C44.8178 66.8357 44.7844 66.911 44.7517 66.9868C44.7325 67.0309 44.7133 67.075 44.6949 67.1194C44.6607 67.2016 44.6283 67.2847 44.5966 67.3679C44.5819 67.4063 44.5665 67.4443 44.5523 67.4827C44.5074 67.6046 44.4645 67.7272 44.4247 67.8509L44.3471 68.0911C44.3194 68.1768 44.2854 68.259 44.2453 68.3372C43.9649 68.885 43.3959 69.2378 42.7572 69.2378H11.1474C11.0561 69.2378 10.9664 69.2306 10.8786 69.2167C10.396 69.14 9.97567 68.8595 9.72381 68.4515C9.65519 68.3404 9.59908 68.2198 9.55773 68.0914L9.48025 67.8512C9.43989 67.7262 9.39658 67.6024 9.3513 67.4794C9.33906 67.4463 9.32584 67.4137 9.31319 67.3807C9.27944 67.2922 9.24499 67.2039 9.2087 67.1165C9.19141 67.0748 9.17327 67.0336 9.15541 66.9921C9.12152 66.9136 9.08692 66.8357 9.05106 66.7582C9.03095 66.7148 9.01042 66.6715 8.98961 66.6284C8.95319 66.5528 8.91564 66.4778 8.87725 66.403C8.85574 66.3612 8.83436 66.3193 8.81228 66.2777C8.77066 66.1995 8.72734 66.1221 8.68361 66.045C8.66322 66.0091 8.64339 65.9727 8.62258 65.9371C8.56464 65.8379 8.50473 65.7399 8.44328 65.6428C8.43555 65.6305 8.42824 65.6179 8.42036 65.6057C8.35047 65.4964 8.27805 65.3885 8.20394 65.2821C8.1827 65.2516 8.16034 65.2218 8.13869 65.1915C8.08525 65.1166 8.03125 65.0421 7.9757 64.9688C7.94659 64.9303 7.91664 64.8926 7.88697 64.8546C7.83677 64.7903 7.786 64.7263 7.73425 64.6633C7.70177 64.6236 7.66872 64.5844 7.63553 64.5452C7.58392 64.4844 7.53161 64.4242 7.47845 64.3646C7.44456 64.3264 7.41067 64.2883 7.37608 64.2507C7.32011 64.1897 7.26288 64.1298 7.20536 64.0703C7.17245 64.0362 7.13997 64.0018 7.10664 63.9682C7.03717 63.8983 6.96616 63.8298 6.89444 63.762C6.8718 63.7407 6.85 63.7186 6.82722 63.6974C6.73258 63.6093 6.63597 63.5232 6.53781 63.4389C6.51081 63.4158 6.48297 63.3936 6.45569 63.3707C6.39578 63.3204 6.33616 63.2696 6.27498 63.2206H47.6297C47.5684 63.2696 47.5088 63.3204 47.4489 63.3708ZM49.125 61.0886H4.77944V13.5898C4.77944 13.0378 5.05788 12.5255 5.52419 12.2198C7.39478 10.9935 8.79977 9.15553 9.47997 7.04495L9.55759 6.80477C9.59331 6.69397 9.64155 6.58927 9.69934 6.48971H12.9704C13.5675 6.48971 14.0515 6.0124 14.0515 5.4236C14.0515 4.8348 13.5677 4.35749 12.9704 4.35749H7.1792C7.13125 4.35749 7.09216 4.31908 7.09216 4.27179V2.58804C7.09216 2.54075 7.13111 2.50234 7.1792 2.50234H46.7252C46.7732 2.50234 46.8122 2.54075 46.8122 2.58804V4.27193C46.8122 4.31921 46.7733 4.35763 46.7252 4.35763H18.0006C17.4035 4.35763 16.9195 4.83494 16.9195 5.42374C16.9195 6.01254 17.4033 6.48985 18.0006 6.48985H44.2052C44.2629 6.58927 44.3111 6.69397 44.3467 6.80463L44.4242 7.04467C45.1048 9.15567 46.5098 10.9936 48.3802 12.2198C48.8465 12.5255 49.125 13.0377 49.125 13.5897V61.0886Z" fill="black"/>
<path d="M41.805 27.6146C40.8431 23.8009 38.997 20.3758 36.556 17.9019C33.7953 15.1039 30.4753 13.625 26.9549 13.625C23.4345 13.625 20.1144 15.1039 17.3535 17.9019C14.9126 20.3758 13.0665 23.8007 12.1046 27.6146C10.4286 27.867 9.14062 29.298 9.14062 31.0201V36.9149C9.14062 38.637 10.4286 40.0681 12.1046 40.3204C13.0665 44.1342 14.9126 47.5593 17.3535 50.0332C20.1144 52.8311 23.4343 54.3101 26.9549 54.3101C30.4754 54.3101 33.7953 52.8311 36.5562 50.0332C38.9971 47.5593 40.8433 44.1343 41.8051 40.3204C43.4811 40.0681 44.7691 38.6371 44.7691 36.9149V31.0201C44.7689 29.298 43.481 27.867 41.805 27.6146ZM26.9549 52.1777C21.3521 52.1777 16.305 47.3816 14.3488 40.3598H39.5609C37.6047 47.3816 32.5576 52.1777 26.9549 52.1777ZM42.6068 36.9148C42.6068 37.6387 42.0096 38.2276 41.2755 38.2276H12.6345C11.9004 38.2276 11.3032 37.6387 11.3032 36.9148V31.02C11.3032 30.2961 11.9004 29.7071 12.6345 29.7071C12.6337 29.7071 12.6352 29.7071 12.6345 29.7071H32.2969C32.894 29.7071 33.378 29.2297 33.378 28.6409C33.378 28.0521 32.8942 27.5748 32.2969 27.5748H14.3508C16.3072 20.5537 21.3525 15.7569 26.9549 15.7569C32.5572 15.7569 37.6026 20.5537 39.5589 27.5748H37.3333C36.7362 27.5748 36.2521 28.0521 36.2521 28.6409C36.2521 29.2297 36.736 29.7071 37.3333 29.7071H41.2754C41.2762 29.7071 41.2754 29.7071 41.2762 29.7071C41.2775 29.7071 41.274 29.7071 41.2754 29.7071C42.0095 29.7071 42.6067 30.296 42.6067 31.02V36.9148H42.6068Z" fill="black"/>
</g>
<defs>
<clipPath id="clip0_391_190">
<rect width="52" height="71" fill="white" transform="translate(0.953125 0.370117)"/>
</clipPath>
</defs>
</svg>
