<svg width="76" height="76" viewBox="0 0 76 76" fill="none" xmlns="http://www.w3.org/2000/svg">
<g clip-path="url(#clip0_391_227)">
<path fill-rule="evenodd" clip-rule="evenodd" d="M69.0547 65.4971C69.0547 69.6426 65.6709 73.0264 61.5254 73.0264H15.3535C11.208 73.0264 7.82422 69.6426 7.82422 65.4971V38.4561H69.0547V65.4971Z" fill="#FFAA64"/>
<path fill-rule="evenodd" clip-rule="evenodd" d="M38.4385 47.0107C53.1455 47.0107 63.3848 51.6104 63.3848 55.7412C63.3848 59.8721 53.1455 64.4717 38.4385 64.4717C23.7314 64.4717 13.4922 59.8721 13.4922 55.7412C13.4922 51.6104 23.7314 47.0107 38.4385 47.0107Z" fill="#FDC74C"/>
<path fill-rule="evenodd" clip-rule="evenodd" d="M58.4199 7.28418C58.918 9.02734 59.2842 10.6973 59.5039 12.2793H53.0146C53.2344 10.6973 53.6006 9.02734 54.0986 7.28418H58.4199ZM22.7656 7.28418C23.2637 9.02734 23.6299 10.6973 23.8643 12.2793H17.375C17.5947 10.6973 17.9609 9.02734 18.459 7.28418H22.7656ZM40.6074 7.28418C41.1055 9.02734 41.4717 10.6973 41.7061 12.2793H35.2168C35.4365 10.6973 35.8027 9.02734 36.3154 7.28418H40.6074Z" fill="#FDC74C"/>
<path fill-rule="evenodd" clip-rule="evenodd" d="M24.6533 3.21191V4.92578H16.582V3.21191C16.582 2.93359 16.8018 2.71387 17.0801 2.71387H24.1553C24.4189 2.71387 24.6533 2.94824 24.6533 3.21191ZM41.9678 2.71387H34.8926C34.6289 2.71387 34.3945 2.94824 34.3945 3.21191V4.92578H42.4658V3.21191C42.4658 2.94824 42.2461 2.71387 41.9678 2.71387ZM59.8096 2.71387H52.7344C52.4561 2.71387 52.2363 2.93359 52.2363 3.21191V4.92578H60.3076V3.21191C60.3076 2.94824 60.0586 2.71387 59.8096 2.71387Z" fill="#EC5454"/>
<path fill-rule="evenodd" clip-rule="evenodd" d="M48.5439 28.0117C48.5439 25.3457 50.126 22.9141 52.5723 21.8301C53.085 21.5957 53.3633 21.0537 53.2461 20.5117C52.8359 18.666 52.6895 16.7178 52.8066 14.6377H59.7646C59.8818 16.7178 59.7354 18.666 59.3252 20.5117C59.208 21.0537 59.4863 21.6104 59.999 21.8301C62.4453 22.9287 64.0273 25.3604 64.0273 28.0117V36.1123H48.5439V28.0117ZM16.9033 21.8154C17.416 21.5811 17.6943 21.0391 17.5771 20.4971C17.167 18.6514 17.0205 16.7031 17.1377 14.623H24.0957C24.2129 16.7031 24.0664 18.6514 23.6562 20.4971C23.5391 21.0391 23.8174 21.5957 24.3301 21.8154C26.7764 22.9141 28.3584 25.3457 28.3584 27.9971V36.0977H12.875V27.9971C12.875 25.3457 14.457 22.9141 16.9033 21.8154ZM30.7021 28.0117C30.7021 25.3457 32.2842 22.9141 34.7305 21.8301C35.2432 21.5957 35.5215 21.0537 35.4043 20.5117C34.9941 18.666 34.8477 16.7178 34.9648 14.6377H41.9229C42.04 16.7178 41.8936 18.666 41.4834 20.5117C41.3662 21.0537 41.6445 21.6104 42.1572 21.8301C44.6035 22.9287 46.1855 25.3457 46.1855 28.0117V36.1123H30.7021V28.0117Z" fill="#FE4F60"/>
<path fill-rule="evenodd" clip-rule="evenodd" d="M64.2197 14.623L68.7754 36.1123H66.3438V28.0117C66.3438 24.7451 64.5713 21.7422 61.7734 20.1162C62.0811 18.373 62.1836 16.542 62.0957 14.623H64.2197ZM12.6572 14.623H14.7959C14.6934 16.542 14.8105 18.3584 15.1182 20.1162C12.3057 21.7422 10.5479 24.7451 10.5479 28.0117V36.1123H8.10156L12.6572 14.623ZM32.6084 14.623C32.5059 16.542 32.6084 18.3584 32.9307 20.1162C31.4951 20.9512 30.3232 22.1523 29.5322 23.5586C28.7412 22.1523 27.5693 20.9512 26.1338 20.1162C26.4414 18.373 26.5439 16.542 26.4561 14.623H32.6084ZM50.4355 14.623C50.333 16.542 50.4502 18.3584 50.7578 20.1162C49.3223 20.9512 48.1504 22.1523 47.3594 23.5586C46.5684 22.1523 45.3965 20.9512 43.9609 20.1162C44.2686 18.373 44.3711 16.542 44.2832 14.623H50.4355Z" fill="#BC7830"/>
<path fill-rule="evenodd" clip-rule="evenodd" d="M71.4111 37.1816C71.4111 37.167 71.4111 37.167 71.4111 37.1523C71.4111 37.1377 71.4111 37.123 71.4111 37.1084C71.4111 37.0791 71.4111 37.0498 71.3965 37.0352L66.3135 13.2021C66.1963 12.6602 65.7129 12.2793 65.1709 12.2793H61.8896C61.6846 10.6826 61.333 9.0127 60.8643 7.28418H61.4795C62.124 7.28418 62.6514 6.75684 62.6514 6.1123V3.21191C62.6514 1.64453 61.3769 0.370117 59.8096 0.370117H52.7344C51.1523 0.370117 49.8779 1.64453 49.8779 3.21191V6.1123C49.8779 6.75684 50.4053 7.28418 51.0498 7.28418H51.665C51.1963 9.0127 50.8447 10.6826 50.6396 12.2793H44.0479C43.8428 10.6826 43.4912 9.0127 43.0225 7.28418H43.6377C44.2822 7.28418 44.8096 6.75684 44.8096 6.1123V3.21191C44.8242 1.64453 43.5498 0.370117 41.9678 0.370117H34.8926C33.3252 0.370117 32.0508 1.64453 32.0508 3.21191V6.1123C32.0508 6.75684 32.5781 7.28418 33.2227 7.28418H33.8379C33.3691 9.0127 33.0176 10.6826 32.8125 12.2793H26.2207C26.0156 10.6826 25.6641 9.0127 25.1953 7.28418H25.8105C26.4551 7.28418 26.9824 6.75684 26.9824 6.1123V3.21191C26.9824 1.64453 25.708 0.370117 24.1406 0.370117H17.0654C15.5127 0.370117 14.2383 1.64453 14.2383 3.21191V6.1123C14.2383 6.75684 14.7656 7.28418 15.4102 7.28418H16.0254C15.5566 9.0127 15.2051 10.6826 15 12.2793H11.7041C11.1475 12.2793 10.6787 12.6602 10.5615 13.2021L5.52246 37.0352C5.52246 37.0645 5.50781 37.0938 5.50781 37.123V37.1523V37.1963V37.2842V65.4971C5.50781 70.9463 9.94629 75.3701 15.3809 75.3701H61.5381C66.9873 75.3701 71.4111 70.9463 71.4111 65.4971V37.2695C71.4111 37.2402 71.4111 37.2109 71.4111 37.1816ZM64.2188 14.623L68.7744 36.1123H66.3428V28.0117C66.3428 24.7451 64.5703 21.7422 61.7725 20.1162C62.0801 18.373 62.1826 16.542 62.0947 14.623H64.2188ZM16.9043 21.8154C17.417 21.5811 17.6953 21.0391 17.5781 20.4971C17.168 18.6514 17.0215 16.7031 17.1387 14.623H24.0967C24.2139 16.7031 24.0674 18.6514 23.6572 20.4971C23.54 21.0391 23.8184 21.5957 24.3311 21.8154C26.7773 22.9141 28.3594 25.3457 28.3594 27.9971V36.0977H12.876V27.9971C12.876 25.3457 14.458 22.9141 16.9043 21.8154ZM30.7031 28.0117C30.7031 25.3457 32.2852 22.9141 34.7314 21.8301C35.2441 21.5957 35.5225 21.0537 35.4053 20.5117C34.9951 18.666 34.8486 16.7178 34.9658 14.6377H41.9238C42.041 16.7178 41.8945 18.666 41.4844 20.5117C41.3672 21.0537 41.6455 21.6104 42.1582 21.8301C44.6045 22.9287 46.1865 25.3457 46.1865 28.0117V36.1123H30.7031V28.0117ZM48.5449 28.0117C48.5449 25.3457 50.127 22.9141 52.5732 21.8301C53.0859 21.5957 53.3643 21.0537 53.2471 20.5117C52.8369 18.666 52.6904 16.7178 52.8076 14.6377H59.7656C59.8828 16.7178 59.7363 18.666 59.3262 20.5117C59.209 21.0537 59.4873 21.6104 60 21.8301C62.4463 22.9287 64.0283 25.3604 64.0283 28.0117V36.1123H48.5449V28.0117ZM52.2363 3.21191C52.2363 2.93359 52.4561 2.71387 52.7344 2.71387H59.8096C60.0732 2.71387 60.3076 2.94824 60.3076 3.21191V4.92578H52.2363V3.21191ZM58.418 7.28418C58.916 9.02734 59.2822 10.6973 59.502 12.2793H53.0127C53.2324 10.6973 53.5986 9.02734 54.0967 7.28418H58.418ZM50.4346 14.623C50.332 16.542 50.4492 18.3584 50.7568 20.1162C49.3213 20.9512 48.1494 22.1523 47.3584 23.5586C46.5674 22.1523 45.3955 20.9512 43.96 20.1162C44.2676 18.373 44.3701 16.542 44.2822 14.623H50.4346ZM34.3945 3.21191C34.3945 2.94824 34.6289 2.71387 34.8926 2.71387H41.9678C42.2314 2.71387 42.4658 2.94824 42.4658 3.21191V4.92578H34.3945V3.21191ZM40.6055 7.28418C41.1035 9.02734 41.4697 10.6973 41.7041 12.2793H35.2148C35.4346 10.6973 35.8008 9.02734 36.3135 7.28418H40.6055ZM32.6074 14.623C32.5049 16.542 32.6074 18.3584 32.9297 20.1162C31.4941 20.9512 30.3223 22.1523 29.5312 23.5586C28.7402 22.1523 27.5684 20.9512 26.1328 20.1162C26.4404 18.373 26.543 16.542 26.4551 14.623H32.6074ZM16.5967 3.21191C16.5967 2.93359 16.8164 2.71387 17.0947 2.71387H24.1699C24.4336 2.71387 24.668 2.94824 24.668 3.21191V4.92578H16.5967V3.21191ZM22.7637 7.28418C23.2617 9.02734 23.6279 10.6973 23.8623 12.2793H17.373C17.5928 10.6973 17.959 9.02734 18.457 7.28418H22.7637ZM12.6563 14.623H14.7949C14.6924 16.542 14.8096 18.3584 15.1172 20.1162C12.3047 21.7422 10.5469 24.7451 10.5469 28.0117V36.1123H8.10059L12.6563 14.623ZM69.0527 65.4971C69.0527 69.6426 65.6689 73.0264 61.5234 73.0264H15.3516C11.2061 73.0264 7.82227 69.6426 7.82227 65.4971V38.4561H69.0527V65.4971ZM21.7822 60.5898H24.6533C26.3086 60.5898 27.6562 59.2422 27.6562 57.5869C27.6562 56.8984 27.4219 56.2686 27.0264 55.7705C27.4219 55.2578 27.6562 54.6279 27.6562 53.9541C27.6562 52.2988 26.3086 50.9512 24.6533 50.9512H21.7822C21.1377 50.9512 20.6104 51.4785 20.6104 52.123V55.7705V59.418C20.625 60.0625 21.123 60.5898 21.7822 60.5898ZM24.6533 58.2314H22.9541V56.9277H24.6533C25.0049 56.9277 25.2978 57.2207 25.2978 57.5723C25.3125 57.9385 25.0049 58.2314 24.6533 58.2314ZM22.9541 53.2803H24.6533C25.0049 53.2803 25.2978 53.5732 25.2978 53.9395C25.2978 54.291 25.0049 54.584 24.6533 54.584H22.9541V53.2803ZM50.2881 60.5898C50.9326 60.5898 51.46 60.0625 51.46 59.418V57.0449L53.8477 60.1357C54.082 60.4287 54.4189 60.5898 54.7705 60.5898C55.0195 60.5898 55.2686 60.5166 55.4883 60.3408C56.001 59.9453 56.0889 59.2129 55.6934 58.7002L54.2432 56.8252C55.4297 56.4004 56.2793 55.2725 56.2793 53.9541C56.2793 52.2695 54.917 50.9072 53.2324 50.9072H50.2881C49.6436 50.9072 49.1162 51.4346 49.1162 52.0791V55.4336V55.8291V59.418C49.1016 60.0625 49.6289 60.5898 50.2881 60.5898ZM51.46 53.2363H53.2324C53.6133 53.2363 53.9355 53.5586 53.9355 53.9395C53.9355 54.3203 53.6133 54.6426 53.2324 54.6426H51.46V53.2363ZM31.2305 59.418V52.123C31.2305 51.4785 31.7578 50.9512 32.4023 50.9512H36.0498C36.6943 50.9512 37.2217 51.4785 37.2217 52.123C37.2217 52.7676 36.6943 53.2949 36.0498 53.2949H33.5742V54.5986H35.083C35.7275 54.5986 36.2549 55.126 36.2549 55.7705C36.2549 56.415 35.7275 56.9424 35.083 56.9424H33.5742V58.2461H36.0498C36.6943 58.2461 37.2217 58.7734 37.2217 59.418C37.2217 60.0625 36.6943 60.5898 36.0498 60.5898H32.4023C31.7578 60.5898 31.2305 60.0625 31.2305 59.418ZM40.0195 59.418V52.123C40.0195 51.4785 40.5469 50.9512 41.1914 50.9512H44.8389C45.4834 50.9512 46.0107 51.4785 46.0107 52.123C46.0107 52.7676 45.4834 53.2949 44.8389 53.2949H42.3633V54.5986H43.8721C44.5166 54.5986 45.0439 55.126 45.0439 55.7705C45.0439 56.415 44.5166 56.9424 43.8721 56.9424H42.3633V58.2461H44.8389C45.4834 58.2461 46.0107 58.7734 46.0107 59.418C46.0107 60.0625 45.4834 60.5898 44.8389 60.5898H41.1914C40.5469 60.5898 40.0195 60.0625 40.0195 59.418ZM19.5703 63.8271C24.6387 65.7461 31.3477 66.8154 38.4521 66.8154C45.542 66.8154 52.251 65.7607 57.3193 63.8271C62.7539 61.7617 65.7422 58.8906 65.7422 55.7412C65.7422 52.5771 62.7539 49.7061 57.3193 47.6553C52.251 45.7363 45.542 44.667 38.4521 44.667C31.3477 44.667 24.6533 45.7217 19.5703 47.6553C14.1357 49.7207 11.1621 52.5918 11.1621 55.7412C11.1621 58.8906 14.1357 61.7764 19.5703 63.8271ZM38.4375 47.0107C53.1445 47.0107 63.3838 51.6104 63.3838 55.7412C63.3838 59.8721 53.1445 64.4717 38.4375 64.4717C23.7305 64.4717 13.4912 59.8721 13.4912 55.7412C13.4912 51.6104 23.7305 47.0107 38.4375 47.0107Z" fill="black"/>
<path opacity="0.3" fill-rule="evenodd" clip-rule="evenodd" d="M10.1533 63.9297V38.4561H7.82422V65.4971C7.82422 69.6426 11.208 73.0264 15.3535 73.0264H61.5254C63.5908 73.0264 65.4658 72.1914 66.8281 70.8291C65.9053 71.2246 64.8945 71.4443 63.8398 71.4443H17.6826C13.5371 71.459 10.1533 68.0752 10.1533 63.9297Z" fill="white"/>
</g>
<defs>
<clipPath id="clip0_391_227">
<rect width="75" height="75" fill="white" transform="translate(0.953125 0.370117)"/>
</clipPath>
</defs>
</svg>
