<svg width="30" height="30" viewBox="0 0 30 30" fill="none" xmlns="http://www.w3.org/2000/svg">
<path d="M25.5695 9.65527H19.375V20.8825H29.5242V15.8291L28.3405 11.7382C27.9837 10.5046 26.8537 9.65527 25.5695 9.65527Z" fill="#459CFF"/>
<path d="M28.0427 15.7776L26.9878 12.131C26.8059 11.5041 26.2228 11.0654 25.5698 11.0654H20.7852V15.7776H28.0427Z" fill="#84DBFF"/>
<path d="M28.0445 15.7756H20.7832V11.0635L28.0445 15.7756Z" fill="#CDD6E0"/>
<path d="M28.0427 15.7776L26.9878 12.131C26.8059 11.5041 26.2228 11.0654 25.5698 11.0654H20.7852L28.0427 15.7776Z" fill="#F2F2F2"/>
<path d="M1.87484 4.01904H17.501C18.5359 4.01904 19.3759 4.85833 19.3759 5.89389V20.882H0V5.89389C0 4.85839 0.839285 4.01904 1.87484 4.01904Z" fill="#8EC2FD"/>
<path d="M12.6996 4.02197V8.97589L11.9746 8.25097L11.2147 9.01093L10.4554 8.25097L9.69607 9.01093L8.93547 8.25097L8.1662 9.01093L7.40748 8.25097L6.67383 8.98468V4.02197H12.6996Z" fill="#F2F2F2"/>
<path d="M29.9994 20.8815V23H0.00195312V20.8815H3.13294C3.86413 19.5691 5.27026 18.6816 6.88263 18.6816C8.48872 18.6816 9.89485 19.5691 10.6323 20.8815H20.7065C21.4377 19.5691 22.8369 18.6816 24.4493 18.6816C26.0617 18.6816 27.4615 19.5691 28.199 20.8815H29.9994Z" fill="#334A5E"/>
<path d="M27.444 22.9868C27.444 24.6404 26.1035 25.9809 24.4499 25.9809C22.7963 25.9809 21.457 24.6404 21.457 22.9868C21.457 21.3332 22.7969 19.9927 24.4499 19.9927C26.1042 19.9927 27.444 21.3332 27.444 22.9868Z" fill="#40596B"/>
<path d="M25.6541 22.9866C25.6541 23.6509 25.1154 24.189 24.4517 24.189C23.7874 24.189 23.248 23.6509 23.248 22.9866C23.248 22.3223 23.7868 21.7842 24.4517 21.7842C25.1154 21.7836 25.6541 22.3223 25.6541 22.9866Z" fill="#ACB3BA"/>
<path d="M9.87497 22.9868C9.87497 24.6404 8.53381 25.9809 6.88084 25.9809C5.22723 25.9809 3.88672 24.6404 3.88672 22.9868C3.88672 21.3332 5.22723 19.9927 6.88084 19.9927C8.53381 19.9927 9.87497 21.3332 9.87497 22.9868Z" fill="#40596B"/>
<path d="M8.08316 22.9866C8.08316 23.6509 7.54508 24.189 6.88074 24.189C6.2164 24.189 5.67773 23.6509 5.67773 22.9866C5.67773 22.3223 6.21646 21.7842 6.88074 21.7842C7.54502 21.7842 8.08316 22.3223 8.08316 22.9866Z" fill="#ACB3BA"/>
</svg>
