<svg width="77" height="77" viewBox="0 0 77 77" fill="none" xmlns="http://www.w3.org/2000/svg">
<g clip-path="url(#clip0_391_211)">
<path d="M75.6163 53.0694C75.6163 55.2825 73.8207 57.0782 71.6075 57.0782H15.3174C13.1042 57.0782 11.3086 55.2825 11.3086 53.0694V16.9902C11.3086 14.777 13.1042 12.9814 15.3174 12.9814H47.5547C49.7679 12.9814 51.5635 14.777 51.5635 16.9902V31.6891H59.7482V38.8716C59.7482 41.0847 61.5438 42.8803 63.7569 42.8803H75.5244C75.651 43.5403 75.6163 43.0681 75.6163 53.0694Z" fill="#FFAA64"/>
<path d="M75.6152 53.0687C75.6152 55.2819 73.8196 57.0775 71.6065 57.0775H51.5625V31.6885H65.61C67.3755 31.6885 69.0291 32.5621 70.0247 34.0203L74.6849 40.8486C75.1041 41.4632 75.3898 42.1564 75.5234 42.8797C75.65 43.5396 75.6152 43.0674 75.6152 53.0687Z" fill="#FE4F60"/>
<path d="M75.5263 42.8797H63.7588C61.5456 42.8797 59.75 41.0841 59.75 38.8709V31.6885H65.6129C67.3784 31.6885 69.032 32.5621 70.0275 34.0203L74.6878 40.8486C75.107 41.4632 75.3926 42.1564 75.5263 42.8797Z" fill="#E8F8FC"/>
<path d="M47.5442 19.6628H35.6537C25.8983 19.6628 17.9899 27.5711 17.9899 37.3265V53.0588C17.9899 57.4134 11.3086 57.6223 11.3086 53.0694V16.9902C11.3086 14.7762 13.1034 12.9814 15.3174 12.9814H47.5548C52.1077 12.9814 51.8988 19.6628 47.5442 19.6628Z" fill="#FFBD7B"/>
<path d="M64.4274 63.7591C68.1174 63.7591 71.1087 60.7678 71.1087 57.0778C71.1087 53.3878 68.1174 50.3965 64.4274 50.3965C60.7374 50.3965 57.7461 53.3878 57.7461 57.0778C57.7461 60.7678 60.7374 63.7591 64.4274 63.7591Z" fill="#42434D"/>
<path d="M24.3376 63.7591C28.0276 63.7591 31.0189 60.7678 31.0189 57.0778C31.0189 53.3878 28.0276 50.3965 24.3376 50.3965C20.6476 50.3965 17.6562 53.3878 17.6562 57.0778C17.6562 60.7678 20.6476 63.7591 24.3376 63.7591Z" fill="#42434D"/>
<path d="M75.526 42.88C75.4894 42.88 63.7492 42.8802 63.7128 42.8797C62.2081 42.8628 61.912 40.7278 63.3495 40.2828C65.7815 39.5302 67.7252 37.9423 69.0005 35.8284C69.4971 35.0052 70.6851 34.9837 71.2269 35.7776C74.9359 41.2128 75.2628 41.4557 75.526 42.88Z" fill="#D6F4FC"/>
<path d="M51.5625 31.6885H54.2768V57.0775H51.5625V31.6885Z" fill="#E84857"/>
<path d="M67.1632 53.7432C64.0069 54.0376 61.3877 56.6579 61.0932 59.8138C60.9725 61.1085 59.2721 61.5212 58.6257 60.3929C58.0013 59.3028 57.6752 58.0199 57.7591 56.6559C58.0584 51.7874 63.4295 48.806 67.7421 51.2757C68.8706 51.9218 68.4577 53.6224 67.1632 53.7432Z" fill="#585966"/>
<path d="M27.0734 53.7432C23.9171 54.0376 21.2979 56.6579 21.0034 59.8138C20.8826 61.1085 19.1822 61.5212 18.5358 60.3929C17.9114 59.3028 17.5854 58.0199 17.6692 56.6559C17.9686 51.7874 23.3397 48.806 27.6523 51.2757C28.7808 51.9218 28.3679 53.6224 27.0734 53.7432Z" fill="#585966"/>
<path d="M75.7902 40.0953L71.1297 33.2671C69.8841 31.4419 67.8209 30.3522 65.6113 30.3522H56.5751C55.8372 30.3522 55.2388 30.9505 55.2388 31.6885C55.2388 32.4264 55.8372 33.0248 56.5751 33.0248H58.4125V38.8709C58.4125 41.8182 60.8102 44.216 63.7575 44.216H67.7663C68.5043 44.216 69.1026 43.6176 69.1026 42.8797C69.1026 42.1417 68.5043 41.5434 67.7663 41.5434H63.7575C62.284 41.5434 61.085 40.3445 61.085 38.8709V33.0248H65.6113C66.9372 33.0248 68.175 33.6785 68.9223 34.7738L73.5827 41.6017C74.0392 42.2707 74.2806 43.0522 74.2806 43.8619V55.7412H72.3298C71.6916 51.9544 68.3913 49.0599 64.4257 49.0599C60.0046 49.0599 56.4081 52.6566 56.4081 57.0775C56.4081 61.4984 60.0046 65.0951 64.4257 65.0951C68.3912 65.0951 71.6916 62.2006 72.3298 58.4138H75.6169C76.3548 58.4138 76.9531 57.8155 76.9531 57.0775V43.8619C76.9531 42.5126 76.5511 41.21 75.7902 40.0953ZM64.4257 62.4226C61.4784 62.4226 59.0806 60.0248 59.0806 57.0775C59.0806 54.1302 61.4784 51.7324 64.4257 51.7324C67.3729 51.7324 69.7707 54.1302 69.7707 57.0775C69.7707 60.0248 67.3729 62.4226 64.4257 62.4226ZM52.9004 16.9896V50.0621C52.9004 50.8001 52.3021 51.3984 51.5641 51.3984C50.8262 51.3984 50.2279 50.8001 50.2279 50.0621V16.9896C50.2279 15.516 49.0289 14.3171 47.5553 14.3171H15.318C13.8444 14.3171 12.6454 15.516 12.6454 16.9896V18.8269H18.1575C18.8955 18.8269 19.4938 19.4253 19.4938 20.1632C19.4938 20.9012 18.8955 21.4995 18.1575 21.4995H2.28939C1.55144 21.4995 0.953125 20.9012 0.953125 20.1632C0.953125 19.4253 1.55144 18.8269 2.28939 18.8269H9.97291V16.9896C9.97291 14.0423 12.3707 11.6445 15.318 11.6445H47.5553C50.5026 11.6445 52.9004 14.0423 52.9004 16.9896ZM48.7246 55.7412H32.2419C31.6037 51.9544 28.3034 49.0599 24.3377 49.0599C19.9167 49.0599 16.3202 52.6566 16.3202 57.0775C16.3202 61.4984 19.9167 65.0951 24.3377 65.0951C28.3033 65.0951 31.6037 62.2006 32.2419 58.4138H48.7246C49.4625 58.4138 50.0608 57.8155 50.0608 57.0775C50.0608 56.3395 49.4625 55.7412 48.7246 55.7412ZM24.3377 62.4226C21.3904 62.4226 18.9927 60.0248 18.9927 57.0775C18.9927 54.1302 21.3904 51.7324 24.3377 51.7324C27.285 51.7324 29.6828 54.1302 29.6828 57.0775C29.6828 60.0248 27.285 62.4226 24.3377 62.4226ZM5.96411 28.5149C5.96411 27.7769 6.56243 27.1786 7.30038 27.1786H18.1575C18.8955 27.1786 19.4938 27.7769 19.4938 28.5149C19.4938 29.2528 18.8955 29.8511 18.1575 29.8511H7.30038C6.56243 29.8511 5.96411 29.2528 5.96411 28.5149ZM18.8257 38.2028H13.2022C12.4642 38.2028 11.8659 37.6045 11.8659 36.8665C11.8659 36.1286 12.4642 35.5302 13.2022 35.5302H18.8257C19.5636 35.5302 20.1619 36.1286 20.1619 36.8665C20.1619 37.6045 19.5636 38.2028 18.8257 38.2028ZM3.95972 35.5302H6.07553C6.81348 35.5302 7.41179 36.1286 7.41179 36.8665C7.41179 37.6045 6.81348 38.2028 6.07553 38.2028H3.95972C3.22177 38.2028 2.62345 37.6045 2.62345 36.8665C2.62345 36.1286 3.22177 35.5302 3.95972 35.5302ZM12.6454 45.2182V57.0775C12.6454 57.8155 12.0471 58.4138 11.3092 58.4138C10.5712 58.4138 9.97291 57.8155 9.97291 57.0775V46.5544H2.28939C1.55144 46.5544 0.953125 45.9561 0.953125 45.2182C0.953125 44.4802 1.55144 43.8819 2.28939 43.8819H11.3092C12.0471 43.8819 12.6454 44.4802 12.6454 45.2182ZM22.1663 43.8819C22.9043 43.8819 23.5026 44.4802 23.5026 45.2182C23.5026 45.9561 22.9043 46.5544 22.1663 46.5544H18.3246C17.5866 46.5544 16.9883 45.9561 16.9883 45.2182C16.9883 44.4802 17.5866 43.8819 18.3246 43.8819H22.1663ZM22.8344 28.5149C22.8344 27.7769 23.4328 27.1786 24.1707 27.1786H26.1751C26.9131 27.1786 27.5114 27.7769 27.5114 28.5149C27.5114 29.2528 26.9131 29.8511 26.1751 29.8511H24.1707C23.4328 29.8511 22.8344 29.2528 22.8344 28.5149Z" fill="black"/>
</g>
<defs>
<clipPath id="clip0_391_211">
<rect width="76" height="76" fill="white" transform="translate(0.953125 0.370117)"/>
</clipPath>
</defs>
</svg>
