<svg width="80" height="65" viewBox="0 0 80 65" fill="none" xmlns="http://www.w3.org/2000/svg">
<path d="M3.20392 64.275C4.41894 64.275 5.4039 63.29 5.4039 62.075C5.4039 60.86 4.41894 59.875 3.20392 59.875C1.98889 59.875 1.00391 60.86 1.00391 62.075C1.00391 63.29 1.98889 64.275 3.20392 64.275Z" fill="black"/>
<path d="M17.9344 64.275C19.1494 64.275 20.1344 63.29 20.1344 62.075C20.1344 60.86 19.1494 59.875 17.9344 59.875C16.7194 59.875 15.7344 60.86 15.7344 62.075C15.7344 63.29 16.7194 64.275 17.9344 64.275Z" fill="black"/>
<path d="M32.6531 64.275C33.8681 64.275 34.8531 63.29 34.8531 62.075C34.8531 60.86 33.8681 59.875 32.6531 59.875C31.4381 59.875 30.4531 60.86 30.4531 62.075C30.4531 63.29 31.4381 64.275 32.6531 64.275Z" fill="black"/>
<path d="M47.384 59.8653C46.9461 59.8633 46.5174 59.9915 46.1525 60.2335C45.7875 60.4756 45.5027 60.8207 45.3342 61.2249C45.1657 61.6291 45.1211 62.0743 45.206 62.5039C45.291 62.9336 45.5017 63.3283 45.8114 63.6379C46.121 63.9476 46.5157 64.1583 46.9454 64.2432C47.375 64.3282 47.8202 64.2836 48.2244 64.1151C48.6286 63.9466 48.9737 63.6618 49.2158 63.2968C49.4578 62.9318 49.586 62.5032 49.584 62.0653C49.584 61.4818 49.3523 60.9222 48.9397 60.5096C48.5271 60.0971 47.9675 59.8653 47.384 59.8653Z" fill="black"/>
<path d="M62.1145 59.8653C61.6766 59.8633 61.2479 59.9915 60.883 60.2335C60.518 60.4756 60.2332 60.8207 60.0647 61.2249C59.8962 61.6291 59.8516 62.0743 59.9365 62.5039C60.0215 62.9336 60.2322 63.3283 60.5418 63.6379C60.8515 63.9476 61.2462 64.1583 61.6758 64.2432C62.1055 64.3282 62.5506 64.2836 62.9549 64.1151C63.3591 63.9466 63.7041 63.6618 63.9462 63.2968C64.1883 62.9318 64.3165 62.5032 64.3145 62.0653C64.3119 61.4826 64.0792 60.9245 63.6672 60.5125C63.2552 60.1005 62.6972 59.8679 62.1145 59.8653Z" fill="black"/>
<path d="M76.8328 64.275C78.0479 64.275 79.0328 63.29 79.0328 62.075C79.0328 60.86 78.0479 59.875 76.8328 59.875C75.6178 59.875 74.6328 60.86 74.6328 62.075C74.6328 63.29 75.6178 64.275 76.8328 64.275Z" fill="black"/>
<path d="M3.20392 52.3951C4.41894 52.3951 5.4039 51.4101 5.4039 50.1951C5.4039 48.9801 4.41894 47.9951 3.20392 47.9951C1.98889 47.9951 1.00391 48.9801 1.00391 50.1951C1.00391 51.4101 1.98889 52.3951 3.20392 52.3951Z" fill="black"/>
<path d="M17.9344 52.3951C19.1494 52.3951 20.1344 51.4101 20.1344 50.1951C20.1344 48.9801 19.1494 47.9951 17.9344 47.9951C16.7194 47.9951 15.7344 48.9801 15.7344 50.1951C15.7344 51.4101 16.7194 52.3951 17.9344 52.3951Z" fill="black"/>
<path d="M32.6531 52.3951C33.8681 52.3951 34.8531 51.4101 34.8531 50.1951C34.8531 48.9801 33.8681 47.9951 32.6531 47.9951C31.4381 47.9951 30.4531 48.9801 30.4531 50.1951C30.4531 51.4101 31.4381 52.3951 32.6531 52.3951Z" fill="black"/>
<path d="M47.3836 47.9854C46.9485 47.9854 46.5231 48.1144 46.1613 48.3561C45.7996 48.5978 45.5176 48.9414 45.3511 49.3434C45.1846 49.7454 45.141 50.1878 45.2259 50.6146C45.3107 51.0413 45.5203 51.4333 45.828 51.741C46.1356 52.0487 46.5276 52.2582 46.9544 52.3431C47.3812 52.428 47.8235 52.3844 48.2255 52.2179C48.6275 52.0514 48.9711 51.7694 49.2128 51.4076C49.4546 51.0458 49.5836 50.6205 49.5836 50.1854C49.5836 49.6019 49.3518 49.0423 48.9392 48.6297C48.5267 48.2172 47.9671 47.9854 47.3836 47.9854Z" fill="black"/>
<path d="M62.1141 47.9854C61.679 47.9854 61.2536 48.1144 60.8918 48.3561C60.53 48.5978 60.248 48.9414 60.0815 49.3434C59.915 49.7454 59.8715 50.1878 59.9563 50.6146C60.0412 51.0413 60.2507 51.4333 60.5584 51.741C60.8661 52.0487 61.2581 52.2582 61.6849 52.3431C62.1116 52.428 62.554 52.3844 62.956 52.2179C63.358 52.0514 63.7016 51.7694 63.9433 51.4076C64.185 51.0458 64.3141 50.6205 64.3141 50.1854C64.3114 49.6027 64.0788 49.0446 63.6668 48.6326C63.2548 48.2206 62.6967 47.988 62.1141 47.9854Z" fill="black"/>
<path d="M76.8328 52.3951C78.0479 52.3951 79.0328 51.4101 79.0328 50.1951C79.0328 48.9801 78.0479 47.9951 76.8328 47.9951C75.6178 47.9951 74.6328 48.9801 74.6328 50.1951C74.6328 51.4101 75.6178 52.3951 76.8328 52.3951Z" fill="black"/>
<path d="M3.20391 36.1055C2.76879 36.1055 2.34345 36.2345 1.98166 36.4763C1.61988 36.718 1.33789 37.0616 1.17138 37.4636C1.00486 37.8656 0.961291 38.3079 1.04618 38.7347C1.13107 39.1615 1.3406 39.5535 1.64827 39.8611C1.95595 40.1688 2.34795 40.3783 2.77471 40.4632C3.20147 40.5481 3.64381 40.5045 4.04581 40.338C4.44781 40.1715 4.79141 39.8896 5.03315 39.5278C5.27489 39.166 5.40391 38.7406 5.40391 38.3055C5.40523 38.0162 5.34923 37.7295 5.23914 37.462C5.12905 37.1945 4.96706 36.9515 4.7625 36.7469C4.55795 36.5424 4.3149 36.3803 4.04738 36.2703C3.77987 36.1602 3.49319 36.1042 3.20391 36.1055Z" fill="black"/>
<path d="M17.9734 36.1055C17.5383 36.1055 17.113 36.2345 16.7512 36.4763C16.3894 36.718 16.1074 37.0616 15.9409 37.4636C15.7744 37.8656 15.7308 38.3079 15.8157 38.7347C15.9006 39.1614 16.1101 39.5534 16.4178 39.8611C16.7255 40.1688 17.1175 40.3783 17.5442 40.4632C17.971 40.5481 18.4133 40.5045 18.8153 40.338C19.2173 40.1715 19.5609 39.8895 19.8027 39.5277C20.0444 39.166 20.1734 38.7406 20.1734 38.3055C20.1734 37.722 19.9417 37.1624 19.5291 36.7498C19.1165 36.3373 18.5569 36.1055 17.9734 36.1055Z" fill="black"/>
<path d="M32.6531 36.1055C32.218 36.1055 31.7927 36.2345 31.4309 36.4763C31.0691 36.718 30.7871 37.0616 30.6206 37.4636C30.4541 37.8656 30.4105 38.3079 30.4954 38.7347C30.5803 39.1614 30.7898 39.5534 31.0975 39.8611C31.4052 40.1688 31.7972 40.3783 32.2239 40.4632C32.6507 40.5481 33.093 40.5045 33.495 40.338C33.897 40.1715 34.2406 39.8895 34.4824 39.5277C34.7241 39.166 34.8531 38.7406 34.8531 38.3055C34.8531 37.722 34.6213 37.1624 34.2088 36.7498C33.7962 36.3373 33.2366 36.1055 32.6531 36.1055Z" fill="black"/>
<path d="M47.3836 36.1055C46.9485 36.1055 46.5231 36.2345 46.1613 36.4763C45.7996 36.718 45.5176 37.0616 45.3511 37.4636C45.1846 37.8656 45.141 38.3079 45.2259 38.7347C45.3107 39.1615 45.5203 39.5535 45.828 39.8611C46.1356 40.1688 46.5276 40.3783 46.9544 40.4632C47.3812 40.5481 47.8235 40.5045 48.2255 40.338C48.6275 40.1715 48.9711 39.8896 49.2128 39.5278C49.4546 39.166 49.5836 38.7406 49.5836 38.3055C49.5849 38.0162 49.5289 37.7295 49.4188 37.462C49.3087 37.1945 49.1468 36.9515 48.9422 36.7469C48.7376 36.5424 48.4946 36.3803 48.2271 36.2703C47.9596 36.1602 47.6729 36.1042 47.3836 36.1055Z" fill="black"/>
<path d="M62.1141 36.1055C61.679 36.1055 61.2536 36.2345 60.8918 36.4763C60.53 36.718 60.248 37.0616 60.0815 37.4636C59.915 37.8656 59.8715 38.3079 59.9563 38.7347C60.0412 39.1614 60.2507 39.5534 60.5584 39.8611C60.8661 40.1688 61.2581 40.3783 61.6849 40.4632C62.1116 40.5481 62.554 40.5045 62.956 40.338C63.358 40.1715 63.7016 39.8895 63.9433 39.5277C64.185 39.166 64.3141 38.7406 64.3141 38.3055C64.3141 37.722 64.0823 37.1624 63.6697 36.7498C63.2571 36.3373 62.6976 36.1055 62.1141 36.1055Z" fill="black"/>
<path d="M76.8345 36.1055C76.3998 36.1075 75.9755 36.2382 75.615 36.4811C75.2545 36.7241 74.9741 37.0683 74.8091 37.4705C74.6441 37.8727 74.602 38.3147 74.688 38.7408C74.774 39.1669 74.9844 39.558 75.2924 39.8646C75.6005 40.1713 75.9925 40.3798 76.419 40.4639C76.8455 40.548 77.2873 40.5039 77.6887 40.3371C78.0902 40.1703 78.4332 39.8883 78.6745 39.5267C78.9158 39.1651 79.0445 38.7402 79.0445 38.3055C79.0445 38.0158 78.9873 37.7289 78.8761 37.4613C78.7649 37.1937 78.602 36.9508 78.3966 36.7463C78.1913 36.5419 77.9476 36.38 77.6795 36.2701C77.4114 36.1601 77.1243 36.1042 76.8345 36.1055Z" fill="black"/>
<path d="M3.20392 28.6246C4.41894 28.6246 5.4039 27.6396 5.4039 26.4246C5.4039 25.2096 4.41894 24.2246 3.20392 24.2246C1.98889 24.2246 1.00391 25.2096 1.00391 26.4246C1.00391 27.6396 1.98889 28.6246 3.20392 28.6246Z" fill="black"/>
<path d="M17.9344 28.6246C19.1494 28.6246 20.1344 27.6396 20.1344 26.4246C20.1344 25.2096 19.1494 24.2246 17.9344 24.2246C16.7194 24.2246 15.7344 25.2096 15.7344 26.4246C15.7344 27.6396 16.7194 28.6246 17.9344 28.6246Z" fill="black"/>
<path d="M32.6531 28.6246C33.8681 28.6246 34.8531 27.6396 34.8531 26.4246C34.8531 25.2096 33.8681 24.2246 32.6531 24.2246C31.4381 24.2246 30.4531 25.2096 30.4531 26.4246C30.4531 27.6396 31.4381 28.6246 32.6531 28.6246Z" fill="black"/>
<path d="M47.3836 24.2246C46.9485 24.2246 46.5231 24.3537 46.1613 24.5954C45.7996 24.8372 45.5176 25.1808 45.3511 25.5828C45.1846 25.9848 45.141 26.4271 45.2259 26.8538C45.3107 27.2806 45.5203 27.6726 45.828 27.9803C46.1356 28.288 46.5276 28.4975 46.9544 28.5824C47.3812 28.6672 47.8235 28.6237 48.2255 28.4572C48.6275 28.2907 48.9711 28.0087 49.2128 27.6469C49.4546 27.2851 49.5836 26.8598 49.5836 26.4246C49.5849 26.1354 49.5289 25.8487 49.4188 25.5812C49.3087 25.3137 49.1468 25.0706 48.9422 24.8661C48.7376 24.6615 48.4946 24.4995 48.2271 24.3894C47.9596 24.2793 47.6729 24.2233 47.3836 24.2246Z" fill="black"/>
<path d="M62.1141 24.2246C61.679 24.2246 61.2536 24.3537 60.8918 24.5954C60.53 24.8371 60.248 25.1807 60.0815 25.5827C59.915 25.9847 59.8715 26.4271 59.9563 26.8538C60.0412 27.2806 60.2507 27.6726 60.5584 27.9803C60.8661 28.2879 61.2581 28.4974 61.6849 28.5823C62.1116 28.6672 62.554 28.6237 62.956 28.4572C63.358 28.2906 63.7016 28.0087 63.9433 27.6469C64.185 27.2851 64.3141 26.8597 64.3141 26.4246C64.3141 25.8411 64.0823 25.2816 63.6697 24.869C63.2571 24.4564 62.6976 24.2246 62.1141 24.2246Z" fill="black"/>
<path d="M76.8328 28.6246C78.0479 28.6246 79.0328 27.6396 79.0328 26.4246C79.0328 25.2096 78.0479 24.2246 76.8328 24.2246C75.6178 24.2246 74.6328 25.2096 74.6328 26.4246C74.6328 27.6396 75.6178 28.6246 76.8328 28.6246Z" fill="black"/>
<path d="M3.20392 16.7457C4.41894 16.7457 5.4039 15.7607 5.4039 14.5457C5.4039 13.3307 4.41894 12.3457 3.20392 12.3457C1.98889 12.3457 1.00391 13.3307 1.00391 14.5457C1.00391 15.7607 1.98889 16.7457 3.20392 16.7457Z" fill="black"/>
<path d="M17.9344 16.7457C19.1494 16.7457 20.1344 15.7607 20.1344 14.5457C20.1344 13.3307 19.1494 12.3457 17.9344 12.3457C16.7194 12.3457 15.7344 13.3307 15.7344 14.5457C15.7344 15.7607 16.7194 16.7457 17.9344 16.7457Z" fill="black"/>
<path d="M32.6531 16.7457C33.8681 16.7457 34.8531 15.7607 34.8531 14.5457C34.8531 13.3307 33.8681 12.3457 32.6531 12.3457C31.4381 12.3457 30.4531 13.3307 30.4531 14.5457C30.4531 15.7607 31.4381 16.7457 32.6531 16.7457Z" fill="black"/>
<path d="M47.3841 12.335C46.9465 12.333 46.5183 12.4609 46.1535 12.7026C45.7888 12.9442 45.504 13.2887 45.3352 13.6923C45.1664 14.096 45.1212 14.5406 45.2053 14.97C45.2895 15.3993 45.4991 15.794 45.8078 16.1041C46.1165 16.4142 46.5102 16.6257 46.9392 16.7118C47.3682 16.7978 47.8131 16.7547 48.2175 16.5877C48.6219 16.4207 48.9676 16.1375 49.2109 15.7738C49.4542 15.4102 49.584 14.9825 49.584 14.545C49.5854 14.2552 49.5294 13.9681 49.4195 13.7C49.3095 13.4319 49.1477 13.1882 48.9432 12.9829C48.7388 12.7775 48.4958 12.6146 48.2283 12.5034C47.9607 12.3922 47.6738 12.335 47.3841 12.335Z" fill="black"/>
<path d="M62.1146 12.335C61.677 12.333 61.2488 12.4609 60.884 12.7026C60.5193 12.9442 60.2345 13.2887 60.0657 13.6923C59.8969 14.096 59.8516 14.5406 59.9358 14.97C60.0199 15.3993 60.2296 15.794 60.5383 16.1041C60.847 16.4142 61.2407 16.6257 61.6697 16.7118C62.0987 16.7978 62.5435 16.7547 62.948 16.5877C63.3524 16.4207 63.6981 16.1375 63.9414 15.7738C64.1846 15.4102 64.3145 14.9825 64.3145 14.545C64.3145 13.9606 64.0831 13.4 63.6708 12.9858C63.2585 12.5716 62.6989 12.3376 62.1146 12.335Z" fill="black"/>
<path d="M76.8328 16.7457C78.0479 16.7457 79.0328 15.7607 79.0328 14.5457C79.0328 13.3307 78.0479 12.3457 76.8328 12.3457C75.6178 12.3457 74.6328 13.3307 74.6328 14.5457C74.6328 15.7607 75.6178 16.7457 76.8328 16.7457Z" fill="black"/>
<path d="M3.20437 0.455101C2.76685 0.453121 2.3386 0.581054 1.97386 0.822685C1.60911 1.06432 1.32429 1.40878 1.15548 1.81243C0.986678 2.21608 0.941489 2.66073 1.02563 3.09008C1.10977 3.51943 1.31945 3.91416 1.62812 4.22424C1.9368 4.53431 2.33056 4.74578 2.75953 4.83187C3.1885 4.91796 3.63337 4.87479 4.03778 4.70782C4.44218 4.54084 4.78793 4.25759 5.03121 3.89394C5.2745 3.5303 5.40436 3.10261 5.40437 2.66509C5.40568 2.37534 5.34976 2.08819 5.23979 1.82012C5.12982 1.55205 4.96798 1.30834 4.76356 1.10299C4.55914 0.89764 4.31616 0.734712 4.04859 0.623527C3.78102 0.512342 3.49412 0.455098 3.20437 0.455101Z" fill="black"/>
<path d="M17.9739 0.455101C17.5364 0.453121 17.1081 0.581054 16.7434 0.822685C16.3786 1.06432 16.0938 1.40878 15.925 1.81243C15.7562 2.21608 15.711 2.66073 15.7952 3.09008C15.8793 3.51943 16.089 3.91416 16.3977 4.22424C16.7063 4.53431 17.1001 4.74578 17.5291 4.83187C17.958 4.91796 18.4029 4.87479 18.8073 4.70782C19.2117 4.54084 19.5575 4.25759 19.8007 3.89394C20.044 3.5303 20.1739 3.10261 20.1739 2.66509C20.1739 2.08069 19.9424 1.52009 19.5301 1.10592C19.1179 0.69175 18.5583 0.457745 17.9739 0.455101Z" fill="black"/>
<path d="M32.6536 0.455101C32.2161 0.453121 31.7878 0.581054 31.4231 0.822685C31.0583 1.06432 30.7735 1.40878 30.6047 1.81243C30.4359 2.21608 30.3907 2.66073 30.4748 3.09008C30.559 3.51943 30.7687 3.91416 31.0774 4.22424C31.386 4.53431 31.7798 4.74578 32.2088 4.83187C32.6377 4.91796 33.0826 4.87479 33.487 4.70782C33.8914 4.54084 34.2371 4.25759 34.4804 3.89394C34.7237 3.5303 34.8536 3.10261 34.8536 2.66509C34.8536 2.08069 34.6221 1.52009 34.2098 1.10592C33.7976 0.69175 33.238 0.457745 32.6536 0.455101Z" fill="black"/>
<path d="M47.3841 0.455101C46.9465 0.453121 46.5183 0.581054 46.1535 0.822685C45.7888 1.06432 45.504 1.40878 45.3352 1.81243C45.1664 2.21608 45.1212 2.66073 45.2053 3.09008C45.2895 3.51943 45.4991 3.91416 45.8078 4.22424C46.1165 4.53431 46.5102 4.74578 46.9392 4.83187C47.3682 4.91796 47.8131 4.87479 48.2175 4.70782C48.6219 4.54084 48.9676 4.25759 49.2109 3.89394C49.4542 3.5303 49.584 3.10261 49.584 2.66509C49.5854 2.37534 49.5294 2.08819 49.4195 1.82012C49.3095 1.55205 49.1477 1.30834 48.9432 1.10299C48.7388 0.89764 48.4958 0.734712 48.2283 0.623527C47.9607 0.512342 47.6738 0.455098 47.3841 0.455101Z" fill="black"/>
<path d="M62.1146 0.455101C61.677 0.453121 61.2488 0.581054 60.884 0.822685C60.5193 1.06432 60.2345 1.40878 60.0657 1.81243C59.8969 2.21608 59.8516 2.66073 59.9358 3.09008C60.0199 3.51943 60.2296 3.91416 60.5383 4.22424C60.847 4.53431 61.2407 4.74578 61.6697 4.83187C62.0987 4.91796 62.5435 4.87479 62.948 4.70782C63.3524 4.54084 63.6981 4.25759 63.9414 3.89394C64.1846 3.5303 64.3145 3.10261 64.3145 2.66509C64.3145 2.08069 64.0831 1.52009 63.6708 1.10592C63.2585 0.69175 62.6989 0.457745 62.1146 0.455101Z" fill="black"/>
<path d="M76.835 0.455078C76.3979 0.455078 75.9706 0.584707 75.6072 0.827545C75.2438 1.07038 74.9605 1.41554 74.7932 1.81937C74.626 2.22319 74.5822 2.66752 74.6675 3.09622C74.7527 3.52492 74.9632 3.91871 75.2723 4.22778C75.5814 4.53686 75.9752 4.74734 76.4039 4.83261C76.8326 4.91788 77.2769 4.87412 77.6807 4.70685C78.0845 4.53958 78.4297 4.25632 78.6725 3.89288C78.9154 3.52945 79.045 3.10217 79.045 2.66507C79.045 2.07894 78.8121 1.51684 78.3977 1.10239C77.9832 0.687931 77.4211 0.455078 76.835 0.455078Z" fill="black"/>
</svg>
