<svg width="468" height="68" viewBox="0 0 468 68" fill="none" xmlns="http://www.w3.org/2000/svg">
<mask id="path-1-outside-1_3091_46" maskUnits="userSpaceOnUse" x="-1.04688" y="-1.71191" width="471" height="71" fill="black">
<rect fill="white" x="-1.04688" y="-1.71191" width="471" height="71"/>
<path d="M0.533125 5.28208H27.9811C36.1278 5.28208 42.0185 6.28475 45.6531 8.29008C49.2878 10.2327 51.1051 13.5228 51.1051 18.1601V28.8761C51.1051 32.4481 49.8205 35.2681 47.2511 37.3361C44.7445 39.3414 41.3918 40.6261 37.1931 41.1901L54.8651 66.2881H37.9451L21.9651 42.3181H15.1971V66.2881H0.533125V5.28208ZM27.7931 32.6361C31.2398 32.6361 33.5898 32.1974 34.8431 31.3201C36.0965 30.3801 36.7231 28.5941 36.7231 25.9621V21.6381C36.7231 19.3821 36.0338 17.8467 34.6551 17.0321C33.3391 16.1547 31.0518 15.7161 27.7931 15.7161H15.1971V32.6361H27.7931ZM85.6002 67.2281C69.4949 67.2281 61.4422 62.3088 61.4422 52.4701V36.1141C61.4422 30.4114 63.2595 26.2754 66.8942 23.7061C70.5915 21.1368 76.2629 19.8521 83.9082 19.8521C91.1149 19.8521 96.3789 21.1054 99.7002 23.6121C103.084 26.0561 104.776 30.2234 104.776 36.1141V47.2061H75.2602V51.3421C75.2602 53.9741 76.2002 55.8541 78.0802 56.9821C79.9602 58.1101 83.3442 58.6741 88.2322 58.6741C92.7442 58.6741 97.8202 58.0161 103.46 56.7001V65.4421C97.8829 66.6328 91.9295 67.2281 85.6002 67.2281ZM91.7102 39.4041V32.8241C91.7102 31.3201 91.0835 30.1921 89.8302 29.4401C88.6395 28.6881 86.6029 28.3121 83.7202 28.3121C80.3989 28.3121 78.1742 28.6881 77.0462 29.4401C75.8555 30.2548 75.2602 31.3828 75.2602 32.8241V39.4041H91.7102ZM138.296 67.2281C132.531 67.2281 127.956 66.6328 124.572 65.4421C121.251 64.2514 118.869 62.4341 117.428 59.9901C115.987 57.4834 115.266 54.1934 115.266 50.1201V0.488081H128.99V25.3041C129.805 23.2361 131.309 21.8261 133.502 21.0741C135.695 20.2594 139.111 19.8521 143.748 19.8521C147.696 19.8521 150.861 20.1654 153.242 20.7921C155.686 21.4187 157.535 22.4214 158.788 23.8001C159.979 25.1788 160.793 26.7141 161.232 28.4061C161.671 30.0354 161.89 32.2914 161.89 35.1741V50.1201C161.89 56.2614 160.041 60.6481 156.344 63.2801C152.647 65.9121 146.631 67.2281 138.296 67.2281ZM138.484 58.6741C141.179 58.6741 143.215 58.4861 144.594 58.1101C145.973 57.7341 146.913 57.0761 147.414 56.1361C147.915 55.1961 148.166 53.7861 148.166 51.9061V35.0801C148.166 33.0121 147.947 31.5394 147.508 30.6621C147.069 29.7221 146.192 29.0954 144.876 28.7821C143.56 28.4688 141.398 28.3121 138.39 28.3121C135.821 28.3121 133.847 28.5314 132.468 28.9701C131.152 29.4088 130.243 30.0981 129.742 31.0381C129.241 31.9781 128.99 33.3254 128.99 35.0801V51.9061C128.99 53.7861 129.209 55.1961 129.648 56.1361C130.149 57.0761 131.058 57.7341 132.374 58.1101C133.753 58.4861 135.789 58.6741 138.484 58.6741ZM195.481 67.2281C179.376 67.2281 171.323 62.3088 171.323 52.4701V36.1141C171.323 30.4114 173.14 26.2754 176.775 23.7061C180.472 21.1368 186.144 19.8521 193.789 19.8521C200.996 19.8521 206.26 21.1054 209.581 23.6121C212.965 26.0561 214.657 30.2234 214.657 36.1141V47.2061H185.141V51.3421C185.141 53.9741 186.081 55.8541 187.961 56.9821C189.841 58.1101 193.225 58.6741 198.113 58.6741C202.625 58.6741 207.701 58.0161 213.341 56.7001V65.4421C207.764 66.6328 201.81 67.2281 195.481 67.2281ZM201.591 39.4041V32.8241C201.591 31.3201 200.964 30.1921 199.711 29.4401C198.52 28.6881 196.484 28.3121 193.601 28.3121C190.28 28.3121 188.055 28.6881 186.927 29.4401C185.736 30.2548 185.141 31.3828 185.141 32.8241V39.4041H201.591ZM225.523 0.488081H239.247V66.2881H225.523V0.488081ZM273.904 5.28208H298.626C304.454 5.28208 308.935 5.72075 312.068 6.59808C315.264 7.41275 317.52 8.76008 318.836 10.6401C320.152 12.4574 320.81 15.0267 320.81 18.3481V25.8681C320.81 27.5601 320.121 29.1581 318.742 30.6621C317.426 32.1661 315.86 33.2001 314.042 33.7641V34.2341C316.424 34.4848 318.586 35.5188 320.528 37.3361C322.534 39.0908 323.536 41.0648 323.536 43.2581V52.6581C323.536 57.6088 321.562 61.1181 317.614 63.1861C313.666 65.2541 307.556 66.2881 299.284 66.2881H273.904V5.28208ZM298.626 30.0981C300.945 30.0981 302.668 29.9101 303.796 29.5341C304.924 29.1581 305.676 28.5628 306.052 27.7481C306.491 26.8708 306.71 25.6174 306.71 23.9881V20.9801C306.71 19.5388 306.522 18.4734 306.146 17.7841C305.77 17.0321 304.987 16.4994 303.796 16.1861C302.668 15.8727 300.851 15.7161 298.344 15.7161H288.568V30.0981H298.626ZM299.002 55.8541C302.574 55.8541 305.112 55.4468 306.616 54.6321C308.12 53.8174 308.872 52.5014 308.872 50.6841V45.7961C308.872 43.5401 308.277 41.9421 307.086 41.0021C305.958 40.0621 303.922 39.5921 300.976 39.5921H288.568V55.8541H299.002ZM355.85 67.2281C339.745 67.2281 331.692 62.3088 331.692 52.4701V36.1141C331.692 30.4114 333.51 26.2754 337.144 23.7061C340.842 21.1368 346.513 19.8521 354.158 19.8521C361.365 19.8521 366.629 21.1054 369.95 23.6121C373.334 26.0561 375.026 30.2234 375.026 36.1141V47.2061H345.51V51.3421C345.51 53.9741 346.45 55.8541 348.33 56.9821C350.21 58.1101 353.594 58.6741 358.482 58.6741C362.994 58.6741 368.07 58.0161 373.71 56.7001V65.4421C368.133 66.6328 362.18 67.2281 355.85 67.2281ZM361.96 39.4041V32.8241C361.96 31.3201 361.334 30.1921 360.08 29.4401C358.89 28.6881 356.853 28.3121 353.97 28.3121C350.649 28.3121 348.424 28.6881 347.296 29.4401C346.106 30.2548 345.51 31.3828 345.51 32.8241V39.4041H361.96ZM408.358 67.2281C392.253 67.2281 384.2 62.3088 384.2 52.4701V36.1141C384.2 30.4114 386.017 26.2754 389.652 23.7061C393.349 21.1368 399.021 19.8521 406.666 19.8521C413.873 19.8521 419.137 21.1054 422.458 23.6121C425.842 26.0561 427.534 30.2234 427.534 36.1141V47.2061H398.018V51.3421C398.018 53.9741 398.958 55.8541 400.838 56.9821C402.718 58.1101 406.102 58.6741 410.99 58.6741C415.502 58.6741 420.578 58.0161 426.218 56.7001V65.4421C420.641 66.6328 414.687 67.2281 408.358 67.2281ZM414.468 39.4041V32.8241C414.468 31.3201 413.841 30.1921 412.588 29.4401C411.397 28.6881 409.361 28.3121 406.478 28.3121C403.157 28.3121 400.932 28.6881 399.804 29.4401C398.613 30.2548 398.018 31.3828 398.018 32.8241V39.4041H414.468ZM438.024 20.7921H451.09V28.7821C451.09 27.3408 451.685 25.9308 452.876 24.5521C454.066 23.1734 455.57 22.0454 457.388 21.1681C459.268 20.2908 461.116 19.8521 462.934 19.8521H467.822V31.2261H463.122C459.236 31.2261 456.354 31.8214 454.474 33.0121C452.656 34.2028 451.748 36.1768 451.748 38.9341V66.2881H438.024V20.7921Z"/>
</mask>
<path d="M0.533125 5.28208V3.78208H-0.966875V5.28208H0.533125ZM45.6531 8.29008L44.9285 9.60345L44.9373 9.60827L44.9461 9.61298L45.6531 8.29008ZM47.2511 37.3361L48.1882 38.5074L48.1916 38.5046L47.2511 37.3361ZM37.1931 41.1901L36.9934 39.7034L34.5435 40.0325L35.9667 42.0537L37.1931 41.1901ZM54.8651 66.2881V67.7881H57.7558L56.0916 65.4245L54.8651 66.2881ZM37.9451 66.2881L36.6971 67.1201L37.1424 67.7881H37.9451V66.2881ZM21.9651 42.3181L23.2132 41.486L22.7679 40.8181H21.9651V42.3181ZM15.1971 42.3181V40.8181H13.6971V42.3181H15.1971ZM15.1971 66.2881V67.7881H16.6971V66.2881H15.1971ZM0.533125 66.2881H-0.966875V67.7881H0.533125V66.2881ZM34.8431 31.3201L35.7033 32.5489L35.7235 32.5348L35.7431 32.5201L34.8431 31.3201ZM34.6551 17.0321L33.8231 18.2802L33.857 18.3027L33.892 18.3235L34.6551 17.0321ZM15.1971 15.7161V14.2161H13.6971V15.7161H15.1971ZM15.1971 32.6361H13.6971V34.1361H15.1971V32.6361ZM0.533125 6.78208H27.9811V3.78208H0.533125V6.78208ZM27.9811 6.78208C36.0745 6.78208 41.6421 7.79024 44.9285 9.60345L46.3777 6.97672C42.3948 4.77925 36.1811 3.78208 27.9811 3.78208V6.78208ZM44.9461 9.61298C46.5336 10.4615 47.6739 11.5727 48.4291 12.9399C49.1896 14.3166 49.6051 16.0365 49.6051 18.1601H52.6051C52.6051 15.6464 52.112 13.4026 51.0551 11.4893C49.993 9.56649 48.4073 8.06135 46.3602 6.96718L44.9461 9.61298ZM49.6051 18.1601V28.8761H52.6051V18.1601H49.6051ZM49.6051 28.8761C49.6051 32.0371 48.4939 34.4103 46.3106 36.1676L48.1916 38.5046C51.147 36.1259 52.6051 32.8591 52.6051 28.8761H49.6051ZM46.3141 36.1648C44.0777 37.9539 41.0063 39.1644 36.9934 39.7034L37.3928 42.6767C41.7773 42.0878 45.4112 40.7289 48.1882 38.5074L46.3141 36.1648ZM35.9667 42.0537L53.6387 67.1517L56.0916 65.4245L38.4196 40.3265L35.9667 42.0537ZM54.8651 64.7881H37.9451V67.7881H54.8651V64.7881ZM39.1932 65.456L23.2132 41.486L20.7171 43.1501L36.6971 67.1201L39.1932 65.456ZM21.9651 40.8181H15.1971V43.8181H21.9651V40.8181ZM13.6971 42.3181V66.2881H16.6971V42.3181H13.6971ZM15.1971 64.7881H0.533125V67.7881H15.1971V64.7881ZM2.03312 66.2881V5.28208H-0.966875V66.2881H2.03312ZM27.7931 34.1361C29.5721 34.1361 31.12 34.0235 32.4159 33.7816C33.6952 33.5428 34.8306 33.1598 35.7033 32.5489L33.9829 30.0912C33.6023 30.3577 32.936 30.6327 31.8654 30.8326C30.8112 31.0293 29.4608 31.1361 27.7931 31.1361V34.1361ZM35.7431 32.5201C37.5709 31.1493 38.2231 28.7492 38.2231 25.9621H35.2231C35.2231 28.4389 34.6221 29.6109 33.9431 30.1201L35.7431 32.5201ZM38.2231 25.9621V21.6381H35.2231V25.9621H38.2231ZM38.2231 21.6381C38.2231 19.0923 37.4285 16.9286 35.4182 15.7407L33.892 18.3235C34.6391 18.7649 35.2231 19.6718 35.2231 21.6381H38.2231ZM35.4872 15.784C33.7747 14.6424 31.0923 14.2161 27.7931 14.2161V17.2161C31.0113 17.2161 32.9035 17.6671 33.8231 18.2802L35.4872 15.784ZM27.7931 14.2161H15.1971V17.2161H27.7931V14.2161ZM13.6971 15.7161V32.6361H16.6971V15.7161H13.6971ZM15.1971 34.1361H27.7931V31.1361H15.1971V34.1361ZM66.8942 23.7061L66.0382 22.4743L66.0283 22.4812L66.8942 23.7061ZM99.7002 23.6121L98.7966 24.8094L98.8092 24.8189L98.822 24.8281L99.7002 23.6121ZM104.776 47.2061V48.7061H106.276V47.2061H104.776ZM75.2602 47.2061V45.7061H73.7602V47.2061H75.2602ZM78.0802 56.9821L78.8519 55.6958H78.8519L78.0802 56.9821ZM103.46 56.7001H104.96V54.8098L103.119 55.2393L103.46 56.7001ZM103.46 65.4421L103.773 66.909L104.96 66.6557V65.4421H103.46ZM91.7102 39.4041V40.9041H93.2102V39.4041H91.7102ZM89.8302 29.4401L89.0292 30.7083L89.0437 30.7175L89.0584 30.7263L89.8302 29.4401ZM77.0462 29.4401L76.2141 28.192L76.2066 28.197L76.1992 28.2021L77.0462 29.4401ZM75.2602 39.4041H73.7602V40.9041H75.2602V39.4041ZM85.6002 65.7281C77.6514 65.7281 71.9416 64.5054 68.2637 62.2585C64.706 60.0852 62.9422 56.8939 62.9422 52.4701H59.9422C59.9422 57.8849 62.2047 62.0727 66.6997 64.8186C71.0744 67.4911 77.4436 68.7281 85.6002 68.7281V65.7281ZM62.9422 52.4701V36.1141H59.9422V52.4701H62.9422ZM62.9422 36.1141C62.9422 30.7462 64.633 27.1415 67.76 24.931L66.0283 22.4812C61.8861 25.4094 59.9422 30.0767 59.9422 36.1141H62.9422ZM67.7502 24.9379C71.0751 22.6273 76.3776 21.3521 83.9082 21.3521V18.3521C76.1481 18.3521 70.1079 19.6462 66.0382 22.4743L67.7502 24.9379ZM83.9082 21.3521C91.0025 21.3521 95.8659 22.5975 98.7966 24.8094L100.604 22.4148C96.8918 19.6133 91.2272 18.3521 83.9082 18.3521V21.3521ZM98.822 24.8281C101.671 26.8856 103.276 30.4933 103.276 36.1141H106.276C106.276 29.9535 104.498 25.2266 100.578 22.3961L98.822 24.8281ZM103.276 36.1141V47.2061H106.276V36.1141H103.276ZM104.776 45.7061H75.2602V48.7061H104.776V45.7061ZM73.7602 47.2061V51.3421H76.7602V47.2061H73.7602ZM73.7602 51.3421C73.7602 54.3772 74.8797 56.8111 77.3084 58.2683L78.8519 55.6958C77.5207 54.8971 76.7602 53.571 76.7602 51.3421H73.7602ZM77.3084 58.2683C79.5728 59.6269 83.3313 60.1741 88.2322 60.1741V57.1741C83.3571 57.1741 80.3476 56.5933 78.8519 55.6958L77.3084 58.2683ZM88.2322 60.1741C92.8859 60.1741 98.0791 59.496 103.801 58.1609L103.119 55.2393C97.5613 56.5362 92.6025 57.1741 88.2322 57.1741V60.1741ZM101.96 56.7001V65.4421H104.96V56.7001H101.96ZM103.147 63.9751C97.6832 65.1416 91.8356 65.7281 85.6002 65.7281V68.7281C92.0234 68.7281 98.0826 68.1239 103.773 66.909L103.147 63.9751ZM93.2102 39.4041V32.8241H90.2102V39.4041H93.2102ZM93.2102 32.8241C93.2102 30.8119 92.3229 29.1864 90.6019 28.1538L89.0584 30.7263C89.8441 31.1977 90.2102 31.8283 90.2102 32.8241H93.2102ZM90.6312 28.1718C89.0565 27.1773 86.6451 26.8121 83.7202 26.8121V29.8121C86.5606 29.8121 88.2226 30.1989 89.0292 30.7083L90.6312 28.1718ZM83.7202 26.8121C82.011 26.8121 80.5343 26.9083 79.3107 27.1151C78.1108 27.3179 77.0329 27.6462 76.2141 28.192L77.8782 30.6882C78.1875 30.482 78.7859 30.2463 79.8107 30.0731C80.8117 29.9039 82.1081 29.8121 83.7202 29.8121V26.8121ZM76.1992 28.2021C74.6003 29.2961 73.7602 30.8871 73.7602 32.8241H76.7602C76.7602 31.8784 77.1107 31.2134 77.8932 30.678L76.1992 28.2021ZM73.7602 32.8241V39.4041H76.7602V32.8241H73.7602ZM75.2602 40.9041H91.7102V37.9041H75.2602V40.9041ZM124.572 65.4421L124.066 66.8541L124.074 66.8571L124.572 65.4421ZM117.428 59.9901L116.128 60.7378L116.132 60.7449L116.136 60.7521L117.428 59.9901ZM115.266 0.488081V-1.01192H113.766V0.488081H115.266ZM128.99 0.488081H130.49V-1.01192H128.99V0.488081ZM128.99 25.3041H127.49L130.386 25.8539L128.99 25.3041ZM133.502 21.0741L133.988 22.493L134.006 22.4868L134.024 22.4802L133.502 21.0741ZM153.242 20.7921L152.86 22.2427L152.869 22.2451L153.242 20.7921ZM158.788 23.8001L159.923 22.8197L159.911 22.8052L159.898 22.7911L158.788 23.8001ZM161.232 28.4061L159.78 28.7825L159.784 28.796L161.232 28.4061ZM156.344 63.2801L157.214 64.5021L156.344 63.2801ZM144.594 58.1101L144.199 56.6629L144.594 58.1101ZM147.414 56.1361L146.09 55.4302V55.4302L147.414 56.1361ZM147.508 30.6621L146.149 31.2964L146.157 31.3148L146.166 31.3329L147.508 30.6621ZM132.468 28.9701L132.013 27.5407L132.003 27.5438L131.994 27.5471L132.468 28.9701ZM129.742 31.0381L128.418 30.3322V30.3322L129.742 31.0381ZM129.648 56.1361L128.289 56.7704L128.306 56.8067L128.324 56.842L129.648 56.1361ZM132.374 58.1101L131.962 59.5524L131.971 59.5549L131.979 59.5572L132.374 58.1101ZM138.296 65.7281C132.61 65.7281 128.227 65.1379 125.07 64.0271L124.074 66.8571C127.685 68.1276 132.451 68.7281 138.296 68.7281V65.7281ZM125.078 64.0301C122.004 62.928 119.943 61.3024 118.72 59.2281L116.136 60.7521C117.795 63.5658 120.497 65.5749 124.066 66.8541L125.078 64.0301ZM118.728 59.2424C117.461 57.0375 116.766 54.0326 116.766 50.1201H113.766C113.766 54.3542 114.513 57.9293 116.128 60.7378L118.728 59.2424ZM116.766 50.1201V0.488081H113.766V50.1201H116.766ZM115.266 1.98808H128.99V-1.01192H115.266V1.98808ZM127.49 0.488081V25.3041H130.49V0.488081H127.49ZM130.386 25.8539C131.031 24.2146 132.19 23.1095 133.988 22.493L133.016 19.6552C130.427 20.5427 128.578 22.2576 127.594 24.7543L130.386 25.8539ZM134.024 22.4802C135.956 21.7626 139.149 21.3521 143.748 21.3521V18.3521C139.072 18.3521 135.434 18.7563 132.98 19.6679L134.024 22.4802ZM143.748 21.3521C147.635 21.3521 150.655 21.6624 152.86 22.2427L153.624 19.3415C151.066 18.6684 147.757 18.3521 143.748 18.3521V21.3521ZM152.869 22.2451C155.127 22.8241 156.68 23.7116 157.678 24.8091L159.898 22.7911C158.389 21.1313 156.245 20.0135 153.615 19.3391L152.869 22.2451ZM157.653 24.7805C158.699 25.9924 159.402 27.323 159.78 28.7825L162.684 28.0296C162.185 26.1052 161.258 24.3651 159.923 22.8197L157.653 24.7805ZM159.784 28.796C160.172 30.2397 160.39 32.3442 160.39 35.1741H163.39C163.39 32.2386 163.169 29.8312 162.68 28.0161L159.784 28.796ZM160.39 35.1741V50.1201H163.39V35.1741H160.39ZM160.39 50.1201C160.39 55.9628 158.645 59.8007 155.474 62.0581L157.214 64.5021C161.437 61.4955 163.39 56.5601 163.39 50.1201H160.39ZM155.474 62.0581C152.168 64.4118 146.545 65.7281 138.296 65.7281V68.7281C146.716 68.7281 153.126 67.4124 157.214 64.5021L155.474 62.0581ZM138.484 60.1741C141.216 60.1741 143.414 59.9868 144.989 59.5572L144.199 56.6629C143.017 56.9854 141.141 57.1741 138.484 57.1741V60.1741ZM144.989 59.5572C146.624 59.1112 147.982 58.2583 148.738 56.842L146.09 55.4302C145.843 55.8939 145.321 56.357 144.199 56.6629L144.989 59.5572ZM148.738 56.842C149.412 55.5766 149.666 53.8704 149.666 51.9061H146.666C146.666 53.7017 146.418 54.8156 146.09 55.4302L148.738 56.842ZM149.666 51.9061V35.0801H146.666V51.9061H149.666ZM149.666 35.0801C149.666 32.9823 149.456 31.2036 148.85 29.9913L146.166 31.3329C146.438 31.8752 146.666 33.0419 146.666 35.0801H149.666ZM148.867 30.0278C148.179 28.553 146.838 27.7074 145.223 27.3229L144.529 30.2413C145.546 30.4835 145.96 30.8911 146.149 31.2964L148.867 30.0278ZM145.223 27.3229C143.723 26.9656 141.408 26.8121 138.39 26.8121V29.8121C141.388 29.8121 143.397 29.9719 144.529 30.2413L145.223 27.3229ZM138.39 26.8121C135.766 26.8121 133.611 27.0323 132.013 27.5407L132.923 30.3995C134.082 30.0305 135.875 29.8121 138.39 29.8121V26.8121ZM131.994 27.5471C130.427 28.0693 129.15 28.9604 128.418 30.3322L131.066 31.744C131.337 31.2357 131.877 30.7482 132.942 30.3931L131.994 27.5471ZM128.418 30.3322C127.749 31.5869 127.49 33.2203 127.49 35.0801H130.49C130.49 33.4305 130.732 32.3693 131.066 31.744L128.418 30.3322ZM127.49 35.0801V51.9061H130.49V35.0801H127.49ZM127.49 51.9061C127.49 53.8554 127.71 55.5302 128.289 56.7704L131.007 55.5018C130.709 54.862 130.49 53.7168 130.49 51.9061H127.49ZM128.324 56.842C129.068 58.2358 130.372 59.0981 131.962 59.5524L132.786 56.6678C131.744 56.3701 131.231 55.9164 130.972 55.4302L128.324 56.842ZM131.979 59.5572C133.554 59.9868 135.752 60.1741 138.484 60.1741V57.1741C135.827 57.1741 133.951 56.9854 132.769 56.6629L131.979 59.5572ZM176.775 23.7061L175.919 22.4743L175.909 22.4812L176.775 23.7061ZM209.581 23.6121L208.677 24.8094L208.69 24.8189L208.703 24.8281L209.581 23.6121ZM214.657 47.2061V48.7061H216.157V47.2061H214.657ZM185.141 47.2061V45.7061H183.641V47.2061H185.141ZM187.961 56.9821L188.733 55.6958L187.961 56.9821ZM213.341 56.7001H214.841V54.8098L213 55.2393L213.341 56.7001ZM213.341 65.4421L213.654 66.909L214.841 66.6557V65.4421H213.341ZM201.591 39.4041V40.9041H203.091V39.4041H201.591ZM199.711 29.4401L198.91 30.7083L198.925 30.7175L198.939 30.7263L199.711 29.4401ZM186.927 29.4401L186.095 28.192L186.087 28.197L186.08 28.2021L186.927 29.4401ZM185.141 39.4041H183.641V40.9041H185.141V39.4041ZM195.481 65.7281C187.532 65.7281 181.822 64.5054 178.145 62.2585C174.587 60.0852 172.823 56.8939 172.823 52.4701H169.823C169.823 57.8849 172.086 62.0727 176.581 64.8186C180.955 67.4911 187.324 68.7281 195.481 68.7281V65.7281ZM172.823 52.4701V36.1141H169.823V52.4701H172.823ZM172.823 36.1141C172.823 30.7462 174.514 27.1415 177.641 24.931L175.909 22.4812C171.767 25.4094 169.823 30.0767 169.823 36.1141H172.823ZM177.631 24.9379C180.956 22.6273 186.258 21.3521 193.789 21.3521V18.3521C186.029 18.3521 179.989 19.6462 175.919 22.4743L177.631 24.9379ZM193.789 21.3521C200.883 21.3521 205.747 22.5975 208.677 24.8094L210.485 22.4148C206.773 19.6133 201.108 18.3521 193.789 18.3521V21.3521ZM208.703 24.8281C211.552 26.8856 213.157 30.4933 213.157 36.1141H216.157C216.157 29.9535 214.378 25.2266 210.459 22.3961L208.703 24.8281ZM213.157 36.1141V47.2061H216.157V36.1141H213.157ZM214.657 45.7061H185.141V48.7061H214.657V45.7061ZM183.641 47.2061V51.3421H186.641V47.2061H183.641ZM183.641 51.3421C183.641 54.3772 184.761 56.8111 187.189 58.2683L188.733 55.6958C187.402 54.8971 186.641 53.571 186.641 51.3421H183.641ZM187.189 58.2683C189.454 59.6269 193.212 60.1741 198.113 60.1741V57.1741C193.238 57.1741 190.228 56.5933 188.733 55.6958L187.189 58.2683ZM198.113 60.1741C202.767 60.1741 207.96 59.496 213.682 58.1609L213 55.2393C207.442 56.5362 202.483 57.1741 198.113 57.1741V60.1741ZM211.841 56.7001V65.4421H214.841V56.7001H211.841ZM213.028 63.9751C207.564 65.1416 201.716 65.7281 195.481 65.7281V68.7281C201.904 68.7281 207.963 68.1239 213.654 66.909L213.028 63.9751ZM203.091 39.4041V32.8241H200.091V39.4041H203.091ZM203.091 32.8241C203.091 30.8119 202.204 29.1864 200.483 28.1538L198.939 30.7263C199.725 31.1977 200.091 31.8283 200.091 32.8241H203.091ZM200.512 28.1718C198.937 27.1773 196.526 26.8121 193.601 26.8121V29.8121C196.441 29.8121 198.103 30.1989 198.91 30.7083L200.512 28.1718ZM193.601 26.8121C191.892 26.8121 190.415 26.9083 189.192 27.1151C187.992 27.3179 186.914 27.6462 186.095 28.192L187.759 30.6882C188.068 30.482 188.667 30.2463 189.692 30.0731C190.693 29.9039 191.989 29.8121 193.601 29.8121V26.8121ZM186.08 28.2021C184.481 29.2961 183.641 30.8871 183.641 32.8241H186.641C186.641 31.8784 186.992 31.2134 187.774 30.678L186.08 28.2021ZM183.641 32.8241V39.4041H186.641V32.8241H183.641ZM185.141 40.9041H201.591V37.9041H185.141V40.9041ZM225.523 0.488081V-1.01192H224.023V0.488081H225.523ZM239.247 0.488081H240.747V-1.01192H239.247V0.488081ZM239.247 66.2881V67.7881H240.747V66.2881H239.247ZM225.523 66.2881H224.023V67.7881H225.523V66.2881ZM225.523 1.98808H239.247V-1.01192H225.523V1.98808ZM237.747 0.488081V66.2881H240.747V0.488081H237.747ZM239.247 64.7881H225.523V67.7881H239.247V64.7881ZM227.023 66.2881V0.488081H224.023V66.2881H227.023ZM273.904 5.28208V3.78208H272.404V5.28208H273.904ZM312.068 6.59808L311.664 8.04253L311.681 8.04726L311.698 8.0516L312.068 6.59808ZM318.836 10.6401L317.607 11.5003L317.614 11.5101L317.621 11.5198L318.836 10.6401ZM318.742 30.6621L317.637 29.6485L317.625 29.6613L317.613 29.6743L318.742 30.6621ZM314.042 33.7641L313.598 32.3315L312.542 32.659V33.7641H314.042ZM314.042 34.2341H312.542V35.5845L313.885 35.7258L314.042 34.2341ZM320.528 37.3361L319.503 38.4315L319.522 38.4485L319.54 38.4649L320.528 37.3361ZM317.614 63.1861L316.918 61.8573L317.614 63.1861ZM273.904 66.2881H272.404V67.7881H273.904V66.2881ZM303.796 29.5341L303.322 28.1111L303.796 29.5341ZM306.052 27.7481L304.711 27.0773L304.7 27.0982L304.69 27.1195L306.052 27.7481ZM306.146 17.7841L304.805 18.4549L304.817 18.4789L304.829 18.5024L306.146 17.7841ZM303.796 16.1861L303.395 17.6314L303.405 17.6341L303.414 17.6367L303.796 16.1861ZM288.568 15.7161V14.2161H287.068V15.7161H288.568ZM288.568 30.0981H287.068V31.5981H288.568V30.0981ZM306.616 54.6321L305.902 53.3131L306.616 54.6321ZM307.086 41.0021L306.126 42.1544L306.141 42.1671L306.157 42.1794L307.086 41.0021ZM288.568 39.5921V38.0921H287.068V39.5921H288.568ZM288.568 55.8541H287.068V57.3541H288.568V55.8541ZM273.904 6.78208H298.626V3.78208H273.904V6.78208ZM298.626 6.78208C304.407 6.78208 308.727 7.22023 311.664 8.04253L312.473 5.15364C309.143 4.22126 304.501 3.78208 298.626 3.78208V6.78208ZM311.698 8.0516C314.695 8.81571 316.571 10.0201 317.607 11.5003L320.065 9.77989C318.469 7.50011 315.833 6.00978 312.439 5.14456L311.698 8.0516ZM317.621 11.5198C318.682 12.985 319.31 15.1983 319.31 18.3481H322.31C322.31 14.8552 321.622 11.9299 320.051 9.76032L317.621 11.5198ZM319.31 18.3481V25.8681H322.31V18.3481H319.31ZM319.31 25.8681C319.31 27.1106 318.817 28.3611 317.637 29.6485L319.848 31.6757C321.425 29.9551 322.31 28.0096 322.31 25.8681H319.31ZM317.613 29.6743C316.47 30.9806 315.137 31.8539 313.598 32.3315L314.487 35.1967C316.583 34.5463 318.382 33.3515 319.871 31.6498L317.613 29.6743ZM312.542 33.7641V34.2341H315.542V33.7641H312.542ZM313.885 35.7258C315.906 35.9385 317.771 36.8111 319.503 38.4315L321.553 36.2407C319.4 34.2264 316.941 33.031 314.199 32.7423L313.885 35.7258ZM319.54 38.4649C321.296 40.0015 322.036 41.5892 322.036 43.2581H325.036C325.036 40.5403 323.771 38.18 321.516 36.2072L319.54 38.4649ZM322.036 43.2581V52.6581H325.036V43.2581H322.036ZM322.036 52.6581C322.036 54.9344 321.583 56.7836 320.748 58.2677C319.918 59.743 318.664 60.943 316.918 61.8573L318.31 64.5148C320.513 63.3612 322.219 61.7725 323.363 59.7385C324.502 57.7132 325.036 55.3324 325.036 52.6581H322.036ZM316.918 61.8573C313.299 63.7531 307.488 64.7881 299.284 64.7881V67.7881C307.625 67.7881 314.033 66.7551 318.31 64.5148L316.918 61.8573ZM299.284 64.7881H273.904V67.7881H299.284V64.7881ZM275.404 66.2881V5.28208H272.404V66.2881H275.404ZM298.626 31.5981C300.983 31.5981 302.905 31.4122 304.271 30.9571L303.322 28.1111C302.431 28.408 300.906 28.5981 298.626 28.5981V31.5981ZM304.271 30.9571C305.658 30.4947 306.813 29.6785 307.414 28.3767L304.69 27.1195C304.539 27.447 304.191 27.8215 303.322 28.1111L304.271 30.9571ZM307.394 28.4189C307.984 27.239 308.21 25.715 308.21 23.9881H305.21C305.21 25.5198 304.998 26.5025 304.711 27.0773L307.394 28.4189ZM308.21 23.9881V20.9801H305.21V23.9881H308.21ZM308.21 20.9801C308.21 19.4652 308.022 18.0913 307.463 17.0658L304.829 18.5024C305.022 18.8556 305.21 19.6123 305.21 20.9801H308.21ZM307.488 17.1133C306.843 15.8243 305.589 15.1067 304.178 14.7355L303.414 17.6367C304.385 17.8922 304.697 18.2399 304.805 18.4549L307.488 17.1133ZM304.198 14.7408C302.86 14.3693 300.869 14.2161 298.344 14.2161V17.2161C300.833 17.2161 302.476 17.3762 303.395 17.6314L304.198 14.7408ZM298.344 14.2161H288.568V17.2161H298.344V14.2161ZM287.068 15.7161V30.0981H290.068V15.7161H287.068ZM288.568 31.5981H298.626V28.5981H288.568V31.5981ZM299.002 57.3541C302.608 57.3541 305.474 56.9566 307.331 55.951L305.902 53.3131C304.75 53.9369 302.541 54.3541 299.002 54.3541V57.3541ZM307.331 55.951C308.296 55.4282 309.079 54.709 309.611 53.7783C310.14 52.8524 310.372 51.8018 310.372 50.6841H307.372C307.372 51.3837 307.229 51.8997 307.006 52.2899C306.786 52.6752 306.441 53.0213 305.902 53.3131L307.331 55.951ZM310.372 50.6841V45.7961H307.372V50.6841H310.372ZM310.372 45.7961C310.372 43.3115 309.715 41.1666 308.016 39.8248L306.157 42.1794C306.838 42.7175 307.372 43.7686 307.372 45.7961H310.372ZM308.047 39.8498C306.485 38.5486 303.974 38.0921 300.976 38.0921V41.0921C303.869 41.0921 305.431 41.5755 306.126 42.1544L308.047 39.8498ZM300.976 38.0921H288.568V41.0921H300.976V38.0921ZM287.068 39.5921V55.8541H290.068V39.5921H287.068ZM288.568 57.3541H299.002V54.3541H288.568V57.3541ZM337.144 23.7061L336.288 22.4743L336.278 22.4812L337.144 23.7061ZM369.95 23.6121L369.047 24.8094L369.059 24.8189L369.072 24.8281L369.95 23.6121ZM375.026 47.2061V48.7061H376.526V47.2061H375.026ZM345.51 47.2061V45.7061H344.01V47.2061H345.51ZM348.33 56.9821L349.102 55.6958L348.33 56.9821ZM373.71 56.7001H375.21V54.8098L373.369 55.2393L373.71 56.7001ZM373.71 65.4421L374.023 66.909L375.21 66.6557V65.4421H373.71ZM361.96 39.4041V40.9041H363.46V39.4041H361.96ZM360.08 29.4401L359.279 30.7083L359.294 30.7175L359.308 30.7263L360.08 29.4401ZM347.296 29.4401L346.464 28.192L346.457 28.197L346.449 28.2021L347.296 29.4401ZM345.51 39.4041H344.01V40.9041H345.51V39.4041ZM355.85 65.7281C347.901 65.7281 342.192 64.5054 338.514 62.2585C334.956 60.0852 333.192 56.8939 333.192 52.4701H330.192C330.192 57.8849 332.455 62.0727 336.95 64.8186C341.324 67.4911 347.694 68.7281 355.85 68.7281V65.7281ZM333.192 52.4701V36.1141H330.192V52.4701H333.192ZM333.192 36.1141C333.192 30.7462 334.883 27.1415 338.01 24.931L336.278 22.4812C332.136 25.4094 330.192 30.0767 330.192 36.1141H333.192ZM338 24.9379C341.325 22.6273 346.628 21.3521 354.158 21.3521V18.3521C346.398 18.3521 340.358 19.6462 336.288 22.4743L338 24.9379ZM354.158 21.3521C361.253 21.3521 366.116 22.5975 369.047 24.8094L370.854 22.4148C367.142 19.6133 361.477 18.3521 354.158 18.3521V21.3521ZM369.072 24.8281C371.921 26.8856 373.526 30.4933 373.526 36.1141H376.526C376.526 29.9535 374.748 25.2266 370.828 22.3961L369.072 24.8281ZM373.526 36.1141V47.2061H376.526V36.1141H373.526ZM375.026 45.7061H345.51V48.7061H375.026V45.7061ZM344.01 47.2061V51.3421H347.01V47.2061H344.01ZM344.01 51.3421C344.01 54.3772 345.13 56.8111 347.558 58.2683L349.102 55.6958C347.771 54.8971 347.01 53.571 347.01 51.3421H344.01ZM347.558 58.2683C349.823 59.6269 353.581 60.1741 358.482 60.1741V57.1741C353.607 57.1741 350.598 56.5933 349.102 55.6958L347.558 58.2683ZM358.482 60.1741C363.136 60.1741 368.329 59.496 374.051 58.1609L373.369 55.2393C367.811 56.5362 362.852 57.1741 358.482 57.1741V60.1741ZM372.21 56.7001V65.4421H375.21V56.7001H372.21ZM373.397 63.9751C367.933 65.1416 362.086 65.7281 355.85 65.7281V68.7281C362.273 68.7281 368.333 68.1239 374.023 66.909L373.397 63.9751ZM363.46 39.4041V32.8241H360.46V39.4041H363.46ZM363.46 32.8241C363.46 30.8119 362.573 29.1864 360.852 28.1538L359.308 30.7263C360.094 31.1977 360.46 31.8283 360.46 32.8241H363.46ZM360.881 28.1718C359.306 27.1773 356.895 26.8121 353.97 26.8121V29.8121C356.811 29.8121 358.473 30.1989 359.279 30.7083L360.881 28.1718ZM353.97 26.8121C352.261 26.8121 350.784 26.9083 349.561 27.1151C348.361 27.3179 347.283 27.6462 346.464 28.192L348.128 30.6882C348.437 30.482 349.036 30.2463 350.061 30.0731C351.062 29.9039 352.358 29.8121 353.97 29.8121V26.8121ZM346.449 28.2021C344.85 29.2961 344.01 30.8871 344.01 32.8241H347.01C347.01 31.8784 347.361 31.2134 348.143 30.678L346.449 28.2021ZM344.01 32.8241V39.4041H347.01V32.8241H344.01ZM345.51 40.9041H361.96V37.9041H345.51V40.9041ZM389.652 23.7061L388.796 22.4743L388.786 22.4812L389.652 23.7061ZM422.458 23.6121L421.554 24.8094L421.567 24.8189L421.58 24.8281L422.458 23.6121ZM427.534 47.2061V48.7061H429.034V47.2061H427.534ZM398.018 47.2061V45.7061H396.518V47.2061H398.018ZM400.838 56.9821L401.61 55.6958L400.838 56.9821ZM426.218 56.7001H427.718V54.8098L425.877 55.2393L426.218 56.7001ZM426.218 65.4421L426.531 66.909L427.718 66.6557V65.4421H426.218ZM414.468 39.4041V40.9041H415.968V39.4041H414.468ZM412.588 29.4401L411.787 30.7083L411.802 30.7175L411.816 30.7263L412.588 29.4401ZM399.804 29.4401L398.972 28.192L398.964 28.197L398.957 28.2021L399.804 29.4401ZM398.018 39.4041H396.518V40.9041H398.018V39.4041ZM408.358 65.7281C400.409 65.7281 394.699 64.5054 391.021 62.2585C387.464 60.0852 385.7 56.8939 385.7 52.4701H382.7C382.7 57.8849 384.963 62.0727 389.458 64.8186C393.832 67.4911 400.201 68.7281 408.358 68.7281V65.7281ZM385.7 52.4701V36.1141H382.7V52.4701H385.7ZM385.7 36.1141C385.7 30.7462 387.391 27.1415 390.518 24.931L388.786 22.4812C384.644 25.4094 382.7 30.0767 382.7 36.1141H385.7ZM390.508 24.9379C393.833 22.6273 399.135 21.3521 406.666 21.3521V18.3521C398.906 18.3521 392.866 19.6462 388.796 22.4743L390.508 24.9379ZM406.666 21.3521C413.76 21.3521 418.624 22.5975 421.554 24.8094L423.362 22.4148C419.65 19.6133 413.985 18.3521 406.666 18.3521V21.3521ZM421.58 24.8281C424.429 26.8856 426.034 30.4933 426.034 36.1141H429.034C429.034 29.9535 427.255 25.2266 423.336 22.3961L421.58 24.8281ZM426.034 36.1141V47.2061H429.034V36.1141H426.034ZM427.534 45.7061H398.018V48.7061H427.534V45.7061ZM396.518 47.2061V51.3421H399.518V47.2061H396.518ZM396.518 51.3421C396.518 54.3772 397.638 56.8111 400.066 58.2683L401.61 55.6958C400.278 54.8971 399.518 53.571 399.518 51.3421H396.518ZM400.066 58.2683C402.331 59.6269 406.089 60.1741 410.99 60.1741V57.1741C406.115 57.1741 403.105 56.5933 401.61 55.6958L400.066 58.2683ZM410.99 60.1741C415.644 60.1741 420.837 59.496 426.559 58.1609L425.877 55.2393C420.319 56.5362 415.36 57.1741 410.99 57.1741V60.1741ZM424.718 56.7001V65.4421H427.718V56.7001H424.718ZM425.905 63.9751C420.441 65.1416 414.593 65.7281 408.358 65.7281V68.7281C414.781 68.7281 420.84 68.1239 426.531 66.909L425.905 63.9751ZM415.968 39.4041V32.8241H412.968V39.4041H415.968ZM415.968 32.8241C415.968 30.8119 415.081 29.1864 413.36 28.1538L411.816 30.7263C412.602 31.1977 412.968 31.8283 412.968 32.8241H415.968ZM413.389 28.1718C411.814 27.1773 409.403 26.8121 406.478 26.8121V29.8121C409.318 29.8121 410.98 30.1989 411.787 30.7083L413.389 28.1718ZM406.478 26.8121C404.769 26.8121 403.292 26.9083 402.069 27.1151C400.869 27.3179 399.791 27.6462 398.972 28.192L400.636 30.6882C400.945 30.482 401.544 30.2463 402.568 30.0731C403.57 29.9039 404.866 29.8121 406.478 29.8121V26.8121ZM398.957 28.2021C397.358 29.2961 396.518 30.8871 396.518 32.8241H399.518C399.518 31.8784 399.869 31.2134 400.651 30.678L398.957 28.2021ZM396.518 32.8241V39.4041H399.518V32.8241H396.518ZM398.018 40.9041H414.468V37.9041H398.018V40.9041ZM438.024 20.7921V19.2921H436.524V20.7921H438.024ZM451.09 20.7921H452.59V19.2921H451.09V20.7921ZM452.876 24.5521L451.741 23.5717L452.876 24.5521ZM457.388 21.1681L456.753 19.8088L456.745 19.813L456.736 19.8173L457.388 21.1681ZM467.822 19.8521H469.322V18.3521H467.822V19.8521ZM467.822 31.2261V32.7261H469.322V31.2261H467.822ZM454.474 33.0121L453.671 31.7449L453.661 31.751L453.652 31.7574L454.474 33.0121ZM451.748 66.2881V67.7881H453.248V66.2881H451.748ZM438.024 66.2881H436.524V67.7881H438.024V66.2881ZM438.024 22.2921H451.09V19.2921H438.024V22.2921ZM449.59 20.7921V28.7821H452.59V20.7921H449.59ZM452.59 28.7821C452.59 27.7878 452.992 26.7128 454.011 25.5325L451.741 23.5717C450.379 25.1487 449.59 26.8937 449.59 28.7821H452.59ZM454.011 25.5325C455.054 24.325 456.387 23.3167 458.04 22.5189L456.736 19.8173C454.754 20.7741 453.079 22.0218 451.741 23.5717L454.011 25.5325ZM458.022 22.5274C459.732 21.7296 461.365 21.3521 462.934 21.3521V18.3521C460.868 18.3521 458.804 18.8519 456.753 19.8088L458.022 22.5274ZM462.934 21.3521H467.822V18.3521H462.934V21.3521ZM466.322 19.8521V31.2261H469.322V19.8521H466.322ZM467.822 29.7261H463.122V32.7261H467.822V29.7261ZM463.122 29.7261C459.138 29.7261 455.911 30.3265 453.671 31.7449L455.276 34.2793C456.797 33.3163 459.335 32.7261 463.122 32.7261V29.7261ZM453.652 31.7574C451.297 33.3002 450.248 35.825 450.248 38.9341H453.248C453.248 36.5285 454.016 35.1053 455.296 34.2668L453.652 31.7574ZM450.248 38.9341V66.2881H453.248V38.9341H450.248ZM451.748 64.7881H438.024V67.7881H451.748V64.7881ZM439.524 66.2881V20.7921H436.524V66.2881H439.524Z" fill="black" mask="url(#path-1-outside-1_3091_46)"/>
</svg>
