<svg width="181" height="52" viewBox="0 0 181 52" fill="none" xmlns="http://www.w3.org/2000/svg">
<path d="M180.305 50.096C170.038 50.096 170.038 39.0176 159.771 39.0176C149.505 39.0176 149.395 50.096 139.238 50.096C129.081 50.096 128.971 39.0176 118.704 39.0176C108.438 39.0176 108.459 50.096 98.1928 50.096C87.926 50.096 87.926 39.0176 77.6592 39.0176C67.3925 39.0176 67.3925 50.096 57.1258 50.096C46.8591 50.096 46.859 39.0176 36.5923 39.0176C26.3256 39.0176 26.3036 50.096 16.0369 50.096C5.77016 50.096 5.77019 39.0176 -4.49654 39.0176" stroke="black" stroke-width="2" stroke-miterlimit="10"/>
<path d="M180.305 31.3398C170.038 31.3398 170.038 20.3711 159.771 20.3711C149.505 20.3711 149.504 31.3398 139.238 31.3398C128.971 31.3398 128.971 20.3711 118.704 20.3711C108.438 20.3711 108.459 31.3398 98.1928 31.3398C87.926 31.3398 87.926 20.3711 77.6592 20.3711C67.3925 20.3711 67.3925 31.3398 57.1258 31.3398C46.8591 31.3398 46.859 20.3711 36.5923 20.3711C26.3256 20.3711 26.3036 31.3398 16.0369 31.3398C5.77016 31.3398 5.77019 20.3711 -4.49654 20.3711" stroke="black" stroke-width="2" stroke-miterlimit="10"/>
<path d="M180.305 12.6526C170.038 12.6526 170.038 1.57422 159.771 1.57422C149.505 1.57422 149.504 12.6526 139.238 12.6526C128.971 12.6526 128.971 1.57422 118.704 1.57422C108.438 1.57422 108.459 12.6526 98.1928 12.6526C87.926 12.6526 87.926 1.57421 77.6592 1.57421C67.3925 1.57421 67.3925 12.6526 57.1258 12.6526C46.8591 12.6526 46.859 1.57421 36.5923 1.57421C26.3256 1.57421 26.3036 12.6526 16.0369 12.6526C5.77016 12.6526 5.77019 1.57421 -4.49654 1.57421" stroke="black" stroke-width="2" stroke-miterlimit="10"/>
</svg>
