<svg width="75" height="38" viewBox="0 0 75 38" fill="none" xmlns="http://www.w3.org/2000/svg">
<mask id="path-1-inside-1_408_5570" fill="white">
<path d="M74.5477 37.3705C74.5477 27.4989 70.6262 18.0315 63.6459 11.0512C56.6656 4.07091 47.1982 0.149415 37.3266 0.149414C27.4549 0.149413 17.9876 4.07091 11.0073 11.0512C4.02697 18.0315 0.10547 27.4989 0.105469 37.3705L37.3266 37.3705L74.5477 37.3705Z"/>
</mask>
<path d="M74.5477 37.3705C74.5477 27.4989 70.6262 18.0315 63.6459 11.0512C56.6656 4.07091 47.1982 0.149415 37.3266 0.149414C27.4549 0.149413 17.9876 4.07091 11.0073 11.0512C4.02697 18.0315 0.10547 27.4989 0.105469 37.3705L37.3266 37.3705L74.5477 37.3705Z" fill="#FFCC02" stroke="#FFCC02" stroke-width="10" mask="url(#path-1-inside-1_408_5570)"/>
</svg>
