<svg width="30" height="30" viewBox="0 0 30 30" fill="none" xmlns="http://www.w3.org/2000/svg">
<path d="M25.5695 9.65527H19.375V20.8825H29.5242V15.8291L28.3405 11.7382C27.9837 10.5046 26.8537 9.65527 25.5695 9.65527Z" fill="#FFB700"/>
<path d="M28.0427 15.7776L26.9878 12.131C26.8059 11.5041 26.2228 11.0654 25.5698 11.0654H20.7852V15.7776H28.0427Z" fill="#84DBFF"/>
<path d="M28.0464 15.7756H20.7852V11.0635L28.0464 15.7756Z" fill="#CDD6E0"/>
<path d="M28.0427 15.7776L26.9878 12.131C26.8059 11.5041 26.2228 11.0654 25.5698 11.0654H20.7852L28.0427 15.7776Z" fill="#F2F2F2"/>
<path d="M1.87484 4.01904H17.501C18.5359 4.01904 19.3759 4.85833 19.3759 5.89389V20.882H0V5.89389C0 4.85839 0.839285 4.01904 1.87484 4.01904Z" fill="#FFD15C"/>
<path d="M12.6976 4.02197V8.97589L11.9726 8.25097L11.2127 9.01093L10.4534 8.25097L9.69412 9.01093L8.93352 8.25097L8.16425 9.01093L7.40552 8.25097L6.67188 8.98468V4.02197H12.6976Z" fill="#F2F2F2"/>
<path d="M30.0014 20.8815V23H0.00390625V20.8815H3.13489C3.86608 19.5691 5.27221 18.6816 6.88458 18.6816C8.49067 18.6816 9.89681 19.5691 10.6343 20.8815H20.7084C21.4396 19.5691 22.8389 18.6816 24.4513 18.6816C26.0636 18.6816 27.4635 19.5691 28.201 20.8815H30.0014Z" fill="#334A5E"/>
<path d="M27.444 22.9868C27.444 24.6404 26.1035 25.9809 24.4499 25.9809C22.7963 25.9809 21.457 24.6404 21.457 22.9868C21.457 21.3332 22.7969 19.9927 24.4499 19.9927C26.1042 19.9927 27.444 21.3332 27.444 22.9868Z" fill="#40596B"/>
<path d="M25.6522 22.9866C25.6522 23.6509 25.1134 24.189 24.4497 24.189C23.7854 24.189 23.2461 23.6509 23.2461 22.9866C23.2461 22.3223 23.7848 21.7842 24.4497 21.7842C25.1134 21.7836 25.6522 22.3223 25.6522 22.9866Z" fill="#ACB3BA"/>
<path d="M9.87497 22.9868C9.87497 24.6404 8.53381 25.9809 6.88084 25.9809C5.22723 25.9809 3.88672 24.6404 3.88672 22.9868C3.88672 21.3332 5.22723 19.9927 6.88084 19.9927C8.53381 19.9927 9.87497 21.3332 9.87497 22.9868Z" fill="#40596B"/>
<path d="M8.0812 22.9866C8.0812 23.6509 7.54312 24.189 6.87879 24.189C6.21445 24.189 5.67578 23.6509 5.67578 22.9866C5.67578 22.3223 6.21451 21.7842 6.87879 21.7842C7.54307 21.7842 8.0812 22.3223 8.0812 22.9866Z" fill="#ACB3BA"/>
</svg>
