<svg width="60" height="57" viewBox="0 0 60 57" fill="none" xmlns="http://www.w3.org/2000/svg">
<mask id="path-1-inside-1_408_5620" fill="white">
<path d="M64.8114 56.6181C69.7472 48.069 71.0848 37.9093 68.5298 28.374C65.9748 18.8388 59.7366 10.709 51.1875 5.77315C42.6384 0.837325 32.4787 -0.500225 22.9435 2.05474C13.4082 4.60971 5.2784 10.8479 0.342575 19.397L32.577 38.0076L64.8114 56.6181Z"/>
</mask>
<path d="M64.8114 56.6181C69.7472 48.069 71.0848 37.9093 68.5298 28.374C65.9748 18.8388 59.7366 10.709 51.1875 5.77315C42.6384 0.837325 32.4787 -0.500225 22.9435 2.05474C13.4082 4.60971 5.2784 10.8479 0.342575 19.397L32.577 38.0076L64.8114 56.6181Z" fill="#FFCC02" stroke="#FFCC02" stroke-width="6" mask="url(#path-1-inside-1_408_5620)"/>
</svg>
