<svg width="161" height="52" viewBox="0 0 161 52" fill="none" xmlns="http://www.w3.org/2000/svg">
<path d="M160.035 50.1624C149.456 50.1624 149.456 39.084 138.878 39.084C128.299 39.084 128.186 50.1624 117.72 50.1624C107.255 50.1624 107.142 39.084 96.563 39.084C85.9843 39.084 86.0069 50.1624 75.4282 50.1624C64.8495 50.1624 64.8495 39.084 54.2708 39.084C43.6921 39.084 43.6921 50.1624 33.1134 50.1624C22.5347 50.1624 22.5347 39.084 11.956 39.084C1.37732 39.084 1.35473 50.1624 -9.22397 50.1624C-19.8027 50.1624 -19.8026 39.084 -30.3813 39.084" stroke="#FFCC02" stroke-width="2" stroke-miterlimit="10"/>
<path d="M160.035 31.4062C149.456 31.4062 149.456 20.4375 138.878 20.4375C128.299 20.4375 128.299 31.4062 117.72 31.4062C107.142 31.4062 107.142 20.4375 96.563 20.4375C85.9843 20.4375 86.0069 31.4062 75.4282 31.4062C64.8495 31.4062 64.8495 20.4375 54.2708 20.4375C43.6921 20.4375 43.6921 31.4062 33.1134 31.4062C22.5347 31.4062 22.5347 20.4375 11.956 20.4375C1.37732 20.4375 1.35473 31.4062 -9.22397 31.4062C-19.8027 31.4062 -19.8026 20.4375 -30.3813 20.4375" stroke="#FFCC02" stroke-width="2" stroke-miterlimit="10"/>
<path d="M160.035 12.719C149.456 12.719 149.456 1.64062 138.878 1.64062C128.299 1.64062 128.299 12.719 117.72 12.719C107.142 12.719 107.142 1.64062 96.563 1.64062C85.9843 1.64062 86.0069 12.719 75.4282 12.719C64.8495 12.719 64.8495 1.64062 54.2708 1.64062C43.6921 1.64062 43.6921 12.719 33.1134 12.719C22.5347 12.719 22.5347 1.64062 11.956 1.64062C1.37732 1.64062 1.35473 12.719 -9.22397 12.719C-19.8027 12.719 -19.8026 1.64062 -30.3813 1.64062" stroke="#FFCC02" stroke-width="2" stroke-miterlimit="10"/>
</svg>
