<svg width="56" height="46" viewBox="0 0 56 46" fill="none" xmlns="http://www.w3.org/2000/svg">
<mask id="path-1-inside-1_440_557" fill="white">
<path d="M4.11677 0.592295C0.171339 7.42599 -0.897826 15.5471 1.14448 23.1691C3.18678 30.7911 8.17327 37.2896 15.007 41.235C21.8407 45.1805 29.9618 46.2496 37.5838 44.2073C45.2058 42.165 51.7043 37.1786 55.6497 30.3449L29.8832 15.4686L4.11677 0.592295Z"/>
</mask>
<path d="M4.11677 0.592295C0.171339 7.42599 -0.897826 15.5471 1.14448 23.1691C3.18678 30.7911 8.17327 37.2896 15.007 41.235C21.8407 45.1805 29.9618 46.2496 37.5838 44.2073C45.2058 42.165 51.7043 37.1786 55.6497 30.3449L29.8832 15.4686L4.11677 0.592295Z" fill="black" stroke="black" stroke-width="10" mask="url(#path-1-inside-1_440_557)"/>
</svg>
