<svg width="157" height="51" viewBox="0 0 157 51" fill="none" xmlns="http://www.w3.org/2000/svg">
<path d="M190.418 49.5218C179.839 49.5218 179.839 38.4434 169.261 38.4434C158.682 38.4434 158.569 49.5218 148.103 49.5218C137.638 49.5218 137.525 38.4434 126.946 38.4434C116.367 38.4434 116.39 49.5218 105.811 49.5218C95.2323 49.5218 95.2323 38.4434 84.6536 38.4434C74.0749 38.4434 74.0749 49.5218 63.4963 49.5218C52.9176 49.5218 52.9175 38.4434 42.3388 38.4434C31.7601 38.4434 31.7375 49.5218 21.1588 49.5218C10.5801 49.5218 10.5802 38.4434 0.00148835 38.4434" stroke="#FFCC02" stroke-width="2" stroke-miterlimit="10"/>
<path d="M190.418 30.7656C179.839 30.7656 179.839 19.7969 169.261 19.7969C158.682 19.7969 158.682 30.7656 148.103 30.7656C137.524 30.7656 137.525 19.7969 126.946 19.7969C116.367 19.7969 116.39 30.7656 105.811 30.7656C95.2323 30.7656 95.2323 19.7969 84.6536 19.7969C74.0749 19.7969 74.0749 30.7656 63.4963 30.7656C52.9176 30.7656 52.9175 19.7969 42.3388 19.7969C31.7601 19.7969 31.7375 30.7656 21.1588 30.7656C10.5801 30.7656 10.5802 19.7969 0.00148835 19.7969" stroke="#FFCC02" stroke-width="2" stroke-miterlimit="10"/>
<path d="M190.418 12.0784C179.839 12.0784 179.839 1 169.261 0.999999C158.682 0.999999 158.682 12.0784 148.103 12.0784C137.524 12.0784 137.525 0.999998 126.946 0.999997C116.367 0.999997 116.39 12.0784 105.811 12.0784C95.2323 12.0784 95.2323 0.999996 84.6536 0.999995C74.0749 0.999995 74.0749 12.0784 63.4963 12.0784C52.9176 12.0784 52.9175 0.999994 42.3388 0.999994C31.7601 0.999993 31.7375 12.0784 21.1588 12.0784C10.5801 12.0784 10.5802 0.999992 0.00148835 0.999992" stroke="#FFCC02" stroke-width="2" stroke-miterlimit="10"/>
</svg>
