<svg width="71" height="57" viewBox="0 0 71 57" fill="none" xmlns="http://www.w3.org/2000/svg">
<mask id="path-1-inside-1_408_9079" fill="white">
<path d="M65.0263 56.7656C69.9621 48.2165 71.2996 38.0568 68.7447 28.5215C66.1897 18.9862 59.9515 10.8564 51.4024 5.92061C42.8533 0.984786 32.6936 -0.352764 23.1583 2.20221C13.623 4.75717 5.49325 10.9954 0.557419 19.5445L32.7918 38.155L65.0263 56.7656Z"/>
</mask>
<path d="M65.0263 56.7656C69.9621 48.2165 71.2996 38.0568 68.7447 28.5215C66.1897 18.9862 59.9515 10.8564 51.4024 5.92061C42.8533 0.984786 32.6936 -0.352764 23.1583 2.20221C13.623 4.75717 5.49325 10.9954 0.557419 19.5445L32.7918 38.155L65.0263 56.7656Z" fill="#FFCC02" stroke="#FFCC02" stroke-width="6" mask="url(#path-1-inside-1_408_9079)"/>
</svg>
