<svg width="52" height="58" viewBox="0 0 52 58" fill="none" xmlns="http://www.w3.org/2000/svg">
<mask id="path-1-inside-1_408_9124" fill="white">
<path d="M-17.2876 40.3658C-11.9882 48.6945 -3.59731 54.5768 6.03915 56.7188C15.6756 58.8608 25.7683 57.0869 34.0969 51.7875C42.4255 46.4882 48.3078 38.0973 50.4498 28.4608C52.5918 18.8244 50.818 8.73168 45.5186 0.403062L14.1155 20.3844L-17.2876 40.3658Z"/>
</mask>
<path d="M-17.2876 40.3658C-11.9882 48.6945 -3.59731 54.5768 6.03915 56.7188C15.6756 58.8608 25.7683 57.0869 34.0969 51.7875C42.4255 46.4882 48.3078 38.0973 50.4498 28.4608C52.5918 18.8244 50.818 8.73168 45.5186 0.403062L14.1155 20.3844L-17.2876 40.3658Z" fill="black" stroke="black" stroke-width="10" mask="url(#path-1-inside-1_408_9124)"/>
</svg>
