<svg width="80" height="65" viewBox="0 0 80 65" fill="none" xmlns="http://www.w3.org/2000/svg">
<path d="M3.17267 64.1061C4.38769 64.1061 5.37265 63.1211 5.37265 61.9061C5.37265 60.691 4.38769 59.7061 3.17267 59.7061C1.95764 59.7061 0.972656 60.691 0.972656 61.9061C0.972656 63.1211 1.95764 64.1061 3.17267 64.1061Z" fill="black"/>
<path d="M17.9031 64.1061C19.1182 64.1061 20.1031 63.1211 20.1031 61.9061C20.1031 60.691 19.1182 59.7061 17.9031 59.7061C16.6881 59.7061 15.7031 60.691 15.7031 61.9061C15.7031 63.1211 16.6881 64.1061 17.9031 64.1061Z" fill="black"/>
<path d="M32.6219 64.1061C33.8369 64.1061 34.8219 63.1211 34.8219 61.9061C34.8219 60.691 33.8369 59.7061 32.6219 59.7061C31.4068 59.7061 30.4219 60.691 30.4219 61.9061C30.4219 63.1211 31.4068 64.1061 32.6219 64.1061Z" fill="black"/>
<path d="M47.3528 59.6963C46.9149 59.6943 46.4862 59.8225 46.1212 60.0646C45.7563 60.3067 45.4715 60.6517 45.303 61.056C45.1345 61.4602 45.0898 61.9054 45.1748 62.335C45.2597 62.7646 45.4704 63.1593 45.7801 63.469C46.0898 63.7787 46.4845 63.9893 46.9141 64.0743C47.3437 64.1593 47.7889 64.1147 48.1932 63.9462C48.5974 63.7777 48.9424 63.4928 49.1845 63.1279C49.4266 62.7629 49.5548 62.3343 49.5528 61.8963C49.5528 61.3128 49.321 60.7533 48.9084 60.3407C48.4959 59.9281 47.9363 59.6963 47.3528 59.6963Z" fill="black"/>
<path d="M62.0833 59.6963C61.6453 59.6943 61.2167 59.8225 60.8517 60.0646C60.4867 60.3067 60.2019 60.6517 60.0334 61.056C59.8649 61.4602 59.8203 61.9054 59.9053 62.335C59.9902 62.7646 60.2009 63.1593 60.5106 63.469C60.8203 63.7787 61.215 63.9893 61.6446 64.0743C62.0742 64.1593 62.5194 64.1147 62.9236 63.9462C63.3278 63.7777 63.6729 63.4928 63.915 63.1279C64.157 62.7629 64.2852 62.3343 64.2833 61.8963C64.2806 61.3137 64.048 60.7556 63.636 60.3436C63.224 59.9316 62.6659 59.6989 62.0833 59.6963Z" fill="black"/>
<path d="M76.8016 64.1061C78.0166 64.1061 79.0016 63.1211 79.0016 61.9061C79.0016 60.691 78.0166 59.7061 76.8016 59.7061C75.5865 59.7061 74.6016 60.691 74.6016 61.9061C74.6016 63.1211 75.5865 64.1061 76.8016 64.1061Z" fill="black"/>
<path d="M3.17267 52.2262C4.38769 52.2262 5.37265 51.2412 5.37265 50.0262C5.37265 48.8111 4.38769 47.8262 3.17267 47.8262C1.95764 47.8262 0.972656 48.8111 0.972656 50.0262C0.972656 51.2412 1.95764 52.2262 3.17267 52.2262Z" fill="black"/>
<path d="M17.9031 52.2262C19.1182 52.2262 20.1031 51.2412 20.1031 50.0262C20.1031 48.8111 19.1182 47.8262 17.9031 47.8262C16.6881 47.8262 15.7031 48.8111 15.7031 50.0262C15.7031 51.2412 16.6881 52.2262 17.9031 52.2262Z" fill="black"/>
<path d="M32.6219 52.2262C33.8369 52.2262 34.8219 51.2412 34.8219 50.0262C34.8219 48.8111 33.8369 47.8262 32.6219 47.8262C31.4068 47.8262 30.4219 48.8111 30.4219 50.0262C30.4219 51.2412 31.4068 52.2262 32.6219 52.2262Z" fill="black"/>
<path d="M47.3524 47.8164C46.9172 47.8164 46.4919 47.9454 46.1301 48.1872C45.7683 48.4289 45.4863 48.7725 45.3198 49.1745C45.1533 49.5765 45.1097 50.0189 45.1946 50.4456C45.2795 50.8724 45.489 51.2644 45.7967 51.5721C46.1044 51.8797 46.4964 52.0892 46.9232 52.1741C47.3499 52.259 47.7922 52.2155 48.1942 52.049C48.5962 51.8824 48.9398 51.6005 49.1816 51.2387C49.4233 50.8769 49.5523 50.4515 49.5523 50.0164C49.5523 49.4329 49.3206 48.8734 48.908 48.4608C48.4954 48.0482 47.9358 47.8164 47.3524 47.8164Z" fill="black"/>
<path d="M62.0828 47.8164C61.6477 47.8164 61.2224 47.9454 60.8606 48.1872C60.4988 48.4289 60.2168 48.7725 60.0503 49.1745C59.8838 49.5765 59.8402 50.0189 59.9251 50.4456C60.01 50.8724 60.2195 51.2644 60.5272 51.5721C60.8348 51.8797 61.2269 52.0892 61.6536 52.1741C62.0804 52.259 62.5227 52.2155 62.9247 52.049C63.3267 51.8824 63.6703 51.6005 63.9121 51.2387C64.1538 50.8769 64.2828 50.4515 64.2828 50.0164C64.2802 49.4338 64.0475 48.8757 63.6355 48.4637C63.2235 48.0517 62.6655 47.819 62.0828 47.8164Z" fill="black"/>
<path d="M76.8016 52.2262C78.0166 52.2262 79.0016 51.2412 79.0016 50.0262C79.0016 48.8111 78.0166 47.8262 76.8016 47.8262C75.5865 47.8262 74.6016 48.8111 74.6016 50.0262C74.6016 51.2412 75.5865 52.2262 76.8016 52.2262Z" fill="black"/>
<path d="M3.17266 35.9361C2.73754 35.9361 2.3122 36.0651 1.95041 36.3068C1.58863 36.5486 1.30664 36.8922 1.14013 37.2942C0.973614 37.6961 0.930041 38.1385 1.01493 38.5653C1.09982 38.992 1.30935 39.384 1.61702 39.6917C1.9247 39.9994 2.3167 40.2089 2.74346 40.2938C3.17022 40.3787 3.61256 40.3351 4.01456 40.1686C4.41656 40.0021 4.76016 39.7201 5.0019 39.3583C5.24364 38.9965 5.37266 38.5712 5.37266 38.1361C5.37398 37.8468 5.31798 37.5601 5.20789 37.2926C5.0978 37.0251 4.93581 36.782 4.73125 36.5775C4.5267 36.3729 4.28365 36.2109 4.01613 36.1008C3.74862 35.9907 3.46194 35.9347 3.17266 35.9361Z" fill="black"/>
<path d="M17.9422 35.9365C17.5071 35.9365 17.0817 36.0656 16.7199 36.3073C16.3581 36.5491 16.0762 36.8926 15.9097 37.2946C15.7431 37.6966 15.6996 38.139 15.7845 38.5657C15.8693 38.9925 16.0789 39.3845 16.3866 39.6922C16.6942 39.9998 17.0862 40.2094 17.513 40.2943C17.9397 40.3791 18.3821 40.3356 18.7841 40.1691C19.1861 40.0026 19.5297 39.7206 19.7714 39.3588C20.0132 38.997 20.1422 38.5717 20.1422 38.1365C20.1422 37.5531 19.9104 36.9935 19.4978 36.5809C19.0852 36.1683 18.5257 35.9365 17.9422 35.9365Z" fill="black"/>
<path d="M32.6219 35.9365C32.1867 35.9365 31.7614 36.0656 31.3996 36.3073C31.0378 36.5491 30.7558 36.8926 30.5893 37.2946C30.4228 37.6966 30.3793 38.139 30.4642 38.5657C30.549 38.9925 30.7586 39.3845 31.0662 39.6922C31.3739 39.9998 31.7659 40.2094 32.1927 40.2943C32.6194 40.3791 33.0618 40.3356 33.4638 40.1691C33.8658 40.0026 34.2094 39.7206 34.4511 39.3588C34.6928 38.997 34.8219 38.5717 34.8219 38.1365C34.8219 37.5531 34.5901 36.9935 34.1775 36.5809C33.7649 36.1683 33.2053 35.9365 32.6219 35.9365Z" fill="black"/>
<path d="M47.3524 35.9361C46.9172 35.9361 46.4919 36.0651 46.1301 36.3068C45.7683 36.5486 45.4863 36.8922 45.3198 37.2942C45.1533 37.6961 45.1097 38.1385 45.1946 38.5653C45.2795 38.992 45.489 39.384 45.7967 39.6917C46.1044 39.9994 46.4964 40.2089 46.9232 40.2938C47.3499 40.3787 47.7922 40.3351 48.1942 40.1686C48.5962 40.0021 48.9398 39.7201 49.1816 39.3583C49.4233 38.9965 49.5523 38.5712 49.5523 38.1361C49.5537 37.8468 49.4977 37.5601 49.3876 37.2926C49.2775 37.0251 49.1155 36.782 48.911 36.5775C48.7064 36.3729 48.4633 36.2109 48.1958 36.1008C47.9283 35.9907 47.6416 35.9347 47.3524 35.9361Z" fill="black"/>
<path d="M62.0828 35.9365C61.6477 35.9365 61.2224 36.0656 60.8606 36.3073C60.4988 36.5491 60.2168 36.8926 60.0503 37.2946C59.8838 37.6966 59.8402 38.139 59.9251 38.5657C60.01 38.9925 60.2195 39.3845 60.5272 39.6922C60.8348 39.9998 61.2269 40.2094 61.6536 40.2943C62.0804 40.3791 62.5227 40.3356 62.9247 40.1691C63.3267 40.0026 63.6703 39.7206 63.9121 39.3588C64.1538 38.997 64.2828 38.5717 64.2828 38.1365C64.2828 37.5531 64.051 36.9935 63.6385 36.5809C63.2259 36.1683 62.6663 35.9365 62.0828 35.9365Z" fill="black"/>
<path d="M76.8033 35.9361C76.3686 35.938 75.9442 36.0688 75.5838 36.3117C75.2233 36.5546 74.9429 36.8989 74.7779 37.3011C74.6129 37.7032 74.5708 38.1453 74.6568 38.5714C74.7428 38.9975 74.9531 39.3885 75.2612 39.6952C75.5693 40.0019 75.9613 40.2104 76.3877 40.2945C76.8142 40.3786 77.2561 40.3344 77.6575 40.1676C78.0589 40.0008 78.4019 39.7188 78.6432 39.3573C78.8845 38.9957 79.0133 38.5708 79.0133 38.1361C79.0133 37.8463 78.9561 37.5594 78.8449 37.2919C78.7337 37.0243 78.5707 36.7813 78.3654 36.5769C78.16 36.3725 77.9163 36.2106 77.6483 36.1006C77.3802 35.9907 77.093 35.9347 76.8033 35.9361Z" fill="black"/>
<path d="M3.17267 28.4561C4.38769 28.4561 5.37265 27.4712 5.37265 26.2562C5.37265 25.0411 4.38769 24.0562 3.17267 24.0562C1.95764 24.0562 0.972656 25.0411 0.972656 26.2562C0.972656 27.4712 1.95764 28.4561 3.17267 28.4561Z" fill="black"/>
<path d="M17.9031 28.4561C19.1182 28.4561 20.1031 27.4712 20.1031 26.2562C20.1031 25.0411 19.1182 24.0562 17.9031 24.0562C16.6881 24.0562 15.7031 25.0411 15.7031 26.2562C15.7031 27.4712 16.6881 28.4561 17.9031 28.4561Z" fill="black"/>
<path d="M32.6219 28.4561C33.8369 28.4561 34.8219 27.4712 34.8219 26.2562C34.8219 25.0411 33.8369 24.0562 32.6219 24.0562C31.4068 24.0562 30.4219 25.0411 30.4219 26.2562C30.4219 27.4712 31.4068 28.4561 32.6219 28.4561Z" fill="black"/>
<path d="M47.3524 24.0562C46.9172 24.0562 46.4919 24.1852 46.1301 24.427C45.7683 24.6687 45.4863 25.0123 45.3198 25.4143C45.1533 25.8163 45.1097 26.2586 45.1946 26.6854C45.2795 27.1121 45.489 27.5041 45.7967 27.8118C46.1044 28.1195 46.4964 28.329 46.9232 28.4139C47.3499 28.4988 47.7922 28.4552 48.1942 28.2887C48.5962 28.1222 48.9398 27.8402 49.1816 27.4784C49.4233 27.1167 49.5523 26.6913 49.5523 26.2562C49.5537 25.9669 49.4977 25.6802 49.3876 25.4127C49.2775 25.1452 49.1155 24.9021 48.911 24.6976C48.7064 24.493 48.4633 24.3311 48.1958 24.221C47.9283 24.1109 47.6416 24.0549 47.3524 24.0562Z" fill="black"/>
<path d="M62.0828 24.0562C61.6477 24.0562 61.2224 24.1852 60.8606 24.4269C60.4988 24.6687 60.2168 25.0123 60.0503 25.4143C59.8838 25.8163 59.8402 26.2586 59.9251 26.6854C60.01 27.1121 60.2195 27.5041 60.5272 27.8118C60.8348 28.1195 61.2269 28.329 61.6536 28.4139C62.0804 28.4988 62.5227 28.4552 62.9247 28.2887C63.3267 28.1222 63.6703 27.8402 63.9121 27.4784C64.1538 27.1166 64.2828 26.6913 64.2828 26.2562C64.2828 25.6727 64.051 25.1131 63.6385 24.7005C63.2259 24.288 62.6663 24.0562 62.0828 24.0562Z" fill="black"/>
<path d="M76.8016 28.4561C78.0166 28.4561 79.0016 27.4712 79.0016 26.2562C79.0016 25.0411 78.0166 24.0562 76.8016 24.0562C75.5865 24.0562 74.6016 25.0411 74.6016 26.2562C74.6016 27.4712 75.5865 28.4561 76.8016 28.4561Z" fill="black"/>
<path d="M3.17267 16.5763C4.38769 16.5763 5.37265 15.5913 5.37265 14.3763C5.37265 13.1613 4.38769 12.1763 3.17267 12.1763C1.95764 12.1763 0.972656 13.1613 0.972656 14.3763C0.972656 15.5913 1.95764 16.5763 3.17267 16.5763Z" fill="black"/>
<path d="M17.9031 16.5763C19.1182 16.5763 20.1031 15.5913 20.1031 14.3763C20.1031 13.1613 19.1182 12.1763 17.9031 12.1763C16.6881 12.1763 15.7031 13.1613 15.7031 14.3763C15.7031 15.5913 16.6881 16.5763 17.9031 16.5763Z" fill="black"/>
<path d="M32.6219 16.5763C33.8369 16.5763 34.8219 15.5913 34.8219 14.3763C34.8219 13.1613 33.8369 12.1763 32.6219 12.1763C31.4068 12.1763 30.4219 13.1613 30.4219 14.3763C30.4219 15.5913 31.4068 16.5763 32.6219 16.5763Z" fill="black"/>
<path d="M47.3528 12.166C46.9153 12.1641 46.487 12.292 46.1223 12.5336C45.7575 12.7753 45.4727 13.1197 45.3039 13.5234C45.1351 13.927 45.0899 14.3717 45.1741 14.801C45.2582 15.2304 45.4679 15.6251 45.7765 15.9352C46.0852 16.2452 46.479 16.4567 46.908 16.5428C47.3369 16.6289 47.7818 16.5857 48.1862 16.4188C48.5906 16.2518 48.9364 15.9685 49.1797 15.6049C49.4229 15.2412 49.5528 14.8136 49.5528 14.376C49.5541 14.0863 49.4982 13.7991 49.3882 13.5311C49.2782 13.263 49.1164 13.0193 48.912 12.8139C48.7076 12.6086 48.4646 12.4456 48.197 12.3345C47.9294 12.2233 47.6426 12.166 47.3528 12.166Z" fill="black"/>
<path d="M62.0833 12.166C61.6458 12.1641 61.2175 12.292 60.8528 12.5336C60.488 12.7753 60.2032 13.1197 60.0344 13.5234C59.8656 13.927 59.8204 14.3717 59.9045 14.801C59.9887 15.2304 60.1984 15.6251 60.507 15.9352C60.8157 16.2452 61.2095 16.4567 61.6384 16.5428C62.0674 16.6289 62.5123 16.5857 62.9167 16.4188C63.3211 16.2518 63.6668 15.9685 63.9101 15.6049C64.1534 15.2412 64.2833 14.8136 64.2833 14.376C64.2833 13.7916 64.0518 13.231 63.6395 12.8169C63.2272 12.4027 62.6677 12.1687 62.0833 12.166Z" fill="black"/>
<path d="M76.8016 16.5763C78.0166 16.5763 79.0016 15.5913 79.0016 14.3763C79.0016 13.1613 78.0166 12.1763 76.8016 12.1763C75.5865 12.1763 74.6016 13.1613 74.6016 14.3763C74.6016 15.5913 75.5865 16.5763 76.8016 16.5763Z" fill="black"/>
<path d="M3.17312 0.286155C2.7356 0.284176 2.30735 0.412108 1.94261 0.65374C1.57786 0.895371 1.29304 1.23984 1.12423 1.64349C0.955428 2.04713 0.910239 2.49178 0.99438 2.92113C1.07852 3.35049 1.2882 3.74521 1.59687 4.05529C1.90555 4.36537 2.29931 4.57684 2.72828 4.66293C3.15725 4.74901 3.60212 4.70584 4.00653 4.53887C4.41093 4.3719 4.75668 4.08864 4.99996 3.725C5.24325 3.36135 5.37311 2.93367 5.37312 2.49615C5.37443 2.2064 5.31851 1.91925 5.20854 1.65118C5.09857 1.3831 4.93673 1.13939 4.73231 0.934044C4.52789 0.728694 4.28491 0.565767 4.01734 0.454582C3.74977 0.343397 3.46287 0.286152 3.17312 0.286155Z" fill="black"/>
<path d="M17.9427 0.286155C17.5051 0.284176 17.0769 0.412108 16.7121 0.65374C16.3474 0.895371 16.0626 1.23984 15.8938 1.64349C15.725 2.04713 15.6798 2.49178 15.7639 2.92113C15.8481 3.35049 16.0577 3.74521 16.3664 4.05529C16.6751 4.36537 17.0688 4.57684 17.4978 4.66293C17.9268 4.74901 18.3716 4.70584 18.7761 4.53887C19.1805 4.3719 19.5262 4.08864 19.7695 3.725C20.0128 3.36135 20.1426 2.93367 20.1426 2.49615C20.1427 1.91175 19.9112 1.35114 19.4989 0.936973C19.0866 0.522804 18.527 0.2888 17.9427 0.286155Z" fill="black"/>
<path d="M32.6223 0.286155C32.1848 0.284176 31.7566 0.412108 31.3918 0.65374C31.0271 0.895371 30.7423 1.23984 30.5735 1.64349C30.4046 2.04713 30.3595 2.49178 30.4436 2.92113C30.5277 3.35049 30.7374 3.74521 31.0461 4.05529C31.3548 4.36537 31.7485 4.57684 32.1775 4.66293C32.6065 4.74901 33.0513 4.70584 33.4557 4.53887C33.8602 4.3719 34.2059 4.08864 34.4492 3.725C34.6925 3.36135 34.8223 2.93367 34.8224 2.49615C34.8224 1.91175 34.5909 1.35114 34.1786 0.936973C33.7663 0.522804 33.2067 0.2888 32.6223 0.286155Z" fill="black"/>
<path d="M47.3528 0.286155C46.9153 0.284176 46.487 0.412108 46.1223 0.65374C45.7575 0.895371 45.4727 1.23984 45.3039 1.64349C45.1351 2.04713 45.0899 2.49178 45.1741 2.92113C45.2582 3.35049 45.4679 3.74521 45.7765 4.05529C46.0852 4.36537 46.479 4.57684 46.908 4.66293C47.3369 4.74901 47.7818 4.70584 48.1862 4.53887C48.5906 4.3719 48.9364 4.08864 49.1797 3.725C49.4229 3.36135 49.5528 2.93367 49.5528 2.49615C49.5541 2.2064 49.4982 1.91925 49.3882 1.65118C49.2782 1.3831 49.1164 1.13939 48.912 0.934044C48.7076 0.728694 48.4646 0.565767 48.197 0.454582C47.9294 0.343397 47.6426 0.286152 47.3528 0.286155Z" fill="black"/>
<path d="M62.0833 0.286155C61.6458 0.284176 61.2175 0.412108 60.8528 0.65374C60.488 0.895371 60.2032 1.23984 60.0344 1.64349C59.8656 2.04713 59.8204 2.49178 59.9045 2.92113C59.9887 3.35049 60.1984 3.74521 60.507 4.05529C60.8157 4.36537 61.2095 4.57684 61.6384 4.66293C62.0674 4.74901 62.5123 4.70584 62.9167 4.53887C63.3211 4.3719 63.6668 4.08864 63.9101 3.725C64.1534 3.36135 64.2833 2.93367 64.2833 2.49615C64.2833 1.91175 64.0518 1.35114 63.6395 0.936973C63.2272 0.522804 62.6677 0.2888 62.0833 0.286155Z" fill="black"/>
<path d="M76.8037 0.286133C76.3666 0.286133 75.9394 0.415762 75.5759 0.6586C75.2125 0.901438 74.9292 1.2466 74.762 1.65042C74.5947 2.05425 74.5509 2.49858 74.6362 2.92728C74.7215 3.35597 74.932 3.74976 75.241 4.05884C75.5501 4.36791 75.9439 4.57839 76.3726 4.66367C76.8013 4.74894 77.2456 4.70517 77.6495 4.5379C78.0533 4.37063 78.3984 4.08737 78.6413 3.72394C78.8841 3.36051 79.0137 2.93322 79.0137 2.49612C79.0137 1.91 78.7809 1.3479 78.3664 0.933441C77.952 0.518986 77.3899 0.286133 76.8037 0.286133Z" fill="black"/>
</svg>
