<svg width="71" height="57" viewBox="0 0 71 57" fill="none" xmlns="http://www.w3.org/2000/svg">
<mask id="path-1-inside-1_408_9123" fill="white">
<path d="M5.61046 0.234417C0.674638 8.78352 -0.662913 18.9432 1.89206 28.4785C4.44703 38.0138 10.6852 46.1436 19.2343 51.0794C27.7834 56.0152 37.9431 57.3528 47.4784 54.7978C57.0137 52.2428 65.1435 46.0046 70.0793 37.4555L37.8449 18.845L5.61046 0.234417Z"/>
</mask>
<path d="M5.61046 0.234417C0.674638 8.78352 -0.662913 18.9432 1.89206 28.4785C4.44703 38.0138 10.6852 46.1436 19.2343 51.0794C27.7834 56.0152 37.9431 57.3528 47.4784 54.7978C57.0137 52.2428 65.1435 46.0046 70.0793 37.4555L37.8449 18.845L5.61046 0.234417Z" stroke="#FFCC02" stroke-width="10" mask="url(#path-1-inside-1_408_9123)"/>
</svg>
