<svg width="52" height="71" viewBox="0 0 52 71" fill="none" xmlns="http://www.w3.org/2000/svg">
<path d="M48.0264 10.9618C46.3538 9.86535 45.1105 8.239 44.502 6.3514L44.4247 6.1115C44.0619 4.98604 43.0021 4.22168 41.8045 4.22168H10.1951C8.99758 4.22168 7.93783 4.98604 7.57501 6.1115L7.49767 6.3514C6.88919 8.23886 5.64606 9.86521 3.97347 10.9617C3.20692 11.4642 2.74609 12.3118 2.74609 13.2194V60.9357C2.74609 61.8435 3.20678 62.691 3.97333 63.1934C5.64592 64.2899 6.88919 65.9162 7.49753 67.8037L7.57487 68.0436C7.93769 69.1691 8.99744 69.9334 10.195 69.9334H41.8045C43.0021 69.9334 44.0619 69.1691 44.4247 68.0436L44.502 67.8037C45.1105 65.9162 46.3536 64.2898 48.0262 63.1934C48.7928 62.6909 49.2534 61.8433 49.2534 60.9357V13.2197C49.2537 12.3119 48.793 11.4644 48.0264 10.9618Z" fill="#FFCC02"/>
<path d="M48.027 10.9618C46.3544 9.86535 45.111 8.239 44.5026 6.3514L44.4253 6.1115C44.0625 4.98604 43.0027 4.22168 41.8051 4.22168H35.0508C36.2483 4.22168 37.3081 4.98618 37.6709 6.1115L37.7483 6.3514C38.3567 8.239 39.6 9.86535 41.2726 10.9618C42.0391 11.4644 42.4998 12.3119 42.4998 13.2195V60.9358C42.4998 61.8436 42.0391 62.6912 41.2726 63.1937C39.6 64.2902 38.3567 65.9165 37.7483 67.804L37.6709 68.0439C37.3081 69.1693 36.2483 69.9337 35.0508 69.9337H41.8051C43.0027 69.9337 44.0626 69.1692 44.4253 68.0439L44.5026 67.804C45.1111 65.9165 46.3542 64.2902 48.0268 63.1937C48.7934 62.6912 49.254 61.8436 49.254 60.9358V13.2197C49.2543 12.3119 48.7936 11.4644 48.027 10.9618Z" fill="#FFBB00"/>
<path d="M2.88281 61.7842C3.07308 62.3533 3.45164 62.8528 3.97139 63.1935C5.64398 64.29 6.88725 65.9163 7.49559 67.8038L7.57294 68.0437C7.93575 69.1692 8.9955 69.9335 10.1931 69.9335H41.8026C43.0002 69.9335 44.0601 69.1692 44.4227 68.0437L44.5001 67.8038C45.1086 65.9163 46.3517 64.2898 48.0243 63.1935C48.544 62.8528 48.9225 62.3533 49.1129 61.7842H2.88281Z" fill="#E5EBF6"/>
<path d="M48.2421 63.0357C48.2837 63.0023 48.3242 62.9676 48.3636 62.932C48.3764 62.9205 48.3893 62.9091 48.402 62.8973C48.4526 62.8496 48.5017 62.8006 48.5484 62.7495C48.5508 62.747 48.5528 62.7442 48.5551 62.7417C48.5994 62.6928 48.6415 62.642 48.682 62.5903C48.6913 62.5784 48.7003 62.5664 48.7093 62.5544C48.746 62.5057 48.7811 62.456 48.8143 62.4052C48.819 62.3981 48.8237 62.3913 48.8282 62.3842C48.8673 62.3232 48.904 62.2609 48.9381 62.1971C48.9385 62.1965 48.9388 62.1958 48.939 62.1951C48.9715 62.1339 49.0012 62.0714 49.0289 62.008C49.033 61.9987 49.0371 61.9893 49.041 61.9798C49.0681 61.9156 49.0935 61.8505 49.1157 61.7842H42.3612C42.1709 62.3533 41.7923 62.8528 41.2726 63.1935C39.6 64.29 38.3567 65.9163 37.7482 67.8038L37.6709 68.0437C37.3081 69.1692 36.2483 69.9335 35.0508 69.9335H41.8051C41.9549 69.9335 42.1024 69.9216 42.2467 69.8984C42.391 69.8754 42.532 69.841 42.6687 69.7965C42.7371 69.7742 42.8043 69.7494 42.8704 69.7219C43.0024 69.6671 43.1297 69.6024 43.2509 69.5284C43.3115 69.4914 43.3707 69.4522 43.4282 69.4107C43.8307 69.1205 44.1533 68.7223 44.3492 68.2504C44.3772 68.1831 44.4026 68.1141 44.4253 68.0438L44.5026 67.8039C44.6927 67.214 44.9449 66.6498 45.2527 66.1191C45.4375 65.8007 45.6422 65.4945 45.8657 65.202C45.9402 65.1045 46.0167 65.0087 46.0953 64.9144C46.4098 64.5372 46.7565 64.1858 47.1327 63.8644C47.4148 63.6234 47.7134 63.3992 48.027 63.1935C48.0855 63.1552 48.1414 63.1142 48.1963 63.072C48.2117 63.0602 48.2268 63.0479 48.2421 63.0357Z" fill="#D1DCED"/>
<path d="M25.998 52.8744C34.0309 52.8744 40.5428 44.2438 40.5428 33.5976C40.5428 22.9513 34.0309 14.3208 25.998 14.3208C17.9651 14.3208 11.4531 22.9513 11.4531 33.5976C11.4531 44.2438 17.9651 52.8744 25.998 52.8744Z" fill="#FE4F60"/>
<path opacity="0.2" d="M26 14.3208C24.8493 14.3208 23.7299 14.4987 22.6562 14.8335C29.077 16.8356 33.857 24.4763 33.857 33.5972C33.857 42.718 29.077 50.3586 22.6562 52.3609C23.7299 52.6956 24.8493 52.8735 26 52.8735C34.0328 52.8735 40.5446 44.2431 40.5446 33.5972C40.5446 22.951 34.0328 14.3208 26 14.3208Z" fill="white"/>
<path d="M40.3194 38.9231H11.678C10.3456 38.9231 9.26562 37.858 9.26562 36.5442V30.6494C9.26562 29.3355 10.3458 28.2705 11.678 28.2705H40.3193C41.6517 28.2705 42.7317 29.3356 42.7317 30.6494V36.5442C42.7318 37.8581 41.6517 38.9231 40.3194 38.9231Z" fill="white"/>
<path d="M40.319 28.2705H36.0703V38.9231H40.319C41.6514 38.9231 42.7314 37.858 42.7314 36.5442V30.6494C42.7316 29.3356 41.6514 28.2705 40.319 28.2705Z" fill="#F4F2ED"/>
<path d="M45.7729 5.05343H6.22662C5.58158 5.05343 5.05859 4.53771 5.05859 3.90162V2.21773C5.05859 1.58164 5.58158 1.06592 6.22662 1.06592H45.7728C46.4178 1.06592 46.9408 1.58164 46.9408 2.21773V3.90162C46.9409 4.53771 46.418 5.05343 45.7729 5.05343Z" fill="#FFBF14"/>
<path d="M45.774 1.06592H40.1875V5.05343H45.774C46.419 5.05343 46.942 4.53771 46.942 3.90162V2.21787C46.942 1.58164 46.419 1.06592 45.774 1.06592Z" fill="#EDA60A"/>
<path d="M19.4988 33.3389C19.9564 33.1431 20.2328 32.6918 20.2328 32.002C20.2328 30.7928 19.3693 30.4863 18.5057 30.4863H16.7355C16.4419 30.4863 16.1484 30.6225 16.1484 30.895V36.3107C16.1484 36.5235 16.3729 36.7109 16.7355 36.7109H18.6525C19.6283 36.7109 20.3881 36.2255 20.3881 34.8801V34.7014C20.3881 33.85 20.0255 33.5349 19.4988 33.3389ZM17.4868 31.6445H18.3934C18.7215 31.6445 18.8857 31.9425 18.8857 32.2405C18.8857 32.5301 18.7216 32.8281 18.3934 32.8281H17.4868V31.6445ZM19.0411 34.7695C19.0411 35.3145 18.7819 35.5528 18.3502 35.5528H17.4868V33.8498H18.3502C18.7819 33.8498 19.0411 34.0542 19.0411 34.6332V34.7695Z" fill="black"/>
<path d="M25.1846 31.6445C25.4438 31.6445 25.5905 31.372 25.5905 31.057C25.5905 30.7845 25.4697 30.4863 25.1846 30.4863H22.1105C21.8169 30.4863 21.5234 30.6225 21.5234 30.895V36.3022C21.5234 36.5747 21.8169 36.7109 22.1105 36.7109H25.1846C25.4697 36.7109 25.5905 36.4129 25.5905 36.1404C25.5905 35.8253 25.4438 35.5528 25.1846 35.5528H22.8703V34.1054H24.1656C24.4505 34.1054 24.5715 33.8329 24.5715 33.603C24.5715 33.3305 24.4247 33.0835 24.1656 33.0835H22.8703V31.6445H25.1846Z" fill="black"/>
<path d="M30.2705 31.6445C30.5297 31.6445 30.6764 31.372 30.6764 31.057C30.6764 30.7845 30.5556 30.4863 30.2705 30.4863H27.1965C26.9029 30.4863 26.6094 30.6225 26.6094 30.895V36.3022C26.6094 36.5747 26.9029 36.7109 27.1965 36.7109H30.2705C30.5556 36.7109 30.6764 36.4129 30.6764 36.1404C30.6764 35.8253 30.5297 35.5528 30.2705 35.5528H27.9563V34.1054H29.2516C29.5365 34.1054 29.6574 33.8329 29.6574 33.603C29.6574 33.3305 29.5106 33.0835 29.2516 33.0835H27.9563V31.6445H30.2705Z" fill="black"/>
<path d="M34.9767 34.0372C35.5811 33.8072 36.0215 33.2623 36.0215 32.3086C36.0215 30.9205 35.0802 30.4863 33.8972 30.4863H32.1097C31.8593 30.4863 31.6953 30.6737 31.6953 30.8865V36.3022C31.6953 36.5747 32.032 36.7109 32.3688 36.7109C32.7056 36.7109 33.0424 36.5747 33.0424 36.3022V34.25H33.6123L34.7953 36.5151C34.8903 36.694 35.0543 36.7621 35.227 36.7621C35.6242 36.7621 36.0733 36.4044 36.0733 36.0723C36.0733 36.0297 36.0647 35.9701 36.0301 35.9191L34.9767 34.0372ZM33.8972 33.2283H33.0424V31.6445H33.8972C34.3807 31.6445 34.6745 31.8403 34.6745 32.4365C34.6745 33.0325 34.3808 33.2283 33.8972 33.2283Z" fill="black"/>
<path d="M48.6242 10.0741C47.189 9.13321 46.1059 7.73123 45.5631 6.11959H45.7721C47.0123 6.11959 48.0212 5.12462 48.0212 3.90167V2.21792C48.0212 0.994971 47.0123 0 45.7721 0H6.22608C4.98591 0 3.97692 0.994971 3.97692 2.21792V3.90181C3.97692 5.12476 4.98591 6.11973 6.22608 6.11973H6.43491C5.89223 7.73137 4.80914 9.13335 3.37392 10.0742C2.3032 10.7762 1.66406 11.952 1.66406 13.2197V60.936C1.66406 61.9884 2.10577 62.9767 2.86781 63.6838C2.87484 63.6903 2.88216 63.6967 2.88933 63.7032C2.95289 63.7613 3.01856 63.8172 3.08649 63.8713C3.10308 63.8846 3.11953 63.8981 3.13641 63.9111C3.21333 63.9703 3.29194 64.0277 3.37392 64.0815C3.64814 64.2612 3.90942 64.4577 4.15678 64.6695C5.2282 65.5865 6.03427 66.7863 6.46655 68.1274L6.54389 68.367C6.95634 69.6467 8.00203 70.5851 9.27863 70.892C9.57323 70.9628 9.88008 71 10.1942 71H41.8038H41.8039C43.0179 71 44.1203 70.4428 44.8296 69.5381C44.9771 69.3501 45.1096 69.1489 45.2203 68.9325C45.2243 68.9245 45.2276 68.916 45.2317 68.908C45.3184 68.7356 45.3935 68.5554 45.4541 68.3673L45.5317 68.1271C45.6315 67.8178 45.7511 67.5159 45.8894 67.2231C45.9815 67.028 46.0819 66.8371 46.1902 66.6507C46.7857 65.6256 47.6189 64.7406 48.6242 64.0817C48.7062 64.0279 48.7848 63.9704 48.8616 63.9114C48.8785 63.8983 48.8949 63.8849 48.9117 63.8714C48.9793 63.8175 49.0448 63.7616 49.1083 63.7038C49.1156 63.6971 49.123 63.6906 49.1303 63.6838C49.8925 62.9766 50.3341 61.9884 50.3341 60.936V13.2197C50.3341 11.952 49.6948 10.7761 48.6242 10.0741ZM46.4957 63.0007C46.4686 63.0235 46.4408 63.0456 46.4139 63.0687C46.3156 63.1531 46.219 63.2394 46.1242 63.3274C46.102 63.3479 46.0808 63.3694 46.0588 63.3902C45.9865 63.4587 45.9148 63.5278 45.8446 63.5984C45.8116 63.6317 45.7795 63.6656 45.747 63.6992C45.6891 63.7592 45.6315 63.8196 45.5751 63.881C45.5409 63.9182 45.5073 63.9559 45.4737 63.9936C45.4202 64.0536 45.3674 64.1144 45.3155 64.1757C45.2827 64.2144 45.2501 64.2532 45.2179 64.2924C45.1656 64.3561 45.1144 64.4207 45.0638 64.4856C45.0345 64.5231 45.005 64.5604 44.9763 64.5982C44.9206 64.6718 44.8663 64.7466 44.8127 64.8219C44.7912 64.8521 44.7689 64.8818 44.7478 64.9122C44.6737 65.0185 44.6014 65.1263 44.5315 65.2354C44.523 65.2487 44.5152 65.2623 44.5067 65.2756C44.446 65.3716 44.3868 65.4685 44.3294 65.5666C44.308 65.6032 44.2878 65.6403 44.2668 65.6771C44.2237 65.7531 44.181 65.8293 44.14 65.9064C44.1172 65.9492 44.0953 65.9923 44.0732 66.0353C44.0356 66.1084 43.9989 66.1817 43.9632 66.2558C43.9416 66.3005 43.9203 66.3455 43.8994 66.3907C43.8646 66.4656 43.8313 66.5409 43.7985 66.6167C43.7794 66.6608 43.7602 66.7049 43.7417 66.7493C43.7076 66.8315 43.6752 66.9146 43.6434 66.9978C43.6288 67.0362 43.6133 67.0742 43.5991 67.1126C43.5543 67.2345 43.5114 67.3571 43.4716 67.4808L43.394 67.721C43.3663 67.8067 43.3322 67.8889 43.2922 67.9671C43.0117 68.5149 42.4428 68.8676 41.8041 68.8676H10.1942C10.103 68.8676 10.0133 68.8604 9.9255 68.8466C9.44288 68.7699 9.02255 68.4893 8.77069 68.0814C8.70206 67.9703 8.64595 67.8496 8.60461 67.7212L8.52713 67.4811C8.48677 67.3561 8.44345 67.2323 8.39817 67.1093C8.38594 67.0761 8.37272 67.0435 8.36006 67.0105C8.32631 66.9221 8.29186 66.8337 8.25558 66.7464C8.23828 66.7046 8.22014 66.6635 8.20228 66.622C8.16839 66.5435 8.1338 66.4656 8.09794 66.3881C8.07783 66.3447 8.0573 66.3014 8.03649 66.2583C8.00006 66.1827 7.96252 66.1077 7.92413 66.0329C7.90261 65.991 7.88123 65.9492 7.85916 65.9076C7.81753 65.8293 7.77422 65.752 7.73048 65.6749C7.71009 65.6389 7.69027 65.6026 7.66945 65.567C7.61152 65.4678 7.55161 65.3698 7.49016 65.2727C7.48242 65.2604 7.47511 65.2477 7.46724 65.2355C7.39734 65.1263 7.32492 65.0184 7.25081 64.912C7.22958 64.8815 7.20722 64.8517 7.18556 64.8213C7.13212 64.7465 7.07813 64.672 7.02258 64.5986C6.99347 64.5602 6.96352 64.5225 6.93384 64.4845C6.88364 64.4202 6.83288 64.3562 6.78113 64.2931C6.74864 64.2535 6.71559 64.2142 6.68241 64.1751C6.6308 64.1143 6.57848 64.0541 6.52533 63.9944C6.49144 63.9563 6.45755 63.9182 6.42295 63.8806C6.36698 63.8196 6.30975 63.7597 6.25224 63.7002C6.21933 63.6661 6.18684 63.6317 6.15352 63.5981C6.08405 63.5282 6.01303 63.4597 5.94131 63.3919C5.91867 63.3705 5.89688 63.3485 5.87409 63.3273C5.77945 63.2392 5.68284 63.1531 5.58469 63.0688C5.55769 63.0456 5.52984 63.0235 5.50256 63.0006C5.44266 62.9502 5.38303 62.8995 5.32186 62.8505H46.6766C46.6153 62.8995 46.5556 62.9502 46.4957 63.0007ZM48.1718 60.7184H3.82631V13.2197C3.82631 12.6677 4.10475 12.1554 4.57106 11.8496C6.44166 10.6234 7.84664 8.78542 8.52684 6.67483L8.60447 6.43465C8.64019 6.32385 8.68842 6.21916 8.74622 6.11959H12.0173C12.6144 6.11959 13.0984 5.64228 13.0984 5.05348C13.0984 4.46468 12.6145 3.98737 12.0173 3.98737H6.22608C6.17813 3.98737 6.13903 3.94896 6.13903 3.90167V2.21792C6.13903 2.17063 6.17798 2.13222 6.22608 2.13222H45.7721C45.82 2.13222 45.8591 2.17063 45.8591 2.21792V3.90181C45.8591 3.9491 45.8202 3.98751 45.7721 3.98751H17.0475C16.4504 3.98751 15.9663 4.46482 15.9663 5.05362C15.9663 5.64242 16.4502 6.11973 17.0475 6.11973H43.2521C43.3097 6.21916 43.358 6.32385 43.3935 6.43451L43.471 6.67455C44.1517 8.78556 45.5566 10.6235 47.4271 11.8496C47.8934 12.1554 48.1718 12.6675 48.1718 13.2196V60.7184Z" fill="black"/>
<path d="M40.8519 27.2445C39.89 23.4308 38.0439 20.0057 35.6029 17.5318C32.8422 14.7338 29.5221 13.2549 26.0017 13.2549C22.4813 13.2549 19.1613 14.7338 16.4004 17.5318C13.9595 20.0057 12.1133 23.4306 11.1515 27.2445C9.47548 27.4969 8.1875 28.9279 8.1875 30.65V36.5448C8.1875 38.2669 9.47548 39.6979 11.1515 39.9503C12.1133 43.7641 13.9595 47.1891 16.4004 49.663C19.1613 52.461 22.4812 53.94 26.0017 53.94C29.5223 53.94 32.8422 52.461 35.603 49.663C38.044 47.1891 39.8901 43.7642 40.852 39.9503C42.528 39.6979 43.816 38.267 43.816 36.5448V30.65C43.8158 28.9279 42.5278 27.4969 40.8519 27.2445ZM26.0017 51.8076C20.399 51.8076 15.3519 47.0115 13.3957 39.9897H38.6078C36.6515 47.0115 31.6045 51.8076 26.0017 51.8076ZM41.6537 36.5447C41.6537 37.2686 41.0565 37.8575 40.3224 37.8575H11.6813C10.9473 37.8575 10.35 37.2686 10.35 36.5447V30.6499C10.35 29.926 10.9473 29.3369 11.6813 29.3369C11.6806 29.3369 11.682 29.3369 11.6813 29.3369H31.3438C31.9409 29.3369 32.4249 28.8596 32.4249 28.2708C32.4249 27.682 31.941 27.2047 31.3438 27.2047H13.3977C15.354 20.1836 20.3994 15.3868 26.0017 15.3868C31.6041 15.3868 36.6494 20.1836 38.6058 27.2047H36.3801C35.783 27.2047 35.299 27.682 35.299 28.2708C35.299 28.8596 35.7829 29.3369 36.3801 29.3369H40.3223C40.3231 29.3369 40.3223 29.3369 40.3231 29.3369C40.3244 29.3369 40.3209 29.3369 40.3223 29.3369C41.0563 29.3369 41.6536 29.9259 41.6536 30.6499V36.5447H41.6537Z" fill="black"/>
</svg>
