<svg width="76" height="76" viewBox="0 0 76 76" fill="none" xmlns="http://www.w3.org/2000/svg">
<g clip-path="url(#clip0_391_1258)">
<path d="M74.6632 52.6988C74.6632 54.9119 72.8676 56.7075 70.6544 56.7075H14.3643C12.1511 56.7075 10.3555 54.9119 10.3555 52.6988V16.6196C10.3555 14.4064 12.1511 12.6108 14.3643 12.6108H46.6016C48.8148 12.6108 50.6104 14.4064 50.6104 16.6196V31.3185H58.795V38.5009C58.795 40.7141 60.5906 42.5097 62.8038 42.5097H74.5713C74.6979 43.1697 74.6632 42.6975 74.6632 52.6988Z" fill="#FFAA64"/>
<path d="M74.6621 52.6991C74.6621 54.9123 72.8665 56.7079 70.6533 56.7079H50.6094V31.3188H64.6568C66.4224 31.3188 68.076 32.1924 69.0715 33.6506L73.7318 40.4789C74.151 41.0936 74.4366 41.7868 74.5703 42.5101C74.6969 43.17 74.6621 42.6978 74.6621 52.6991Z" fill="#FE4F60"/>
<path d="M74.5731 42.5101H62.8057C60.5925 42.5101 58.7969 40.7145 58.7969 38.5013V31.3188H64.6597C66.4253 31.3188 68.0789 32.1924 69.0744 33.6506L73.7346 40.4789C74.1539 41.0936 74.4395 41.7868 74.5731 42.5101Z" fill="#E8F8FC"/>
<path d="M46.5911 19.2922H34.7005C24.9451 19.2922 17.0368 27.2005 17.0368 36.9559V52.6882C17.0368 57.0428 10.3555 57.2517 10.3555 52.6988V16.6196C10.3555 14.4056 12.1502 12.6108 14.3643 12.6108H46.6016C51.1546 12.6108 50.9457 19.2922 46.5911 19.2922Z" fill="#FFBD7B"/>
<path d="M63.4743 63.389C67.1643 63.389 70.1556 60.3977 70.1556 56.7077C70.1556 53.0177 67.1643 50.0264 63.4743 50.0264C59.7843 50.0264 56.793 53.0177 56.793 56.7077C56.793 60.3977 59.7843 63.389 63.4743 63.389Z" fill="#42434D"/>
<path d="M23.3844 63.389C27.0744 63.389 30.0658 60.3977 30.0658 56.7077C30.0658 53.0177 27.0744 50.0264 23.3844 50.0264C19.6945 50.0264 16.7031 53.0177 16.7031 56.7077C16.7031 60.3977 19.6945 63.389 23.3844 63.389Z" fill="#42434D"/>
<path d="M74.5729 42.5099C74.5363 42.5099 62.7961 42.5101 62.7596 42.5096C61.255 42.4927 60.9589 40.3577 62.3963 39.9127C64.8283 39.16 66.7721 37.5722 68.0474 35.4583C68.544 34.6351 69.7319 34.6136 70.2738 35.4075C73.9828 40.8427 74.3096 41.0856 74.5729 42.5099Z" fill="#D6F4FC"/>
<path d="M50.6094 31.3188H53.3237V56.7079H50.6094V31.3188Z" fill="#E84857"/>
<path d="M66.2101 53.373C63.0538 53.6675 60.4346 56.2878 60.1401 59.4437C60.0193 60.7384 58.3189 61.1511 57.6725 60.0228C57.0482 58.9327 56.7221 57.6497 56.806 56.2858C57.1053 51.4172 62.4764 48.4359 66.789 50.9056C67.9175 51.5517 67.5046 53.2523 66.2101 53.373Z" fill="#585966"/>
<path d="M26.1202 53.373C22.964 53.6675 20.3447 56.2878 20.0503 59.4437C19.9295 60.7384 18.2291 61.1511 17.5827 60.0228C16.9583 58.9327 16.6323 57.6497 16.7161 56.2858C17.0154 51.4172 22.3865 48.4359 26.6992 50.9056C27.8276 51.5517 27.4147 53.2523 26.1202 53.373Z" fill="#585966"/>
<path d="M74.8371 39.7256L70.1766 32.8975C68.931 31.0723 66.8678 29.9826 64.6581 29.9826H55.622C54.884 29.9826 54.2857 30.5809 54.2857 31.3189C54.2857 32.0568 54.884 32.6551 55.622 32.6551H57.4593V38.5013C57.4593 41.4486 59.8571 43.8463 62.8044 43.8463H66.8132C67.5511 43.8463 68.1495 43.248 68.1495 42.5101C68.1495 41.7721 67.5511 41.1738 66.8132 41.1738H62.8044C61.3308 41.1738 60.1319 39.9748 60.1319 38.5013V32.6551H64.6581C65.984 32.6551 67.2219 33.3089 67.9692 34.4041L72.6296 41.2321C73.0861 41.9011 73.3275 42.6826 73.3275 43.4922V55.3716H71.3767C70.7385 51.5848 67.4382 48.6903 63.4725 48.6903C59.0515 48.6903 55.4549 52.287 55.4549 56.7079C55.4549 61.1287 59.0515 64.7255 63.4725 64.7255C67.4381 64.7255 70.7385 61.8309 71.3767 58.0441H74.6637C75.4017 58.0441 76 57.4458 76 56.7079V43.4922C76 42.1429 75.598 40.8404 74.8371 39.7256ZM63.4725 62.0529C60.5252 62.0529 58.1275 59.6552 58.1275 56.7079C58.1275 53.7606 60.5252 51.3628 63.4725 51.3628C66.4198 51.3628 68.8176 53.7606 68.8176 56.7079C68.8176 59.6552 66.4198 62.0529 63.4725 62.0529ZM51.9473 16.62V49.6925C51.9473 50.4304 51.3489 51.0288 50.611 51.0288C49.873 51.0288 49.2747 50.4304 49.2747 49.6925V16.62C49.2747 15.1464 48.0758 13.9474 46.6022 13.9474H14.3648C12.8913 13.9474 11.6923 15.1464 11.6923 16.62V18.4573H17.2044C17.9423 18.4573 18.5407 19.0556 18.5407 19.7936C18.5407 20.5315 17.9423 21.1298 17.2044 21.1298H1.33626C0.598312 21.1298 0 20.5315 0 19.7936C0 19.0556 0.598312 18.4573 1.33626 18.4573H9.01978V16.62C9.01978 13.6727 11.4175 11.2749 14.3648 11.2749H46.6022C49.5495 11.2749 51.9473 13.6727 51.9473 16.62ZM47.7714 55.3716H31.2888C30.6506 51.5848 27.3503 48.6903 23.3846 48.6903C18.9636 48.6903 15.367 52.287 15.367 56.7079C15.367 61.1287 18.9636 64.7255 23.3846 64.7255C27.3501 64.7255 30.6506 61.8309 31.2888 58.0441H47.7714C48.5094 58.0441 49.1077 57.4458 49.1077 56.7079C49.1077 55.9699 48.5094 55.3716 47.7714 55.3716ZM23.3846 62.0529C20.4373 62.0529 18.0396 59.6552 18.0396 56.7079C18.0396 53.7606 20.4373 51.3628 23.3846 51.3628C26.3319 51.3628 28.7297 53.7606 28.7297 56.7079C28.7297 59.6552 26.3319 62.0529 23.3846 62.0529ZM5.01099 28.1452C5.01099 27.4073 5.6093 26.809 6.34725 26.809H17.2044C17.9423 26.809 18.5407 27.4073 18.5407 28.1452C18.5407 28.8832 17.9423 29.4815 17.2044 29.4815H6.34725C5.6093 29.4815 5.01099 28.8832 5.01099 28.1452ZM17.8725 37.8331H12.249C11.5111 37.8331 10.9128 37.2348 10.9128 36.4969C10.9128 35.7589 11.5111 35.1606 12.249 35.1606H17.8725C18.6105 35.1606 19.2088 35.7589 19.2088 36.4969C19.2088 37.2348 18.6105 37.8331 17.8725 37.8331ZM3.00659 35.1606H5.1224C5.86035 35.1606 6.45866 35.7589 6.45866 36.4969C6.45866 37.2348 5.86035 37.8331 5.1224 37.8331H3.00659C2.26864 37.8331 1.67033 37.2348 1.67033 36.4969C1.67033 35.7589 2.26864 35.1606 3.00659 35.1606ZM11.6923 44.8485V56.7079C11.6923 57.4458 11.094 58.0441 10.356 58.0441C9.61809 58.0441 9.01978 57.4458 9.01978 56.7079V46.1848H1.33626C0.598312 46.1848 0 45.5865 0 44.8485C0 44.1106 0.598312 43.5123 1.33626 43.5123H10.356C11.094 43.5123 11.6923 44.1106 11.6923 44.8485ZM21.2132 43.5123C21.9511 43.5123 22.5495 44.1106 22.5495 44.8485C22.5495 45.5865 21.9511 46.1848 21.2132 46.1848H17.3714C16.6335 46.1848 16.0352 45.5865 16.0352 44.8485C16.0352 44.1106 16.6335 43.5123 17.3714 43.5123H21.2132ZM21.8813 28.1452C21.8813 27.4073 22.4796 26.809 23.2176 26.809H25.222C25.9599 26.809 26.5582 27.4073 26.5582 28.1452C26.5582 28.8832 25.9599 29.4815 25.222 29.4815H23.2176C22.4796 29.4815 21.8813 28.8832 21.8813 28.1452Z" fill="black"/>
</g>
<defs>
<clipPath id="clip0_391_1258">
<rect width="76" height="76" fill="white"/>
</clipPath>
</defs>
</svg>
