<svg width="152" height="123" viewBox="0 0 152 123" fill="none" xmlns="http://www.w3.org/2000/svg">
<g clip-path="url(#clip0_444_5020)">
<path d="M81.4723 1.1703C79.1694 1.93794 76.4871 4.29568 75.7014 6.18737C75.2407 7.33882 75.0511 7.31143 74.6446 6.15997C74.2112 4.98109 72.2061 3.0894 70.6076 2.37659C69.7946 2.02019 68.7651 1.82828 67.573 1.82828C63.6986 1.80086 60.3389 4.40534 59.7968 7.85974L59.6072 9.01119L58.6317 8.8193C55.272 8.16132 52.1835 9.77882 51.1266 12.7946C50.6932 14.0009 50.6389 15.7006 51.0184 16.4135C51.2349 16.8521 51.0723 17.0166 49.5824 17.7294C47.1979 18.8808 45.7619 20.2242 44.7324 22.3901C43.9468 24.0076 43.8381 24.4737 43.8381 26.4202C43.8381 28.2845 43.9737 28.8602 44.6781 30.3955C45.1389 31.3824 45.8975 32.5887 46.3579 33.1096C46.8457 33.6031 47.2252 34.0692 47.2252 34.124C47.2252 34.1788 46.5205 34.4256 45.6806 34.6723C44.8137 34.9191 43.7568 35.3851 43.3234 35.6867C41.6705 36.8657 40.4514 41.1426 39.8824 47.8591L39.5302 51.7524L37.5522 52.4651C34.8428 53.4246 32.4585 54.9051 30.8329 56.5776C29.6407 57.8386 29.0988 58.1402 26.4165 59.1545C24.7095 59.7851 22.271 60.5254 20.9976 60.7994C18.0172 61.4576 17.4482 61.6768 16.5541 62.6363C14.0885 65.2958 15.389 69.4903 19.4261 71.7932C20.1848 72.2319 21.4311 73.2189 22.1626 73.9864L23.5174 75.3846V77.7698C23.5174 79.086 23.409 81.142 23.2735 82.3482C23.0839 84.4043 23.0839 84.5963 23.707 85.5009C24.6282 86.8719 26.1184 87.5298 28.2589 87.5026C30.4265 87.475 35.141 86.3508 38.4194 85.0898C39.7741 84.5691 42.6191 83.5545 44.7867 82.8142C46.954 82.0743 49.6907 81.0324 50.8558 80.4566C53.3482 79.3051 54.6219 79.1132 63.6173 78.6197C70.6345 78.2361 82.3122 78.4277 89.2216 79.0584C95.372 79.6067 103.798 80.7857 104.665 81.2244C105.045 81.416 106.562 82.2111 108.052 82.9513C112.902 85.4461 116.181 86.5976 120.543 87.3106C125.203 88.0781 127.452 87.4202 128.725 84.9526C129.321 83.8012 129.348 83.4997 129.186 80.7033C129.105 79.0308 129.132 77.4134 129.24 77.0843C129.348 76.7555 130.568 75.3026 131.922 73.8768C135.092 70.587 136.501 67.9826 136.501 65.323C136.501 63.3766 135.987 62.4443 134.442 61.5124C133.71 61.0737 132.817 60.9366 129.972 60.7994C125.826 60.6074 124.2 60.0319 123.171 58.3594C121.572 55.8098 121.518 55.7826 115.368 53.6714L111.574 52.3828L111.493 50.9298C111.276 45.8578 109.759 38.3187 108.621 36.5641C108.35 36.1526 107.483 35.5223 106.643 35.1384C105.37 34.5352 105.18 34.3708 105.343 33.8498C106.237 30.889 106.155 28.449 105.099 26.3379C104.449 25.0494 102.471 22.9932 101.847 22.9932C100.899 22.9658 100.872 22.5272 101.685 20.9645C102.958 18.4696 102.742 16.0845 100.981 13.7541C99.382 11.6431 95.8597 10.9303 93.6921 12.3011L92.6083 12.9865L93.8547 13.151C98.2982 13.809 100.764 18.031 99.0025 22.0337C98.6773 22.7465 98.4335 23.377 98.4335 23.4319C98.4335 23.4867 98.9212 23.3496 99.5446 23.1029C100.628 22.6368 100.628 22.6368 101.631 23.4593C103.229 24.7752 103.988 26.5573 103.988 29.0247C103.988 30.7245 103.88 31.3002 103.283 32.3146C102.877 33.0274 102.444 33.5209 102.2 33.466C101.983 33.4112 100.899 33.137 99.7881 32.8629C94.7216 31.5743 88.5169 30.5874 82.746 30.1213C80.741 29.9842 79.0068 29.8472 78.8986 29.8472C78.7899 29.8472 78.6274 29.6278 78.5734 29.3537C78.4921 29.1069 78.4378 30.697 78.4108 32.8903C78.3838 35.5223 78.2482 37.3316 77.9773 38.2363C76.704 42.486 71.5831 43.8018 68.4399 40.6491C66.9227 39.1137 66.4622 37.4688 66.2723 33.1919C66.191 31.3276 66.0284 29.9294 65.9475 30.0665C65.8662 30.231 63.8881 30.6696 61.5853 31.0809C59.282 31.4647 56.0579 32.0952 54.405 32.4517L51.4518 33.137L50.5306 32.2597C50.0428 31.7663 49.3385 30.7245 48.932 29.9294C47.4148 26.7766 48.2547 23.1303 51.0184 20.8C52.4543 19.5937 56.1392 17.5101 56.9248 17.4827C57.9273 17.4552 55.9493 16.9069 54.2155 16.7424L52.373 16.5505L53.0234 15.1797C54.5407 11.9173 57.9004 10.6013 61.0162 12.0269C61.6665 12.3285 62.2626 12.5204 62.3439 12.4382C62.5878 12.1914 61.7748 10.6287 61.1515 10.1352C60.7993 9.83366 60.5014 9.47727 60.5014 9.31278C60.5014 8.62737 62.9939 6.29703 64.3216 5.72132C68.0335 4.1312 72.6669 5.74872 74.4007 9.28535L75.0781 10.6287L75.2407 9.75143C75.7284 7.36626 78.8986 4.15862 81.5809 3.33614C86.9457 1.74603 91.904 4.35051 94.0173 9.94332L94.6673 11.6157L94.505 9.83366C94.2338 6.35187 92.0122 3.19906 88.7338 1.66378C87.4874 1.08805 86.7288 0.923559 84.8863 0.868728C83.5317 0.841312 82.1227 0.978391 81.4723 1.1703ZM87.9209 38.6202C94.1525 39.5249 101.197 41.1698 102.118 41.9376C102.444 42.2116 103.175 45.6934 103.446 48.4074C103.663 50.4091 103.744 50.3543 100.791 49.7236C97.7561 49.0929 91.904 48.243 87.5144 47.8043C82.1497 47.2836 68.0878 47.2836 62.3979 47.7771C58.1712 48.161 51.3705 49.1205 49.1486 49.614C48.4986 49.7508 47.9025 49.806 47.8212 49.7236C47.6313 49.5592 48.2277 43.3082 48.4712 42.6228C48.5525 42.376 49.4198 41.9649 50.4493 41.6633C54.5407 40.4295 64.1863 38.483 64.4029 38.867C64.4572 38.9493 64.6468 39.5524 64.8094 40.1828C65.2698 41.9376 66.977 43.9114 68.8194 44.816C71.7997 46.2966 75.7554 45.721 78.0586 43.4726C79.1151 42.4584 80.145 40.5391 80.4158 39.0862L80.6054 38.0719H82.3396C83.2878 38.0719 85.8076 38.3187 87.9209 38.6202ZM89.4925 52.4376C96.7536 53.3698 103.582 54.7407 109.542 56.4677C112.875 57.4275 114.69 58.0854 114.69 58.3322C114.69 58.4418 114.365 58.7161 113.959 58.9625L113.254 59.4012L114.176 59.5932C116.451 60.0591 118.646 60.635 118.917 60.8542C119.161 61.0461 119.134 62.4719 118.89 62.4719C118.863 62.4719 118.131 62.1703 117.291 61.7864C115.286 60.8818 112.658 60.8542 110.897 61.7044L109.678 62.2799L111.845 62.6091C114.446 63.0202 117.725 63.8153 118.05 64.1444C118.186 64.2812 118.158 64.528 117.969 64.7747C117.644 65.1587 117.535 65.1587 116.831 64.8023C116.424 64.5828 115.72 64.3908 115.313 64.3908C114.473 64.3908 112.658 65.2134 112.658 65.5974C112.658 65.707 113.552 66.0633 114.636 66.3376C115.72 66.6116 116.695 66.9132 116.831 66.968C117.047 67.1051 116.912 68.5033 116.668 68.5033C116.614 68.5033 116.126 68.1742 115.585 67.763C114.311 66.776 111.52 66.5293 109.976 67.2695C109.434 67.5439 109.027 67.7906 109.082 67.8454C109.136 67.9002 110.355 68.2566 111.818 68.6405C113.986 69.216 115.774 69.8743 116.262 70.2854C116.289 70.3126 116.208 70.6693 116.072 71.0529C115.801 71.7659 115.801 71.766 114.907 71.2997C113.58 70.6418 111.114 70.5322 109.651 71.1077C108.973 71.3545 108.486 71.656 108.594 71.7384C108.675 71.8207 109.867 72.1223 111.222 72.3963C114.528 73.0818 115.503 73.5205 115.313 74.2059C115.205 74.6719 115.069 74.7267 114.338 74.5075C113.119 74.1508 110.626 74.8911 110.626 75.6041C110.626 75.7137 111.385 75.9605 112.333 76.1524C114.257 76.536 114.826 76.8103 114.582 77.2215C114.203 77.8794 112.062 77.8522 108.187 77.1391C95.3176 74.8091 87.623 74.1508 73.2356 74.1508C58.7943 74.1236 54.405 74.4799 37.9047 77.1119C37.7421 77.1119 37.6065 76.9475 37.5522 76.7007C37.4439 76.2345 39.3946 75.467 41.4809 75.1654C42.7817 74.9734 42.8899 74.7267 41.9687 74.1236C40.8579 73.3833 39.5572 73.3285 38.1755 73.9316C37.4982 74.2607 36.9291 74.3976 36.9291 74.2607C36.9291 74.1508 36.8479 73.8493 36.7666 73.6301C36.577 73.1093 38.8259 72.2319 42.1856 71.5192C43.486 71.2449 44.6241 70.9433 44.6781 70.8885C44.7594 70.8061 44.2989 70.5594 43.6486 70.2854C41.8874 69.5727 39.9094 69.6547 38.2568 70.5322C37.4982 70.9161 36.7666 71.1625 36.631 71.0805C36.1975 70.8337 36.3601 69.9291 36.9291 69.5176C37.4982 69.1064 40.9932 67.9002 43.1608 67.3519L44.3802 67.0503L43.2964 66.5568C41.2371 65.5974 38.3381 66.0909 36.7396 67.6535C35.9809 68.3937 35.9536 68.3937 35.6015 67.4067C35.3576 66.6664 35.3849 66.5568 36.0892 66.2005C36.4957 65.9809 37.6335 65.6246 38.609 65.4326C39.5572 65.241 40.4245 64.9391 40.4784 64.8023C40.641 64.3908 38.8259 63.5685 37.7148 63.5685C37.1187 63.5685 36.3601 63.8425 35.764 64.254C34.7615 64.9119 34.7615 64.9119 34.4637 64.3636C34.2738 63.9797 34.2468 63.7057 34.4363 63.5137C34.8158 63.1298 39.4489 61.9508 41.4809 61.7592C42.4022 61.6493 43.2421 61.4849 43.2964 61.3753C43.5673 60.9366 41.2101 60.2786 39.3946 60.2786C37.4169 60.2786 35.7371 60.7446 34.4907 61.6493C33.4881 62.3623 33.4068 62.3347 33.4068 61.4025C33.4068 60.2787 34.1384 59.8399 37.2543 59.1272C38.6903 58.7981 39.8011 58.4142 39.7198 58.2774C39.6385 58.1402 39.1238 57.8387 38.582 57.6191L37.6065 57.1807L38.5007 56.7968C42.4292 55.1519 55.4346 52.7391 64.1863 52.054C68.9277 51.6701 85.5367 51.9444 89.4925 52.4376ZM29.3698 63.7605C29.5323 64.1992 30.0471 65.4602 30.5619 66.5844C31.6457 68.9968 31.9167 70.0935 32.4585 74.0688C32.9191 77.4958 33.5694 79.168 34.8971 80.4566L35.8453 81.3612L34.1384 81.9095C31.3206 82.787 27.988 83.4176 27.7441 83.1433C27.6086 83.0061 27.6086 82.2934 27.717 81.5259C28.1505 79.0584 28.015 76.0701 27.4461 74.2059C26.9855 72.6706 26.6603 72.2043 25.0889 70.6693C24.0593 69.6823 22.5691 68.5033 21.7291 68.0098C20.3744 67.2147 19.3177 65.9537 19.8054 65.6794C19.9138 65.5974 20.4286 65.4602 20.9434 65.3778C23.409 64.8843 25.8204 64.254 27.1751 63.6781C29.0717 62.883 29.0447 62.883 29.3698 63.7605ZM124.932 64.6651C126.178 65.0491 127.425 65.2134 129.321 65.2134C130.785 65.2134 132.058 65.323 132.139 65.4602C132.491 66.0085 130.676 68.8049 128.346 71.2724C125.04 74.7543 124.878 75.1378 124.905 79.5243C124.932 83.5272 124.959 83.4997 122.467 83.1709C121.03 83.0061 116.533 81.9643 116.343 81.7727C116.262 81.7176 116.722 81.2244 117.373 80.6761C118.809 79.4147 119.161 78.702 119.54 76.1797C120.055 72.9174 121.355 67.9826 122.25 65.9537C122.71 64.9391 123.117 64.1168 123.171 64.1168C123.198 64.1168 124.011 64.3636 124.932 64.6651Z" fill="white"/>
<path d="M72.1529 60.7449C72.1529 63.1297 72.0716 65.8989 71.9634 66.9131L71.8008 68.7776H76.3526C80.5522 68.7776 80.9317 68.7228 81.6903 68.2017C83.2346 67.0779 83.7493 64.5283 82.6929 63.1573C82.1238 62.4446 82.1238 62.3898 82.5573 61.4848C83.1263 60.2514 83.0993 59.2368 82.476 58.195C81.663 56.8516 80.0645 56.4404 75.7565 56.4404H72.1529V60.7449ZM77.6803 59.4563C78.0598 59.5931 78.3846 59.8947 78.3846 60.1414C78.3846 60.5802 77.2468 60.9913 76.786 60.6897C76.4609 60.4981 76.3799 59.6483 76.6778 59.3739C76.8947 59.1272 76.8673 59.1272 77.6803 59.4563ZM78.3846 64.2539C78.8724 64.8298 78.2493 65.5425 77.3281 65.4329C76.786 65.3781 76.5965 65.1862 76.5422 64.5831C76.4609 63.9248 76.5422 63.8428 77.2468 63.8428C77.6803 63.8428 78.195 64.0348 78.3846 64.2539Z" fill="white"/>
<path d="M63.9436 57.1536C62.1555 57.3455 60.6652 57.5647 60.5839 57.6195C60.5299 57.7019 60.6382 59.292 60.8821 61.1565C61.0987 62.993 61.3699 65.7346 61.4508 67.1879L61.6407 69.8746L62.6159 69.7375C65.2443 69.3536 68.3328 69.052 69.3353 69.052C70.663 69.052 70.7986 68.8328 70.7986 66.6668C70.7986 65.1863 70.7713 65.159 70.1213 65.3234C69.7691 65.4058 68.7123 65.5702 67.8181 65.6798C66.4364 65.8169 66.1655 65.7621 66.0299 65.351C65.7591 64.6655 66.3551 64.3912 68.1702 64.3912H69.7148V62.6642V60.9097L68.035 61.1565C66.2468 61.4029 65.2983 61.2385 65.4609 60.745C65.5965 60.3063 66.599 60.0595 68.4684 60.0323C69.6878 60.0047 70.0127 59.9227 69.9044 59.6211C69.8231 59.4292 69.6605 58.6889 69.5792 57.9762L69.3897 56.7148L68.2515 56.7424C67.6555 56.7696 65.7048 56.9616 63.9436 57.1536Z" fill="white"/>
<path d="M85.9706 57.016C85.9706 58.0578 85.2929 63.4861 84.8594 65.8713C84.5616 67.489 84.3447 68.8872 84.399 68.9144C84.453 68.9692 86.1328 69.2708 88.1378 69.5727C90.1429 69.9015 92.1209 70.2306 92.5001 70.3126C93.1774 70.4773 93.2587 70.3674 93.8008 68.75C94.0986 67.8178 94.3425 67.0227 94.2885 66.9955C94.2612 66.9679 93.2587 66.776 92.0666 66.6116C89.7637 66.2825 89.1677 65.9809 89.7094 65.4326C89.9533 65.1858 90.4137 65.1858 91.6875 65.4326C92.6087 65.5973 93.4486 65.6794 93.5569 65.6246C93.6652 65.5425 93.8278 65.0214 93.936 64.4183C94.0173 63.8152 94.1529 63.1573 94.2342 62.9654C94.3425 62.6638 93.936 62.4991 92.4461 62.2799C90.5224 61.9783 89.6824 61.4576 90.4411 61.0189C90.6576 60.9093 91.7145 60.9913 92.7983 61.2381C93.8821 61.4576 94.8033 61.6492 94.8573 61.6492C94.8846 61.6492 94.9116 60.8542 94.9116 59.8675C94.9116 57.811 95.5076 58.0854 89.845 57.3451C87.7044 57.0435 85.9706 56.9064 85.9706 57.016Z" fill="white"/>
<path d="M50.2066 59.3461C48.6624 59.73 47.3347 60.0588 47.3077 60.1139C47.2534 60.1687 47.5243 61.4845 47.9307 63.0471C48.3102 64.61 48.852 67.242 49.1228 68.8593C49.394 70.477 49.6649 71.8752 49.7462 71.9572C49.9901 72.2316 54.271 71.1622 54.271 70.8334C54.271 70.669 54.0811 69.8739 53.8372 69.0789C53.6207 68.2838 53.4851 67.5435 53.5663 67.4612C53.7559 67.2692 53.7289 67.2144 54.894 69.1061C55.4358 69.9835 56.0322 70.6962 56.2217 70.6962C56.6552 70.6962 60.584 69.8739 60.6922 69.764C60.7466 69.7092 60.1232 68.8321 59.2833 67.7903C58.4707 66.7485 57.7933 65.8162 57.7933 65.7066C57.7933 65.597 58.0642 65.076 58.362 64.5276C59.2293 63.0471 58.9854 60.8266 57.8473 59.6476C57.0617 58.8526 56.8178 58.7706 55.0296 58.7154C53.7019 58.6882 52.1304 58.8801 50.2066 59.3461ZM54.3793 62.8007C54.7858 63.4586 54.298 64.2261 53.4038 64.3357C52.8347 64.4181 52.6994 64.2809 52.5368 63.5682C52.4555 63.0747 52.4555 62.5812 52.5368 62.4168C52.7807 62.0056 54.0541 62.2796 54.3793 62.8007Z" fill="white"/>
<path d="M97.1043 61.4297C96.7791 62.9927 96.1288 65.6518 95.6953 67.3516C95.2346 69.0789 94.9367 70.5318 94.9907 70.5866C95.072 70.669 96.1288 70.9706 97.3752 71.2721C98.6216 71.5737 100.41 72.0672 101.358 72.3687C102.306 72.6975 103.146 72.8895 103.227 72.8075C103.309 72.7251 103.661 71.8477 103.986 70.8882L104.636 69.1061L102.55 68.8045C101.412 68.6402 100.383 68.3934 100.247 68.2562C100.003 68.0095 100.897 64.3633 101.9 61.375L102.415 59.8672L100.627 59.4009C99.6511 59.1269 98.5943 58.8526 98.2691 58.743C97.7543 58.6058 97.673 58.8254 97.1043 61.4297Z" fill="white"/>
<path d="M79.2526 13.397C77.7354 14.3291 76.8684 16.3853 77.5458 17.4545C77.7084 17.7287 77.8436 17.7287 78.1148 17.3723C78.7649 16.5772 80.0656 16.0838 81.4472 16.0838C82.5041 16.0838 83.0188 16.2483 83.9943 16.9336C84.6717 17.4271 85.2677 17.7835 85.2947 17.7287C85.7282 17.2901 85.6469 16.1112 85.1051 15.0694C84.0213 12.9584 81.2577 12.1633 79.2526 13.397Z" fill="white"/>
<path d="M81.4184 80.7859C80.4158 81.1147 78.8986 82.4857 78.4921 83.4727C77.7065 85.3916 78.1943 87.5576 79.7115 88.8734C81.3644 90.2716 83.8299 90.4636 85.2928 89.2846L85.9702 88.7639L85.4284 87.6672C84.8324 86.5158 84.7241 86.461 83.6943 86.8722C81.6892 87.6397 80.3619 84.7885 82.3126 83.9111C83.0442 83.5823 83.6673 83.6919 84.3989 84.3226C84.8054 84.6789 84.9137 84.6241 85.564 83.6095C85.9702 83.0064 86.2414 82.3213 86.1601 82.1018C85.8076 81.1423 82.8543 80.3472 81.4184 80.7859Z" fill="white"/>
<path d="M67.2503 81.0325L66.0039 81.1421L66.1395 85.5833C66.1938 88.0233 66.2751 90.0246 66.3021 90.0522C66.3021 90.0794 67.0877 90.0246 68.0363 89.9426L69.7701 89.8054L69.5805 88.4893C69.4722 87.7494 69.4992 87.1459 69.6348 87.1459C69.7431 87.1459 70.1223 87.7766 70.4474 88.5444C71.0435 89.8875 71.0978 89.9426 71.9107 89.7779C72.3712 89.6958 73.1841 89.6135 73.6989 89.6135H74.6201L73.7802 87.9961L72.9132 86.3784L73.5093 85.5833C74.3762 84.3771 74.1866 82.3483 73.1571 81.5532C72.3712 80.9777 70.1223 80.7581 67.2503 81.0325ZM70.5287 83.7192C70.7999 84.048 70.7999 84.2127 70.5287 84.5415C69.987 85.1994 69.174 85.0626 69.174 84.3223C69.174 83.2529 69.8787 82.9514 70.5287 83.7192Z" fill="white"/>
<path d="M60.6371 81.8818C59.1468 82.101 57.9004 82.3205 57.8464 82.3753C57.7921 82.4025 57.9547 84.0202 58.1986 85.9667C58.9302 91.7242 58.8216 91.3402 59.4989 91.1483C59.8241 91.0659 61.2874 90.8467 62.7504 90.6823L65.3784 90.3532V89.0374C65.3784 88.2971 65.3245 87.694 65.2702 87.694C65.2162 87.694 64.5658 87.8036 63.7799 87.968C62.1543 88.2696 61.3957 88.1052 61.8835 87.5293C62.073 87.3101 62.6964 87.1457 63.3738 87.1457H64.5658V85.8844V84.6233L63.6986 84.8153C63.2112 84.9249 62.6151 85.0345 62.3982 85.1169C62.1813 85.1717 61.8292 85.1169 61.6126 84.9797C60.9079 84.541 61.6126 84.1298 63.1025 84.1298H64.6198L64.4302 82.9508C64.322 82.3205 64.1864 81.7174 64.1051 81.5802C63.9698 81.3607 64.1324 81.3335 60.6371 81.8818Z" fill="white"/>
<path d="M88.0061 85.6108C86.8137 87.9409 85.8924 89.915 85.9737 89.9697C86.245 90.2165 89.2252 90.3537 89.2252 90.1069C89.2252 89.6958 91.6637 89.8602 91.8263 90.2713C91.9076 90.4908 92.4223 90.7376 92.9644 90.8196C93.5061 90.9292 94.2917 91.0664 94.6712 91.1487L95.3755 91.2859L94.8608 88.5991C94.5899 87.1186 94.1022 85.0349 93.8043 83.9659C93.2352 82.0466 93.2079 81.9918 92.2327 81.8274C91.6907 81.7451 91.0133 81.6079 90.7155 81.5259C90.2547 81.3887 89.8755 81.9643 88.0061 85.6108ZM91.745 86.7622C91.6637 86.9814 91.4198 87.1462 91.2302 87.1462C90.6612 87.1462 90.4716 86.3783 90.8781 85.8848C91.2032 85.5009 91.2572 85.5009 91.5554 85.9124C91.745 86.1591 91.8263 86.5427 91.745 86.7622Z" fill="white"/>
<path d="M52.0777 83.4172L49.5039 83.9928L50.1 86.5971C50.4251 88.0229 50.7773 89.8322 50.8856 90.5725C51.1295 92.6013 51.319 92.7933 52.5654 92.4369C53.1345 92.245 54.5435 91.9707 55.7086 91.7787L57.7949 91.4499V90.079C57.7949 88.7904 57.7676 88.7356 57.1985 88.9275C56.8464 89.0099 56.0064 89.1743 55.3021 89.2567C54.2453 89.3663 54.0014 89.3387 54.0014 88.9823C54.0014 88.544 54.7874 88.2421 55.9795 88.2421C56.6838 88.2421 56.7111 88.16 56.7111 86.9811C56.7111 86.0216 56.6298 85.7473 56.3316 85.8572C56.142 85.9392 55.4104 86.104 54.7061 86.186C53.6766 86.3504 53.4597 86.3232 53.4597 85.9668C53.4597 85.6653 53.8118 85.4733 54.4892 85.3637C56.7924 84.9798 56.6838 85.0621 56.3859 83.8556C56.0607 82.5398 55.9525 82.5398 52.0777 83.4172Z" fill="white"/>
<path d="M97.5147 83.2254C97.4334 83.4994 97.2438 84.4589 97.1082 85.3639C96.946 86.2685 96.5665 87.8587 96.2683 88.9277C95.9704 89.9695 95.7266 90.9841 95.7266 91.121C95.7266 91.4225 98.4089 92.108 98.7611 91.8888C98.8694 91.834 99.032 91.1758 99.1406 90.4083C99.2489 89.668 99.4384 88.9825 99.574 88.9005C99.7093 88.8181 100.224 89.6408 100.712 90.7374C101.633 92.7111 101.66 92.7387 102.988 93.0402L104.343 93.369L105.427 89.0101L106.483 84.6784L105.779 84.514C105.399 84.4316 104.668 84.2397 104.18 84.1301C103.178 83.8558 103.178 83.8558 102.907 85.8298C102.825 86.5425 102.636 87.2008 102.527 87.2828C102.392 87.3376 101.877 86.4329 101.389 85.2267C100.549 83.1706 100.468 83.0335 99.6823 83.0335C99.2219 83.0335 98.5715 82.9511 98.2464 82.8691C97.8399 82.7591 97.6233 82.8415 97.5147 83.2254Z" fill="white"/>
<path d="M43.8398 85.5006C42.8103 85.8021 41.6182 86.1313 41.2118 86.2133C40.7783 86.3232 40.4531 86.5148 40.4531 86.6248C40.4531 86.7616 40.8593 88.4065 41.3743 90.2434C41.8891 92.0803 42.3769 93.9448 42.4851 94.3559C42.5934 94.9042 42.756 95.0962 43.0269 94.9866C43.2438 94.9042 44.6254 94.5203 46.0887 94.1367C49.015 93.3417 49.9362 92.6286 49.9362 91.2305C49.9362 90.2982 49.5024 89.3115 48.9337 88.9548C48.6625 88.818 48.5812 88.4617 48.6898 87.8582C48.8794 86.844 48.0395 85.2266 47.3078 85.2266C47.0369 85.2266 46.5765 85.1715 46.2783 85.0894C45.9801 85.0346 44.8966 85.2266 43.8398 85.5006ZM45.2758 87.8858C45.2215 88.1601 44.9236 88.4065 44.5715 88.4617C44.1107 88.5437 43.9754 88.4065 43.9754 87.9954C43.9754 87.5567 44.138 87.4199 44.6797 87.4199C45.1945 87.4199 45.3571 87.5567 45.2758 87.8858ZM46.4952 90.9017C46.7661 91.1757 46.1427 91.8063 45.574 91.8063C45.0049 91.8063 44.6798 91.3948 44.9236 90.9837C45.1132 90.6821 46.224 90.6001 46.4952 90.9017Z" fill="white"/>
<path d="M108.272 86.7067C107.567 87.3098 107.513 87.529 107.513 89.2288C107.513 91.0109 107.486 91.1204 106.7 91.5319C106.267 91.7511 105.834 91.9703 105.779 91.9979C105.752 92.0255 105.779 92.6834 105.888 93.4236C106.077 94.767 106.104 94.8218 106.89 94.8218C108.191 94.8218 109.735 94.2459 110.412 93.5332C110.927 92.9573 111.036 92.601 110.981 91.3124C110.927 89.9418 111.008 89.6675 111.55 89.2015C112.174 88.6804 112.2 88.5709 111.93 87.3371L111.632 86.0488H110.331C109.356 86.0488 108.841 86.2132 108.272 86.7067Z" fill="white"/>
<path d="M54.9784 94.9595C54.7072 95.7274 54.7885 97.2627 55.195 98.1946C55.4931 98.9624 56.6309 100.031 57.1187 100.031C57.2 100.031 57.2543 99.4011 57.2543 98.6609C57.2543 97.1255 56.8478 96.1113 55.8183 95.1515C55.2493 94.6032 55.141 94.5759 54.9784 94.9595Z" fill="white"/>
<path d="M96.6478 95.2885C95.4827 96.4674 94.8593 98.7975 95.4284 99.7297C95.6453 100.059 95.7805 100.059 96.3496 99.6749C97.3521 99.017 98.0025 97.0978 97.7043 95.6448L97.4877 94.4658L96.6478 95.2885Z" fill="white"/>
<path d="M102.473 96.7413C101.362 97.0705 100.387 97.838 99.7637 98.825C99.0863 99.9492 99.2489 100.306 100.468 100.306C101.931 100.306 102.717 99.7848 103.449 98.3043C104.315 96.5222 104.153 96.2206 102.473 96.7413Z" fill="white"/>
<path d="M49.0147 97.6187C49.3396 98.7702 49.936 99.7296 50.532 100.141C51.182 100.607 53.7291 100.744 53.7291 100.333C53.7291 99.8392 52.4557 98.2218 51.5885 97.646C51.0737 97.2896 50.2608 97.0156 49.746 97.0156C48.9061 97.0156 48.8248 97.0704 49.0147 97.6187Z" fill="white"/>
<path d="M59.5267 98.277C59.2828 99.6476 59.8249 101.238 60.8544 102.115L61.7213 102.855L61.8026 101.539C61.9109 99.8123 61.7486 99.1544 60.8814 98.1398C59.9875 97.0432 59.7436 97.0708 59.5267 98.277Z" fill="white"/>
<path d="M92.148 98.0291C91.2268 99.0161 90.8477 100.03 90.8477 101.566C90.8477 102.882 90.9829 102.991 91.8771 102.333C92.7441 101.73 93.2861 100.497 93.2861 99.1533C93.2861 97.426 92.988 97.1244 92.148 98.0291Z" fill="white"/>
<path d="M65.2167 101.018C64.9728 102.334 65.4876 103.979 66.3818 104.664C66.761 104.994 67.1944 105.24 67.3031 105.24C67.6552 105.24 67.6009 102.554 67.2487 101.868C66.8696 101.128 65.8941 100.031 65.6232 100.031C65.4876 100.031 65.325 100.47 65.2167 101.018Z" fill="white"/>
<path d="M86.4839 100.607C85.6713 101.43 85.1562 102.855 85.1562 104.281V105.542L85.9692 105.076C86.9987 104.445 87.5951 103.157 87.5951 101.594C87.5951 100.086 87.2699 99.8121 86.4839 100.607Z" fill="white"/>
<path d="M71.5337 101.594C71.425 101.676 71.3438 102.498 71.3438 103.403C71.3438 104.883 71.425 105.103 72.2923 105.98C72.8071 106.501 73.3488 106.857 73.5114 106.748C73.8635 106.528 73.8635 105.13 73.5114 103.842C73.2405 102.827 71.8588 101.264 71.5337 101.594Z" fill="white"/>
<path d="M80.1732 102.361C79.198 103.43 78.656 105.733 79.1711 106.583C79.4959 107.104 80.4444 106.556 80.9592 105.514C81.4196 104.609 81.5282 101.676 81.0944 101.676C80.9319 101.676 80.5257 101.977 80.1732 102.361Z" fill="white"/>
<path d="M92.8823 103.65C88.2222 105.843 81.855 108.502 78.6035 109.627L75.9485 110.531L73.4557 109.627C70.719 108.64 62.997 105.35 58.906 103.43C57.497 102.772 56.3049 102.279 56.2506 102.334C56.0337 102.526 60.0438 105.542 62.2927 106.885C64.7312 108.338 67.9826 109.846 70.2585 110.559C72.697 111.354 72.6157 111.299 72.0197 111.545C71.6675 111.71 72.155 111.792 73.51 111.82C74.6208 111.82 76.3276 111.929 77.3032 112.067C78.2783 112.176 79.606 112.204 80.2834 112.121L81.5028 111.929L80.3647 111.71C79.1996 111.491 78.7391 110.997 79.7143 110.997C80.6898 110.997 85.8377 109.16 88.1679 107.982C90.796 106.638 94.6978 104.006 95.8355 102.8C96.2963 102.334 96.5942 101.95 96.5129 101.95C96.4589 101.977 94.833 102.718 92.8823 103.65Z" fill="white"/>
<path d="M50.722 104.5C50.2073 104.829 49.8008 105.24 49.8008 105.377C49.8008 105.542 50.2612 105.816 50.8303 105.98C51.6972 106.282 52.0224 106.254 52.8623 105.898C54.0274 105.432 55.1382 104.445 54.9216 104.116C54.8404 103.979 54.0817 103.869 53.2148 103.869C52.0224 103.869 51.4263 104.034 50.722 104.5Z" fill="white"/>
<path d="M97.6728 104.116C97.185 104.418 98.6749 105.679 100.03 106.09C100.87 106.337 101.195 106.309 101.926 105.953C102.983 105.405 102.902 105.048 101.682 104.363C100.707 103.842 98.3228 103.677 97.6728 104.116Z" fill="white"/>
<path d="M57.281 106.94C56.0346 107.159 54.2734 108.31 54.2734 108.914C54.2734 109.407 54.8695 109.626 56.1429 109.626C56.9558 109.626 57.4432 109.407 58.4458 108.502C59.1231 107.899 59.6922 107.296 59.6922 107.159C59.6922 106.83 58.5814 106.693 57.281 106.94Z" fill="white"/>
<path d="M93.3148 107.735C94.4529 109.38 96.5392 110.092 97.9482 109.325C98.49 109.023 98.49 109.023 97.8396 108.338C96.8644 107.269 95.8889 106.885 94.236 106.885H92.7188L93.3148 107.735Z" fill="white"/>
<path d="M61.3399 109.956C59.2266 111.053 59.1996 112.067 61.2586 112.095C62.3154 112.095 63.3723 111.573 64.2662 110.614C65.0521 109.764 64.9435 109.627 63.5618 109.463C62.8302 109.353 62.2072 109.49 61.3399 109.956Z" fill="white"/>
<path d="M88.2216 109.544C87.4089 109.709 87.4359 109.928 88.3841 110.833C89.4136 111.847 90.9852 112.368 92.0147 112.066C93.0172 111.792 93.0715 111.737 92.8546 111.189C92.4485 110.12 89.8201 109.188 88.2216 109.544Z" fill="white"/>
<path d="M67.144 111.793C66.8458 111.93 66.2497 112.369 65.8432 112.808C65.1116 113.52 65.1116 113.603 65.5451 113.931C66.1684 114.398 67.3875 114.398 68.3087 113.904C69.3112 113.383 70.3681 112.204 70.1242 111.848C69.9346 111.491 67.9296 111.464 67.144 111.793Z" fill="white"/>
<path d="M82.504 111.765C82.0706 112.067 82.9918 113.3 84.0756 113.876C84.9425 114.315 86.4328 114.424 87.0289 114.041C87.5436 113.711 87.0019 112.752 85.8911 112.094C84.9968 111.545 83.1544 111.381 82.504 111.765Z" fill="white"/>
</g>
<defs>
<clipPath id="clip0_444_5020">
<rect width="152" height="122" fill="white" transform="translate(0 0.786133)"/>
</clipPath>
</defs>
</svg>
