<svg width="150" height="52" viewBox="0 0 150 52" fill="none" xmlns="http://www.w3.org/2000/svg">
<path d="M150 50.0828C139.733 50.0828 139.733 39.0044 129.467 39.0044C119.2 39.0044 119.09 50.0828 108.933 50.0828C98.776 50.0828 98.6663 39.0044 88.3996 39.0044C78.1329 39.0044 78.1548 50.0828 67.8881 50.0828C57.6213 50.0828 57.6213 39.0044 47.3546 39.0044C37.0878 39.0044 37.0879 50.0828 26.8211 50.0828C16.5544 50.0828 16.5543 39.0044 6.28761 39.0044C-3.97913 39.0044 -4.00105 50.0828 -14.2678 50.0828C-24.5345 50.0828 -24.5345 39.0044 -34.8012 39.0044" stroke="black" stroke-width="2" stroke-miterlimit="10"/>
<path d="M150 31.3266C139.733 31.3266 139.733 20.3579 129.467 20.3579C119.2 20.3579 119.2 31.3266 108.933 31.3266C98.6663 31.3266 98.6663 20.3579 88.3996 20.3579C78.1329 20.3579 78.1548 31.3266 67.8881 31.3266C57.6213 31.3266 57.6213 20.3579 47.3546 20.3579C37.0878 20.3579 37.0879 31.3266 26.8211 31.3266C16.5544 31.3266 16.5543 20.3579 6.28761 20.3579C-3.97913 20.3579 -4.00105 31.3266 -14.2678 31.3266C-24.5345 31.3266 -24.5345 20.3579 -34.8012 20.3579" stroke="black" stroke-width="2" stroke-miterlimit="10"/>
<path d="M150 12.6394C139.733 12.6394 139.733 1.56103 129.467 1.56103C119.2 1.56103 119.2 12.6394 108.933 12.6394C98.6663 12.6394 98.6663 1.56103 88.3996 1.56103C78.1329 1.56103 78.1548 12.6394 67.8881 12.6394C57.6213 12.6394 57.6213 1.56103 47.3546 1.56103C37.0878 1.56103 37.0879 12.6394 26.8211 12.6394C16.5544 12.6394 16.5543 1.56103 6.28761 1.56103C-3.97913 1.56103 -4.00105 12.6394 -14.2678 12.6394C-24.5345 12.6394 -24.5345 1.56103 -34.8012 1.56103" stroke="black" stroke-width="2" stroke-miterlimit="10"/>
</svg>
