<svg width="75" height="75" viewBox="0 0 75 75" fill="none" xmlns="http://www.w3.org/2000/svg">
<path fill-rule="evenodd" clip-rule="evenodd" d="M68.1016 65.127C68.1016 69.2725 64.7178 72.6562 60.5723 72.6562H14.4004C10.2549 72.6562 6.87109 69.2725 6.87109 65.127V38.0859H68.1016V65.127Z" fill="#FFAA64"/>
<path fill-rule="evenodd" clip-rule="evenodd" d="M37.4854 46.6406C52.1924 46.6406 62.4316 51.2402 62.4316 55.3711C62.4316 59.502 52.1924 64.1016 37.4854 64.1016C22.7783 64.1016 12.5391 59.502 12.5391 55.3711C12.5391 51.2402 22.7783 46.6406 37.4854 46.6406Z" fill="#FDC74C"/>
<path fill-rule="evenodd" clip-rule="evenodd" d="M57.4668 6.91406C57.9648 8.65723 58.3311 10.3271 58.5508 11.9092H52.0615C52.2812 10.3271 52.6475 8.65723 53.1455 6.91406H57.4668ZM21.8125 6.91406C22.3105 8.65723 22.6768 10.3271 22.9111 11.9092H16.4219C16.6416 10.3271 17.0078 8.65723 17.5059 6.91406H21.8125ZM39.6543 6.91406C40.1523 8.65723 40.5186 10.3271 40.7529 11.9092H34.2637C34.4834 10.3271 34.8496 8.65723 35.3623 6.91406H39.6543Z" fill="#FDC74C"/>
<path fill-rule="evenodd" clip-rule="evenodd" d="M23.7002 2.8418V4.55566H15.6289V2.8418C15.6289 2.56348 15.8486 2.34375 16.127 2.34375H23.2021C23.4658 2.34375 23.7002 2.57812 23.7002 2.8418ZM41.0146 2.34375H33.9395C33.6758 2.34375 33.4414 2.57812 33.4414 2.8418V4.55566H41.5127V2.8418C41.5127 2.57812 41.293 2.34375 41.0146 2.34375ZM58.8564 2.34375H51.7812C51.5029 2.34375 51.2832 2.56348 51.2832 2.8418V4.55566H59.3545V2.8418C59.3545 2.57812 59.1055 2.34375 58.8564 2.34375Z" fill="#EC5454"/>
<path fill-rule="evenodd" clip-rule="evenodd" d="M47.5908 27.6416C47.5908 24.9756 49.1729 22.5439 51.6191 21.46C52.1318 21.2256 52.4102 20.6836 52.293 20.1416C51.8828 18.2959 51.7363 16.3477 51.8535 14.2676H58.8115C58.9287 16.3477 58.7822 18.2959 58.3721 20.1416C58.2549 20.6836 58.5332 21.2402 59.0459 21.46C61.4922 22.5586 63.0742 24.9902 63.0742 27.6416V35.7422H47.5908V27.6416ZM15.9502 21.4453C16.4629 21.2109 16.7412 20.6689 16.624 20.127C16.2139 18.2812 16.0674 16.333 16.1846 14.2529H23.1426C23.2598 16.333 23.1133 18.2812 22.7031 20.127C22.5859 20.6689 22.8643 21.2256 23.377 21.4453C25.8232 22.5439 27.4053 24.9756 27.4053 27.627V35.7275H11.9219V27.627C11.9219 24.9756 13.5039 22.5439 15.9502 21.4453ZM29.749 27.6416C29.749 24.9756 31.3311 22.5439 33.7773 21.46C34.29 21.2256 34.5684 20.6836 34.4512 20.1416C34.041 18.2959 33.8945 16.3477 34.0117 14.2676H40.9697C41.0869 16.3477 40.9404 18.2959 40.5303 20.1416C40.4131 20.6836 40.6914 21.2402 41.2041 21.46C43.6504 22.5586 45.2324 24.9756 45.2324 27.6416V35.7422H29.749V27.6416Z" fill="#FE4F60"/>
<path fill-rule="evenodd" clip-rule="evenodd" d="M63.2666 14.2529L67.8223 35.7422H65.3906V27.6416C65.3906 24.375 63.6182 21.3721 60.8203 19.7461C61.1279 18.0029 61.2305 16.1719 61.1426 14.2529H63.2666ZM11.7041 14.2529H13.8428C13.7402 16.1719 13.8574 17.9883 14.165 19.7461C11.3525 21.3721 9.59473 24.375 9.59473 27.6416V35.7422H7.14844L11.7041 14.2529ZM31.6553 14.2529C31.5527 16.1719 31.6553 17.9883 31.9775 19.7461C30.542 20.5811 29.3701 21.7822 28.5791 23.1885C27.7881 21.7822 26.6162 20.5811 25.1807 19.7461C25.4883 18.0029 25.5908 16.1719 25.5029 14.2529H31.6553ZM49.4824 14.2529C49.3799 16.1719 49.4971 17.9883 49.8047 19.7461C48.3691 20.5811 47.1973 21.7822 46.4062 23.1885C45.6152 21.7822 44.4434 20.5811 43.0078 19.7461C43.3154 18.0029 43.418 16.1719 43.3301 14.2529H49.4824Z" fill="#BC7830"/>
<path fill-rule="evenodd" clip-rule="evenodd" d="M70.458 36.8115C70.458 36.7969 70.458 36.7969 70.458 36.7822C70.458 36.7676 70.458 36.7529 70.458 36.7383C70.458 36.709 70.458 36.6797 70.4434 36.665L65.3604 12.832C65.2432 12.29 64.7598 11.9092 64.2178 11.9092H60.9365C60.7314 10.3125 60.3799 8.64258 59.9111 6.91406H60.5264C61.1709 6.91406 61.6982 6.38672 61.6982 5.74219V2.8418C61.6982 1.27441 60.4238 0 58.8564 0H51.7812C50.1992 0 48.9248 1.27441 48.9248 2.8418V5.74219C48.9248 6.38672 49.4521 6.91406 50.0967 6.91406H50.7119C50.2432 8.64258 49.8916 10.3125 49.6865 11.9092H43.0947C42.8896 10.3125 42.5381 8.64258 42.0693 6.91406H42.6846C43.3291 6.91406 43.8564 6.38672 43.8564 5.74219V2.8418C43.8711 1.27441 42.5967 0 41.0146 0H33.9395C32.3721 0 31.0977 1.27441 31.0977 2.8418V5.74219C31.0977 6.38672 31.625 6.91406 32.2695 6.91406H32.8848C32.416 8.64258 32.0645 10.3125 31.8594 11.9092H25.2676C25.0625 10.3125 24.7109 8.64258 24.2422 6.91406H24.8574C25.502 6.91406 26.0293 6.38672 26.0293 5.74219V2.8418C26.0293 1.27441 24.7549 0 23.1875 0H16.1123C14.5596 0 13.2852 1.27441 13.2852 2.8418V5.74219C13.2852 6.38672 13.8125 6.91406 14.457 6.91406H15.0723C14.6035 8.64258 14.252 10.3125 14.0469 11.9092H10.751C10.1943 11.9092 9.72559 12.29 9.6084 12.832L4.56934 36.665C4.56934 36.6943 4.55469 36.7236 4.55469 36.7529V36.7822V36.8262V36.9141V65.127C4.55469 70.5762 8.99316 75 14.4277 75H60.585C66.0342 75 70.458 70.5762 70.458 65.127V36.8994C70.458 36.8701 70.458 36.8408 70.458 36.8115ZM63.2656 14.2529L67.8213 35.7422H65.3896V27.6416C65.3896 24.375 63.6172 21.3721 60.8193 19.7461C61.127 18.0029 61.2295 16.1719 61.1416 14.2529H63.2656ZM15.9512 21.4453C16.4639 21.2109 16.7422 20.6689 16.625 20.127C16.2148 18.2812 16.0684 16.333 16.1855 14.2529H23.1436C23.2607 16.333 23.1143 18.2812 22.7041 20.127C22.5869 20.6689 22.8652 21.2256 23.3779 21.4453C25.8242 22.5439 27.4062 24.9756 27.4062 27.627V35.7275H11.9229V27.627C11.9229 24.9756 13.5049 22.5439 15.9512 21.4453ZM29.75 27.6416C29.75 24.9756 31.332 22.5439 33.7783 21.46C34.291 21.2256 34.5693 20.6836 34.4521 20.1416C34.042 18.2959 33.8955 16.3477 34.0127 14.2676H40.9707C41.0879 16.3477 40.9414 18.2959 40.5312 20.1416C40.4141 20.6836 40.6924 21.2402 41.2051 21.46C43.6514 22.5586 45.2334 24.9756 45.2334 27.6416V35.7422H29.75V27.6416ZM47.5918 27.6416C47.5918 24.9756 49.1738 22.5439 51.6201 21.46C52.1328 21.2256 52.4111 20.6836 52.2939 20.1416C51.8838 18.2959 51.7373 16.3477 51.8545 14.2676H58.8125C58.9297 16.3477 58.7832 18.2959 58.373 20.1416C58.2559 20.6836 58.5342 21.2402 59.0469 21.46C61.4932 22.5586 63.0752 24.9902 63.0752 27.6416V35.7422H47.5918V27.6416ZM51.2832 2.8418C51.2832 2.56348 51.5029 2.34375 51.7812 2.34375H58.8564C59.1201 2.34375 59.3545 2.57812 59.3545 2.8418V4.55566H51.2832V2.8418ZM57.4648 6.91406C57.9629 8.65723 58.3291 10.3271 58.5488 11.9092H52.0596C52.2793 10.3271 52.6455 8.65723 53.1436 6.91406H57.4648ZM49.4814 14.2529C49.3789 16.1719 49.4961 17.9883 49.8037 19.7461C48.3682 20.5811 47.1963 21.7822 46.4053 23.1885C45.6143 21.7822 44.4424 20.5811 43.0068 19.7461C43.3145 18.0029 43.417 16.1719 43.3291 14.2529H49.4814ZM33.4414 2.8418C33.4414 2.57812 33.6758 2.34375 33.9395 2.34375H41.0146C41.2783 2.34375 41.5127 2.57812 41.5127 2.8418V4.55566H33.4414V2.8418ZM39.6523 6.91406C40.1504 8.65723 40.5166 10.3271 40.751 11.9092H34.2617C34.4814 10.3271 34.8477 8.65723 35.3603 6.91406H39.6523ZM31.6543 14.2529C31.5518 16.1719 31.6543 17.9883 31.9766 19.7461C30.541 20.5811 29.3691 21.7822 28.5781 23.1885C27.7871 21.7822 26.6152 20.5811 25.1797 19.7461C25.4873 18.0029 25.5898 16.1719 25.502 14.2529H31.6543ZM15.6436 2.8418C15.6436 2.56348 15.8633 2.34375 16.1416 2.34375H23.2168C23.4805 2.34375 23.7148 2.57812 23.7148 2.8418V4.55566H15.6436V2.8418ZM21.8105 6.91406C22.3086 8.65723 22.6748 10.3271 22.9092 11.9092H16.4199C16.6396 10.3271 17.0059 8.65723 17.5039 6.91406H21.8105ZM11.7031 14.2529H13.8418C13.7393 16.1719 13.8564 17.9883 14.1641 19.7461C11.3516 21.3721 9.59375 24.375 9.59375 27.6416V35.7422H7.14746L11.7031 14.2529ZM68.0996 65.127C68.0996 69.2725 64.7158 72.6562 60.5703 72.6562H14.3984C10.2529 72.6562 6.86914 69.2725 6.86914 65.127V38.0859H68.0996V65.127ZM20.8291 60.2197H23.7002C25.3555 60.2197 26.7031 58.8721 26.7031 57.2168C26.7031 56.5283 26.4688 55.8984 26.0732 55.4004C26.4688 54.8877 26.7031 54.2578 26.7031 53.584C26.7031 51.9287 25.3555 50.5811 23.7002 50.5811H20.8291C20.1846 50.5811 19.6572 51.1084 19.6572 51.7529V55.4004V59.0479C19.6719 59.6924 20.1699 60.2197 20.8291 60.2197ZM23.7002 57.8613H22.001V56.5576H23.7002C24.0518 56.5576 24.3447 56.8506 24.3447 57.2021C24.3594 57.5684 24.0518 57.8613 23.7002 57.8613ZM22.001 52.9102H23.7002C24.0518 52.9102 24.3447 53.2031 24.3447 53.5693C24.3447 53.9209 24.0518 54.2139 23.7002 54.2139H22.001V52.9102ZM49.335 60.2197C49.9795 60.2197 50.5068 59.6924 50.5068 59.0479V56.6748L52.8945 59.7656C53.1289 60.0586 53.4658 60.2197 53.8174 60.2197C54.0664 60.2197 54.3154 60.1465 54.5352 59.9707C55.0478 59.5752 55.1357 58.8428 54.7402 58.3301L53.29 56.4551C54.4766 56.0303 55.3262 54.9023 55.3262 53.584C55.3262 51.8994 53.9639 50.5371 52.2793 50.5371H49.335C48.6904 50.5371 48.1631 51.0645 48.1631 51.709V55.0635V55.459V59.0479C48.1484 59.6924 48.6758 60.2197 49.335 60.2197ZM50.5068 52.8662H52.2793C52.6602 52.8662 52.9824 53.1885 52.9824 53.5693C52.9824 53.9502 52.6602 54.2725 52.2793 54.2725H50.5068V52.8662ZM30.2773 59.0479V51.7529C30.2773 51.1084 30.8047 50.5811 31.4492 50.5811H35.0967C35.7412 50.5811 36.2686 51.1084 36.2686 51.7529C36.2686 52.3975 35.7412 52.9248 35.0967 52.9248H32.6211V54.2285H34.1299C34.7744 54.2285 35.3018 54.7559 35.3018 55.4004C35.3018 56.0449 34.7744 56.5723 34.1299 56.5723H32.6211V57.876H35.0967C35.7412 57.876 36.2686 58.4033 36.2686 59.0479C36.2686 59.6924 35.7412 60.2197 35.0967 60.2197H31.4492C30.8047 60.2197 30.2773 59.6924 30.2773 59.0479ZM39.0664 59.0479V51.7529C39.0664 51.1084 39.5938 50.5811 40.2383 50.5811H43.8857C44.5303 50.5811 45.0576 51.1084 45.0576 51.7529C45.0576 52.3975 44.5303 52.9248 43.8857 52.9248H41.4102V54.2285H42.9189C43.5635 54.2285 44.0908 54.7559 44.0908 55.4004C44.0908 56.0449 43.5635 56.5723 42.9189 56.5723H41.4102V57.876H43.8857C44.5303 57.876 45.0576 58.4033 45.0576 59.0479C45.0576 59.6924 44.5303 60.2197 43.8857 60.2197H40.2383C39.5938 60.2197 39.0664 59.6924 39.0664 59.0479ZM18.6172 63.457C23.6855 65.376 30.3945 66.4453 37.499 66.4453C44.5889 66.4453 51.2978 65.3906 56.3662 63.457C61.8008 61.3916 64.7891 58.5205 64.7891 55.3711C64.7891 52.207 61.8008 49.3359 56.3662 47.2852C51.2978 45.3662 44.5889 44.2969 37.499 44.2969C30.3945 44.2969 23.7002 45.3516 18.6172 47.2852C13.1826 49.3506 10.209 52.2217 10.209 55.3711C10.209 58.5205 13.1826 61.4062 18.6172 63.457ZM37.4844 46.6406C52.1914 46.6406 62.4307 51.2402 62.4307 55.3711C62.4307 59.502 52.1914 64.1016 37.4844 64.1016C22.7773 64.1016 12.5381 59.502 12.5381 55.3711C12.5381 51.2402 22.7773 46.6406 37.4844 46.6406Z" fill="black"/>
<path opacity="0.3" fill-rule="evenodd" clip-rule="evenodd" d="M9.2002 63.5596V38.0859H6.87109V65.127C6.87109 69.2725 10.2549 72.6562 14.4004 72.6562H60.5723C62.6377 72.6562 64.5127 71.8213 65.875 70.459C64.9522 70.8545 63.9414 71.0742 62.8867 71.0742H16.7295C12.584 71.0889 9.2002 67.7051 9.2002 63.5596Z" fill="white"/>
</svg>
