<svg width="153" height="123" viewBox="0 0 153 123" fill="none" xmlns="http://www.w3.org/2000/svg">
<path d="M81.5114 1.32557C79.2085 2.09321 76.5261 4.45096 75.7405 6.34265C75.2797 7.4941 75.0901 7.4667 74.6837 6.31525C74.2502 5.13636 72.2452 3.24468 70.6466 2.53187C69.8337 2.17546 68.8042 1.98355 67.6121 1.98355C63.7376 1.95614 60.3779 4.56062 59.8358 8.01501L59.6463 9.16646L58.6707 8.97457C55.311 8.3166 52.2225 9.9341 51.1657 12.9498C50.7322 14.1561 50.6779 15.8559 51.0574 16.5687C51.274 17.0074 51.1114 17.1719 49.6214 17.8847C47.2369 19.0361 45.8009 20.3795 44.7714 22.5453C43.9858 24.1629 43.8772 24.6289 43.8772 26.5754C43.8772 28.4397 44.0128 29.0154 44.7171 30.5508C45.1779 31.5377 45.9366 32.744 46.397 33.2649C46.8848 33.7584 47.2642 34.2244 47.2642 34.2793C47.2642 34.3341 46.5596 34.5809 45.7197 34.8276C44.8527 35.0743 43.7959 35.5404 43.3625 35.842C41.7096 37.021 40.4905 41.2978 39.9214 48.0144L39.5693 51.9077L37.5912 52.6204C34.8819 53.5799 32.4976 55.0604 30.872 56.7329C29.6798 57.9939 29.1379 58.2955 26.4555 59.3097C24.7486 59.9404 22.3101 60.6807 21.0367 60.9547C18.0563 61.6129 17.4873 61.8321 16.5931 62.7916C14.1276 65.4511 15.4281 69.6456 19.4652 71.9484C20.2238 72.3872 21.4702 73.3742 22.2017 74.1417L23.5564 75.5399V77.9251C23.5564 79.2412 23.4481 81.2973 23.3126 82.5035C23.1229 84.5596 23.1229 84.7516 23.7461 85.6562C24.6673 87.0272 26.1575 87.6851 28.298 87.6578C30.4655 87.6303 35.1801 86.5061 38.4585 85.2451C39.8132 84.7243 42.6581 83.7097 44.8258 82.9695C46.993 82.2295 49.7297 81.1877 50.8948 80.6118C53.3873 79.4604 54.661 79.2684 63.6563 78.7749C70.6736 78.3914 82.3513 78.583 89.2607 79.2137C95.411 79.762 103.837 80.9409 104.705 81.3797C105.084 81.5713 106.601 82.3663 108.091 83.1066C112.941 85.6014 116.22 86.7528 120.582 87.4659C125.242 88.2334 127.491 87.5755 128.764 85.1079C129.36 83.9565 129.387 83.6549 129.225 80.8586C129.144 79.1861 129.171 77.5687 129.279 77.2396C129.387 76.9108 130.607 75.4578 131.961 74.0321C135.132 70.7422 136.541 68.1378 136.541 65.4783C136.541 63.5318 136.026 62.5996 134.481 61.6677C133.75 61.229 132.856 61.0918 130.011 60.9547C125.865 60.7627 124.239 60.1872 123.21 58.5147C121.611 55.9651 121.557 55.9378 115.407 53.8266L111.614 52.538L111.532 51.0851C111.315 46.0131 109.798 38.4739 108.66 36.7194C108.389 36.3079 107.522 35.6776 106.682 35.2937C105.409 34.6905 105.219 34.526 105.382 34.0051C106.276 31.0442 106.194 28.6042 105.138 26.4932C104.488 25.2047 102.51 23.1485 101.887 23.1485C100.938 23.1211 100.911 22.6824 101.724 21.1197C102.997 18.6249 102.781 16.2397 101.02 13.9094C99.4211 11.7984 95.8988 11.0856 93.7312 12.4564L92.6474 13.1418L93.8937 13.3063C98.3373 13.9642 100.803 18.1863 99.0416 22.1889C98.7164 22.9018 98.4725 23.5323 98.4725 23.5871C98.4725 23.642 98.9603 23.5049 99.5837 23.2582C100.667 22.7921 100.667 22.7921 101.67 23.6146C103.268 24.9305 104.027 26.7125 104.027 29.1799C104.027 30.8797 103.919 31.4554 103.323 32.4698C102.916 33.1826 102.483 33.6761 102.239 33.6213C102.022 33.5665 100.938 33.2923 99.8272 33.0182C94.7607 31.7296 88.556 30.7426 82.7851 30.2766C80.7801 30.1395 79.0459 30.0024 78.9376 30.0024C78.829 30.0024 78.6664 29.7831 78.6124 29.5089C78.5312 29.2622 78.4768 30.8523 78.4499 33.0456C78.4229 35.6776 78.2873 37.4869 78.0164 38.3916C76.743 42.6412 71.6222 43.957 68.479 40.8043C66.9617 39.269 66.5013 37.6241 66.3114 33.3471C66.2301 31.4829 66.0675 30.0847 65.9865 30.2218C65.9053 30.3863 63.9272 30.8249 61.6243 31.2361C59.3211 31.6199 56.097 32.2505 54.4441 32.6069L51.4909 33.2923L50.5696 32.415C50.0819 31.9215 49.3776 30.8797 48.9711 30.0847C47.4538 26.9319 48.2937 23.2856 51.0574 20.9552C52.4934 19.7489 56.1783 17.6653 56.9639 17.6379C57.9664 17.6105 55.9884 17.0622 54.2545 16.8977L52.4121 16.7058L53.0624 15.335C54.5797 12.0725 57.9394 10.7566 61.0553 12.1822C61.7056 12.4838 62.3017 12.6757 62.383 12.5935C62.6268 12.3467 61.8139 10.784 61.1905 10.2905C60.8384 9.98893 60.5405 9.63254 60.5405 9.46805C60.5405 8.78265 63.033 6.45231 64.3607 5.8766C68.0725 4.28647 72.706 5.904 74.4398 9.44062L75.1171 10.784L75.2797 9.9067C75.7675 7.52153 78.9376 4.31389 81.62 3.49142C86.9847 1.9013 91.943 4.50579 94.0563 10.0986L94.7063 11.771L94.5441 9.98893C94.2729 6.50714 92.0513 3.35434 88.7729 1.81906C87.5265 1.24333 86.7679 1.07883 84.9254 1.024C83.5707 0.996585 82.1617 1.13366 81.5114 1.32557ZM87.9599 38.7755C94.1916 39.6801 101.236 41.3251 102.157 42.0929C102.483 42.3669 103.214 45.8487 103.485 48.5627C103.702 50.5643 103.783 50.5095 100.83 49.8789C97.7952 49.2482 91.943 48.3983 87.5535 47.9596C82.1887 47.4389 68.1268 47.4389 62.4369 47.9324C58.2103 48.3163 51.4096 49.2757 49.1876 49.7693C48.5376 49.9061 47.9416 49.9612 47.8603 49.8789C47.6704 49.7145 48.2668 43.4635 48.5103 42.778C48.5916 42.5313 49.4589 42.1201 50.4884 41.8186C54.5797 40.5848 64.2254 38.6383 64.442 39.0222C64.4963 39.1046 64.6858 39.7077 64.8484 40.338C65.3089 42.0929 67.016 44.0666 68.8585 44.9713C71.8387 46.4518 75.7945 45.8763 78.0977 43.6279C79.1542 42.6137 80.184 40.6944 80.4549 39.2414L80.6445 38.2272H82.3786C83.3268 38.2272 85.8466 38.4739 87.9599 38.7755ZM89.5315 52.5928C96.7927 53.5251 103.621 54.896 109.582 56.623C112.914 57.5828 114.729 58.2407 114.729 58.4874C114.729 58.597 114.404 58.8714 113.998 59.1178L113.293 59.5565L114.215 59.7485C116.491 60.2144 118.685 60.7903 118.956 61.0095C119.2 61.2014 119.173 62.6272 118.929 62.6272C118.902 62.6272 118.17 62.3256 117.33 61.9417C115.325 61.037 112.697 61.0095 110.936 61.8597L109.717 62.4352L111.884 62.7643C114.485 63.1755 117.764 63.9705 118.089 64.2997C118.225 64.4365 118.197 64.6832 118.008 64.93C117.683 65.3139 117.574 65.3139 116.87 64.9576C116.464 64.738 115.759 64.5461 115.352 64.5461C114.512 64.5461 112.697 65.3687 112.697 65.7526C112.697 65.8622 113.591 66.2186 114.675 66.4929C115.759 66.7669 116.734 67.0685 116.87 67.1232C117.087 67.2604 116.951 68.6586 116.707 68.6586C116.653 68.6586 116.165 68.3295 115.624 67.9183C114.35 66.9313 111.559 66.6845 110.015 67.4248C109.473 67.6991 109.066 67.9459 109.121 68.0007C109.175 68.0555 110.394 68.4118 111.857 68.7957C114.025 69.3713 115.813 70.0295 116.301 70.4407C116.328 70.4679 116.247 70.8246 116.111 71.2082C115.84 71.9212 115.84 71.9212 114.946 71.4549C113.619 70.797 111.153 70.6874 109.69 71.263C109.012 71.5097 108.525 71.8113 108.633 71.8937C108.714 71.976 109.906 72.2776 111.261 72.5516C114.567 73.237 115.542 73.6758 115.352 74.3612C115.244 74.8272 115.109 74.882 114.377 74.6628C113.158 74.3061 110.665 75.0463 110.665 75.7594C110.665 75.869 111.424 76.1157 112.372 76.3077C114.296 76.6913 114.865 76.9656 114.621 77.3768C114.242 78.0347 112.101 78.0074 108.226 77.2944C95.3567 74.9643 87.6621 74.3061 73.2747 74.3061C58.8333 74.2789 54.4441 74.6352 37.9437 77.2672C37.7812 77.2672 37.6455 77.1028 37.5912 76.856C37.483 76.3897 39.4337 75.6222 41.52 75.3207C42.8207 75.1287 42.929 74.882 42.0078 74.2789C40.897 73.5386 39.5963 73.4838 38.2146 74.0869C37.5373 74.416 36.9682 74.5528 36.9682 74.416C36.9682 74.3061 36.8869 74.0045 36.8056 73.7853C36.616 73.2646 38.865 72.3872 42.2247 71.6745C43.525 71.4001 44.6632 71.0986 44.7171 71.0438C44.7984 70.9614 44.338 70.7147 43.6876 70.4407C41.9265 69.728 39.9484 69.81 38.2959 70.6874C37.5373 71.0714 36.8056 71.3178 36.67 71.2357C36.2366 70.989 36.3992 70.0843 36.9682 69.6728C37.5373 69.2617 41.0322 68.0555 43.1999 67.5072L44.4193 67.2056L43.3355 66.7121C41.2761 65.7526 38.3772 66.2462 36.7786 67.8087C36.02 68.549 35.9927 68.549 35.6405 67.562C35.3966 66.8217 35.424 66.7121 36.1283 66.3558C36.5348 66.1362 37.6725 65.7799 38.6481 65.5879C39.5963 65.3963 40.4635 65.0944 40.5175 64.9576C40.6801 64.5461 38.865 63.7238 37.7538 63.7238C37.1578 63.7238 36.3991 63.9978 35.8031 64.4093C34.8006 65.0672 34.8006 65.0672 34.5027 64.5189C34.3128 64.1349 34.2858 63.861 34.4754 63.669C34.8549 63.2851 39.488 62.1061 41.52 61.9145C42.4412 61.8045 43.2812 61.6401 43.3355 61.5305C43.6063 61.0918 41.2491 60.4339 39.4337 60.4339C37.456 60.4339 35.7761 60.8999 34.5297 61.8045C33.5272 62.5176 33.4459 62.49 33.4459 61.5578C33.4459 60.4339 34.1775 59.9952 37.2934 59.2825C38.7294 58.9534 39.8402 58.5695 39.7589 58.4326C39.6776 58.2955 39.1628 57.9939 38.6211 57.7744L37.6455 57.336L38.5398 56.9521C42.4682 55.3072 55.4736 52.8944 64.2254 52.2093C68.9668 51.8253 85.5758 52.0997 89.5315 52.5928ZM29.4089 63.9157C29.5714 64.3545 30.0862 65.6155 30.601 66.7397C31.6848 69.1521 31.9557 70.2487 32.4976 74.2241C32.9582 77.6511 33.6085 79.3232 34.9362 80.6118L35.8844 81.5165L34.1775 82.0648C31.3596 82.9422 28.027 83.5729 27.7832 83.2986C27.6477 83.1614 27.6477 82.4487 27.7561 81.6812C28.1896 79.2136 28.0541 76.2253 27.4851 74.3612C27.0245 72.8259 26.6994 72.3596 25.1279 70.8246C24.0983 69.8376 22.6081 68.6586 21.7682 68.1651C20.4135 67.37 19.3568 66.109 19.8445 65.8347C19.9529 65.7526 20.4677 65.6155 20.9825 65.5331C23.4481 65.0396 25.8595 64.4093 27.2142 63.8334C29.1108 63.0383 29.0837 63.0383 29.4089 63.9157ZM124.971 64.8204C126.217 65.2043 127.464 65.3687 129.36 65.3687C130.824 65.3687 132.097 65.4783 132.178 65.6155C132.53 66.1638 130.715 68.9601 128.385 71.4277C125.079 74.9095 124.917 75.2931 124.944 79.6796C124.971 83.6825 124.998 83.6549 122.506 83.3262C121.069 83.1614 116.572 82.1196 116.382 81.928C116.301 81.8728 116.761 81.3797 117.412 80.8314C118.848 79.57 119.2 78.8573 119.579 76.3349C120.094 73.0726 121.394 68.1378 122.289 66.109C122.749 65.0944 123.156 64.2721 123.21 64.2721C123.237 64.2721 124.05 64.5189 124.971 64.8204Z" fill="white"/>
<path d="M72.192 60.9002C72.192 63.285 72.1107 66.0541 72.0024 67.0684L71.8398 68.9329H76.3916C80.5913 68.9329 80.9708 68.8781 81.7294 68.357C83.2737 67.2331 83.7884 64.6835 82.7319 63.3126C82.1629 62.5999 82.1629 62.5451 82.5963 61.6401C83.1654 60.4067 83.1384 59.392 82.515 58.3502C81.7021 57.0068 80.1035 56.5957 75.7956 56.5957H72.192V60.9002ZM77.7193 59.6116C78.0988 59.7484 78.4237 60.05 78.4237 60.2967C78.4237 60.7354 77.2859 61.1466 76.8251 60.845C76.4999 60.6534 76.419 59.8035 76.7168 59.5292C76.9337 59.2825 76.9064 59.2825 77.7193 59.6116ZM78.4237 64.4092C78.9114 64.9851 78.2884 65.6978 77.3672 65.5882C76.8251 65.5334 76.6355 65.3414 76.5812 64.7383C76.4999 64.0801 76.5812 63.9981 77.2859 63.9981C77.7193 63.9981 78.2341 64.19 78.4237 64.4092Z" fill="white"/>
<path d="M63.9827 57.3088C62.1945 57.5008 60.7043 57.72 60.623 57.7748C60.569 57.8571 60.6773 59.4473 60.9212 61.3117C61.1377 63.1483 61.4089 65.8898 61.4899 67.3432L61.6798 70.0299L62.655 69.8928C65.2834 69.5088 68.3719 69.2073 69.3744 69.2073C70.7021 69.2073 70.8377 68.9881 70.8377 66.8221C70.8377 65.3415 70.8104 65.3143 70.1604 65.4787C69.8082 65.5611 68.7514 65.7255 67.8571 65.835C66.4755 65.9722 66.2046 65.9174 66.069 65.5063C65.7981 64.8208 66.3942 64.5465 68.2093 64.5465H69.7539V62.8195V61.065L68.074 61.3117C66.2859 61.5582 65.3374 61.3938 65.4999 60.9003C65.6355 60.4615 66.6381 60.2148 68.5075 60.1875C69.7269 60.16 70.0517 60.078 69.9435 59.7764C69.8622 59.5844 69.6996 58.8442 69.6183 58.1315L69.4287 56.8701L68.2906 56.8977C67.6945 56.9249 65.7438 57.1169 63.9827 57.3088Z" fill="white"/>
<path d="M86.0096 57.1713C86.0096 58.2131 85.3319 63.6414 84.8985 66.0266C84.6006 67.6443 84.3837 69.0425 84.438 69.0697C84.492 69.1245 86.1719 69.426 88.1769 69.7279C90.1819 70.0567 92.16 70.3858 92.5391 70.4679C93.2165 70.6326 93.2978 70.5227 93.8398 68.9053C94.1377 67.9731 94.3816 67.178 94.3276 67.1508C94.3003 67.1232 93.2978 66.9313 92.1057 66.7669C89.8028 66.4377 89.2067 66.1362 89.7485 65.5879C89.9924 65.3411 90.4528 65.3411 91.7265 65.5879C92.6477 65.7526 93.4877 65.8346 93.596 65.7798C93.7042 65.6978 93.8668 65.1767 93.9751 64.5736C94.0564 63.9705 94.192 63.3126 94.2733 63.1206C94.3816 62.8191 93.9751 62.6544 92.4852 62.4352C90.5614 62.1336 89.7215 61.6129 90.4801 61.1742C90.6967 61.0646 91.7535 61.1466 92.8373 61.3933C93.9211 61.6129 94.8424 61.8045 94.8963 61.8045C94.9237 61.8045 94.9506 61.0094 94.9506 60.0227C94.9506 57.9663 95.5467 58.2406 89.8841 57.5004C87.7434 57.1988 86.0096 57.0617 86.0096 57.1713Z" fill="white"/>
<path d="M50.2457 59.5014C48.7014 59.8853 47.3737 60.2141 47.3468 60.2692C47.2925 60.324 47.5633 61.6398 47.9698 63.2024C48.3493 64.7653 48.891 67.3972 49.1619 69.0146C49.4331 70.6323 49.704 72.0305 49.7853 72.1125C50.0291 72.3868 54.3101 71.3174 54.3101 70.9887C54.3101 70.8243 54.1202 70.0292 53.8763 69.2341C53.6597 68.4391 53.5241 67.6988 53.6054 67.6164C53.795 67.4245 53.768 67.3697 54.9331 69.2614C55.4748 70.1388 56.0712 70.8515 56.2608 70.8515C56.6942 70.8515 60.623 70.0292 60.7313 69.9193C60.7856 69.8645 60.1622 68.9874 59.3223 67.9456C58.5097 66.9037 57.8324 65.9715 57.8324 65.8619C57.8324 65.7523 58.1032 65.2312 58.4011 64.6829C59.2683 63.2024 59.0245 60.9819 57.8863 59.8029C57.1007 59.0079 56.8568 58.9258 55.0687 58.8707C53.741 58.8435 52.1694 59.0354 50.2457 59.5014ZM54.4183 62.956C54.8248 63.6139 54.3371 64.3814 53.4428 64.491C52.8738 64.5733 52.7385 64.4362 52.5759 63.7235C52.4946 63.23 52.4946 62.7364 52.5759 62.572C52.8198 62.1609 54.0932 62.4349 54.4183 62.956Z" fill="white"/>
<path d="M97.1434 61.585C96.8182 63.1479 96.1679 65.8071 95.7344 67.5068C95.2736 69.2341 94.9758 70.6871 95.0297 70.7419C95.111 70.8243 96.1679 71.1258 97.4143 71.4274C98.6607 71.7289 100.449 72.2225 101.397 72.524C102.346 72.8528 103.185 73.0447 103.266 72.9627C103.348 72.8804 103.7 72.0029 104.025 71.0435L104.675 69.2614L102.589 68.9598C101.451 68.7954 100.422 68.5487 100.286 68.4115C100.042 68.1648 100.937 64.5185 101.939 61.5302L102.454 60.0225L100.666 59.5562C99.6902 59.2822 98.6333 59.0079 98.3081 58.8983C97.7934 58.7611 97.7121 58.9806 97.1434 61.585Z" fill="white"/>
<path d="M79.2917 13.5523C77.7744 14.4844 76.9075 16.5406 77.5848 17.6098C77.7474 17.884 77.8827 17.884 78.1539 17.5276C78.8039 16.7325 80.1046 16.239 81.4863 16.239C82.5431 16.239 83.0579 16.4035 84.0334 17.0889C84.7107 17.5824 85.3068 17.9388 85.3338 17.884C85.7672 17.4453 85.6859 16.2664 85.1442 15.2247C84.0604 13.1136 81.2967 12.3186 79.2917 13.5523Z" fill="white"/>
<path d="M81.4574 80.9412C80.4549 81.27 78.9376 82.641 78.5312 83.628C77.7456 85.5469 78.2333 87.7129 79.7506 89.0287C81.4035 90.4269 83.8689 90.6189 85.3319 89.4399L86.0092 88.9191L85.4675 87.8225C84.8714 86.6711 84.7632 86.6163 83.7333 87.0274C81.7283 87.7949 80.4009 84.9438 82.3517 84.0664C83.0833 83.7376 83.7063 83.8472 84.438 84.4778C84.8445 84.8342 84.9527 84.7794 85.6031 83.7648C86.0092 83.1617 86.2804 82.4766 86.1991 82.257C85.8466 81.2976 82.8934 80.5025 81.4574 80.9412Z" fill="white"/>
<path d="M67.2894 81.1877L66.043 81.2973L66.1786 85.7386C66.2329 88.1786 66.3142 90.1799 66.3412 90.2075C66.3412 90.2347 67.1268 90.1799 68.0753 90.0979L69.8092 89.9607L69.6196 88.6446C69.5113 87.9046 69.5383 87.3012 69.6739 87.3012C69.7822 87.3012 70.1613 87.9319 70.4865 88.6997C71.0825 90.0427 71.1368 90.0979 71.9498 89.9331C72.4102 89.8511 73.2232 89.7687 73.7379 89.7687H74.6592L73.8192 88.1514L72.9523 86.5337L73.5484 85.7386C74.4153 84.5324 74.2257 82.5035 73.1962 81.7085C72.4102 81.1329 70.1613 80.9134 67.2894 81.1877ZM70.5678 83.8745C70.839 84.2033 70.839 84.368 70.5678 84.6968C70.0261 85.3547 69.2131 85.2179 69.2131 84.4776C69.2131 83.4082 69.9178 83.1067 70.5678 83.8745Z" fill="white"/>
<path d="M60.6761 82.0371C59.1859 82.2563 57.9395 82.4758 57.8855 82.5306C57.8312 82.5578 57.9938 84.1755 58.2376 86.122C58.9693 91.8794 58.8607 91.4955 59.538 91.3036C59.8632 91.2212 61.3265 91.002 62.7894 90.8376L65.4175 90.5085V89.1927C65.4175 88.4524 65.3635 87.8493 65.3092 87.8493C65.2553 87.8493 64.6049 87.9589 63.8189 88.1233C62.1934 88.4248 61.4348 88.2604 61.9225 87.6846C62.1121 87.4654 62.7355 87.301 63.4128 87.301H64.6049V86.0396V84.7786L63.7377 84.9706C63.2502 85.0802 62.6542 85.1898 62.4373 85.2721C62.2204 85.3269 61.8682 85.2721 61.6517 85.135C60.947 84.6963 61.6517 84.2851 63.1416 84.2851H64.6589L64.4693 83.1061C64.361 82.4758 64.2254 81.8727 64.1441 81.7355C64.0089 81.516 64.1715 81.4888 60.6761 82.0371Z" fill="white"/>
<path d="M88.0452 85.7661C86.8527 88.0962 85.9315 90.0702 86.0128 90.125C86.284 90.3718 89.2642 90.5089 89.2642 90.2622C89.2642 89.851 91.7027 90.0154 91.8653 90.4266C91.9466 90.6461 92.4614 90.8929 93.0034 90.9749C93.5452 91.0845 94.3308 91.2216 94.7103 91.304L95.4146 91.4412L94.8999 88.7544C94.629 87.2739 94.1412 85.1902 93.8434 84.1212C93.2743 82.2019 93.247 82.1471 92.2718 81.9827C91.7297 81.9004 91.0524 81.7632 90.7545 81.6812C90.2937 81.544 89.9146 82.1195 88.0452 85.7661ZM91.784 86.9175C91.7027 87.1367 91.4588 87.3014 91.2693 87.3014C90.7002 87.3014 90.5106 86.5336 90.9171 86.0401C91.2423 85.6562 91.2963 85.6562 91.5945 86.0677C91.784 86.3144 91.8653 86.698 91.784 86.9175Z" fill="white"/>
<path d="M52.1167 83.5725L49.543 84.148L50.139 86.7524C50.4642 88.1782 50.8164 89.9875 50.9246 90.7278C51.1685 92.7566 51.3581 92.9486 52.6045 92.5922C53.1735 92.4003 54.5825 92.1259 55.7476 91.934L57.834 91.6052V90.2342C57.834 88.9457 57.8066 88.8909 57.2376 89.0828C56.8854 89.1652 56.0455 89.3296 55.3412 89.4119C54.2843 89.5215 54.0405 89.494 54.0405 89.1376C54.0405 88.6992 54.8264 88.3973 56.0185 88.3973C56.7228 88.3973 56.7502 88.3153 56.7502 87.1363C56.7502 86.1769 56.6689 85.9025 56.3707 86.0125C56.1811 86.0945 55.4495 86.2592 54.7451 86.3413C53.7156 86.5057 53.4987 86.4784 53.4987 86.1221C53.4987 85.8205 53.8509 85.6286 54.5282 85.519C56.8315 85.1351 56.7228 85.2174 56.425 84.0109C56.0998 82.695 55.9915 82.6951 52.1167 83.5725Z" fill="white"/>
<path d="M97.5538 83.3807C97.4725 83.6547 97.2829 84.6141 97.1473 85.5191C96.985 86.4238 96.6056 88.0139 96.3074 89.083C96.0095 90.1248 95.7656 91.1394 95.7656 91.2762C95.7656 91.5778 98.448 92.2633 98.8002 92.0441C98.9084 91.9893 99.071 91.331 99.1796 90.5635C99.2879 89.8233 99.4775 89.1378 99.6131 89.0558C99.7484 88.9734 100.263 89.796 100.751 90.8927C101.672 92.8664 101.699 92.8939 103.027 93.1955L104.382 93.5243L105.466 89.1654L106.522 84.8337L105.818 84.6693C105.438 84.5869 104.707 84.3949 104.219 84.2854C103.217 84.011 103.217 84.011 102.946 85.9851C102.865 86.6978 102.675 87.356 102.566 87.4381C102.431 87.4929 101.916 86.5882 101.428 85.382C100.588 83.3259 100.507 83.1887 99.7214 83.1887C99.2609 83.1887 98.6106 83.1064 98.2854 83.0243C97.8789 82.9144 97.6624 82.9968 97.5538 83.3807Z" fill="white"/>
<path d="M43.8789 85.6559C42.8494 85.9574 41.6573 86.2865 41.2508 86.3686C40.8174 86.4785 40.4922 86.6701 40.4922 86.7801C40.4922 86.9169 40.8983 88.5618 41.4134 90.3987C41.9282 92.2356 42.4159 94.1001 42.5242 94.5112C42.6325 95.0595 42.7951 95.2515 43.0659 95.1419C43.2828 95.0595 44.6645 94.6756 46.1278 94.292C49.0541 93.4969 49.9753 92.7839 49.9753 91.3857C49.9753 90.4535 49.5415 89.4668 48.9728 89.1101C48.7016 88.9733 48.6203 88.6169 48.7289 88.0135C48.9185 86.9992 48.0785 85.3819 47.3469 85.3819C47.076 85.3819 46.6156 85.3267 46.3174 85.2447C46.0192 85.1899 44.9357 85.3819 43.8789 85.6559ZM45.3149 88.0411C45.2605 88.3154 44.9627 88.5618 44.6105 88.6169C44.1498 88.699 44.0145 88.5618 44.0145 88.1507C44.0145 87.7119 44.1771 87.5751 44.7188 87.5751C45.2336 87.5751 45.3962 87.7119 45.3149 88.0411ZM46.5343 91.057C46.8051 91.3309 46.1818 91.9616 45.613 91.9616C45.044 91.9616 44.7188 91.5501 44.9627 91.139C45.1523 90.8374 46.2631 90.7554 46.5343 91.057Z" fill="white"/>
<path d="M108.311 86.862C107.606 87.4651 107.552 87.6843 107.552 89.384C107.552 91.1661 107.525 91.2757 106.74 91.6872C106.306 91.9064 105.873 92.1256 105.818 92.1532C105.791 92.1807 105.818 92.8386 105.927 93.5789C106.117 94.9223 106.144 94.9771 106.929 94.9771C108.23 94.9771 109.774 94.4012 110.451 93.6885C110.966 93.1126 111.075 92.7563 111.02 91.4677C110.966 90.0971 111.047 89.8227 111.59 89.3568C112.213 88.8357 112.24 88.7261 111.969 87.4923L111.671 86.2041H110.37C109.395 86.2041 108.88 86.3685 108.311 86.862Z" fill="white"/>
<path d="M55.0175 95.1148C54.7463 95.8826 54.8275 97.418 55.234 98.3498C55.5322 99.1177 56.67 100.187 57.1578 100.187C57.2391 100.187 57.2934 99.5564 57.2934 98.8161C57.2934 97.2808 56.8869 96.2665 55.8574 95.3067C55.2883 94.7584 55.1801 94.7312 55.0175 95.1148Z" fill="white"/>
<path d="M96.6868 95.4437C95.5217 96.6227 94.8984 98.9528 95.4674 99.885C95.6843 100.214 95.8196 100.214 96.3886 99.8302C97.3912 99.1723 98.0415 97.2531 97.7433 95.8001L97.5268 94.6211L96.6868 95.4437Z" fill="white"/>
<path d="M102.512 96.8966C101.401 97.2257 100.426 97.9932 99.8027 98.9803C99.1254 100.104 99.288 100.461 100.507 100.461C101.97 100.461 102.756 99.9401 103.488 98.4595C104.355 96.6774 104.192 96.3759 102.512 96.8966Z" fill="white"/>
<path d="M49.0538 97.774C49.3786 98.9254 49.975 99.8849 50.5711 100.296C51.2211 100.762 53.7682 100.899 53.7682 100.488C53.7682 99.9945 52.4948 98.3771 51.6275 97.8012C51.1128 97.4449 50.2999 97.1709 49.7851 97.1709C48.9452 97.1709 48.8639 97.2257 49.0538 97.774Z" fill="white"/>
<path d="M59.5657 98.4323C59.3219 99.8029 59.8639 101.393 60.8934 102.27L61.7603 103.011L61.8416 101.695C61.9499 99.9676 61.7877 99.3097 60.9204 98.2951C60.0265 97.1985 59.7826 97.2261 59.5657 98.4323Z" fill="white"/>
<path d="M92.1871 98.1844C91.2659 99.1714 90.8867 100.186 90.8867 101.721C90.8867 103.037 91.022 103.147 91.9162 102.488C92.7831 101.885 93.3252 100.652 93.3252 99.3086C93.3252 97.5813 93.027 97.2797 92.1871 98.1844Z" fill="white"/>
<path d="M65.2558 101.174C65.0119 102.489 65.5267 104.135 66.4209 104.82C66.8 105.149 67.2335 105.396 67.3421 105.396C67.6943 105.396 67.64 102.709 67.2878 102.023C66.9087 101.283 65.9331 100.187 65.6623 100.187C65.5267 100.187 65.3641 100.625 65.2558 101.174Z" fill="white"/>
<path d="M86.523 100.762C85.7104 101.585 85.1953 103.011 85.1953 104.436V105.697L86.0083 105.231C87.0378 104.601 87.6341 103.312 87.6341 101.75C87.6341 100.241 87.309 99.9674 86.523 100.762Z" fill="white"/>
<path d="M71.5727 101.749C71.4641 101.831 71.3828 102.653 71.3828 103.558C71.3828 105.039 71.4641 105.258 72.3314 106.135C72.8461 106.656 73.3878 107.012 73.5504 106.903C73.9026 106.684 73.9026 105.285 73.5504 103.997C73.2796 102.982 71.8979 101.42 71.5727 101.749Z" fill="white"/>
<path d="M80.2123 102.517C79.2371 103.586 78.695 105.889 79.2101 106.739C79.5349 107.259 80.4835 106.711 80.9982 105.669C81.4587 104.765 81.5673 101.831 81.1335 101.831C80.9709 101.831 80.5648 102.133 80.2123 102.517Z" fill="white"/>
<path d="M92.9214 103.805C88.2613 105.998 81.894 108.658 78.6426 109.782L75.9875 110.686L73.4947 109.782C70.758 108.795 63.0361 105.505 58.9451 103.586C57.5361 102.928 56.344 102.434 56.2897 102.489C56.0728 102.681 60.0829 105.697 62.3318 107.04C64.7703 108.493 68.0217 110.001 70.2976 110.714C72.7361 111.509 72.6548 111.454 72.0588 111.701C71.7066 111.865 72.194 111.947 73.549 111.975C74.6598 111.975 76.3667 112.085 77.3422 112.222C78.3174 112.331 79.6451 112.359 80.3224 112.277L81.5419 112.085L80.4037 111.865C79.2386 111.646 78.7782 111.152 79.7534 111.152C80.7289 111.152 85.8768 109.316 88.207 108.137C90.835 106.794 94.7368 104.162 95.8746 102.955C96.3354 102.489 96.6332 102.105 96.5519 102.105C96.498 102.133 94.8721 102.873 92.9214 103.805Z" fill="white"/>
<path d="M50.7611 104.655C50.2463 104.984 49.8398 105.395 49.8398 105.533C49.8398 105.697 50.3003 105.971 50.8693 106.136C51.7363 106.437 52.0614 106.41 52.9014 106.053C54.0665 105.587 55.1773 104.6 54.9607 104.271C54.8794 104.134 54.1208 104.024 53.2539 104.024C52.0614 104.024 51.4654 104.189 50.7611 104.655Z" fill="white"/>
<path d="M97.7118 104.271C97.2241 104.573 98.714 105.834 100.069 106.245C100.909 106.492 101.234 106.464 101.965 106.108C103.022 105.56 102.941 105.203 101.722 104.518C100.746 103.997 98.3618 103.833 97.7118 104.271Z" fill="white"/>
<path d="M57.3201 107.095C56.0737 107.314 54.3125 108.466 54.3125 109.069C54.3125 109.562 54.9085 109.782 56.1819 109.782C56.9949 109.782 57.4823 109.562 58.4848 108.658C59.1622 108.054 59.7312 107.451 59.7312 107.314C59.7312 106.985 58.6204 106.848 57.3201 107.095Z" fill="white"/>
<path d="M93.3539 107.89C94.492 109.535 96.5783 110.248 97.9873 109.48C98.529 109.178 98.529 109.178 97.8787 108.493C96.9035 107.424 95.928 107.04 94.2751 107.04H92.7578L93.3539 107.89Z" fill="white"/>
<path d="M61.379 110.111C59.2657 111.208 59.2387 112.222 61.2977 112.25C62.3545 112.25 63.4113 111.729 64.3052 110.769C65.0912 109.919 64.9826 109.782 63.6009 109.618C62.8692 109.508 62.2462 109.645 61.379 110.111Z" fill="white"/>
<path d="M88.2606 109.699C87.448 109.864 87.475 110.083 88.4232 110.988C89.4527 112.002 91.0243 112.523 92.0538 112.222C93.0563 111.947 93.1106 111.893 92.8937 111.344C92.4876 110.275 89.8592 109.343 88.2606 109.699Z" fill="white"/>
<path d="M67.183 111.948C66.8848 112.085 66.2888 112.524 65.8823 112.963C65.1507 113.676 65.1507 113.758 65.5841 114.087C66.2075 114.553 67.4266 114.553 68.3478 114.059C69.3503 113.538 70.4071 112.36 70.1632 112.003C69.9737 111.647 67.9686 111.619 67.183 111.948Z" fill="white"/>
<path d="M82.5431 111.92C82.1096 112.222 83.0309 113.456 84.1147 114.031C84.9816 114.47 86.4719 114.579 87.0679 114.196C87.5827 113.867 87.0409 112.907 85.9301 112.249C85.0359 111.701 83.1935 111.536 82.5431 111.92Z" fill="white"/>
</svg>
