<svg width="153" height="123" viewBox="0 0 153 123" fill="none" xmlns="http://www.w3.org/2000/svg">
<g clip-path="url(#clip0_444_5943)">
<path d="M82.2497 0.458387C79.9468 1.22603 77.2644 3.58377 76.4788 5.47546C76.018 6.62691 75.8284 6.59951 75.422 5.44806C74.9885 4.26917 72.9835 2.37749 71.3849 1.66468C70.572 1.30828 69.5425 1.11636 68.3504 1.11636C64.4759 1.08895 61.1162 3.69343 60.5741 7.14782L60.3845 8.29927L59.409 8.10738C56.0493 7.44941 52.9608 9.06691 51.904 12.0827C51.4705 13.2889 51.4162 14.9887 51.7957 15.7015C52.0123 16.1402 51.8497 16.3047 50.3597 17.0175C47.9752 18.1689 46.5392 19.5123 45.5097 21.6782C44.7241 23.2957 44.6155 23.7617 44.6155 25.7083C44.6155 27.5726 44.7511 28.1483 45.4554 29.6836C45.9162 30.6705 46.6748 31.8768 47.1353 32.3977C47.623 32.8912 48.0025 33.3572 48.0025 33.4121C48.0025 33.4669 47.2979 33.7137 46.4579 33.9604C45.591 34.2071 44.5342 34.6732 44.1007 34.9748C42.4479 36.1538 41.2288 40.4307 40.6597 47.1472L40.3076 51.0405L38.3295 51.7532C35.6202 52.7127 33.2359 54.1932 31.6102 55.8657C30.4181 57.1267 29.8762 57.4283 27.1938 58.4425C25.4869 59.0732 23.0484 59.8135 21.7749 60.0875C18.7945 60.7457 18.2256 60.9649 17.3314 61.9244C14.8658 64.5839 16.1664 68.7784 20.2034 71.0813C20.9621 71.52 22.2084 72.507 22.94 73.2745L24.2947 74.6727V77.0579C24.2947 78.374 24.1863 80.4301 24.0509 81.6363C23.8612 83.6924 23.8612 83.8844 24.4844 84.789C25.4056 86.16 26.8958 86.8179 29.0362 86.7907C31.2038 86.7631 35.9184 85.6389 39.1968 84.3779C40.5515 83.8571 43.3964 82.8425 45.564 82.1023C47.7313 81.3623 50.468 80.3205 51.6331 79.7446C54.1256 78.5932 55.3993 78.4013 64.3946 77.9077C71.4119 77.5242 83.0896 77.7158 89.9989 78.3465C96.1493 78.8948 104.576 80.0738 105.443 80.5125C105.822 80.7041 107.339 81.4992 108.83 82.2394C113.68 84.7342 116.958 85.8856 121.32 86.5987C125.98 87.3662 128.229 86.7083 129.503 84.2407C130.099 83.0893 130.126 82.7877 129.963 79.9914C129.882 78.3189 129.909 76.7015 130.017 76.3724C130.126 76.0436 131.345 74.5907 132.7 73.1649C135.87 69.875 137.279 67.2707 137.279 64.6111C137.279 62.6646 136.764 61.7324 135.219 60.8005C134.488 60.3618 133.594 60.2246 130.749 60.0875C126.604 59.8955 124.978 59.32 123.948 57.6475C122.35 55.0979 122.295 55.0707 116.145 52.9594L112.352 51.6709L112.271 50.2179C112.054 45.1459 110.536 37.6067 109.399 35.8522C109.127 35.4407 108.26 34.8104 107.421 34.4265C106.147 33.8233 105.958 33.6588 106.12 33.1379C107.014 30.177 106.933 27.737 105.876 25.626C105.226 24.3375 103.248 22.2813 102.625 22.2813C101.677 22.2539 101.649 21.8153 102.462 20.2526C103.736 17.7577 103.519 15.3726 101.758 13.0422C100.159 10.9312 96.6371 10.2184 94.4694 11.5892L93.3856 12.2746L94.632 12.4391C99.0756 13.097 101.541 17.3191 99.7799 21.3217C99.4547 22.0346 99.2108 22.6651 99.2108 22.7199C99.2108 22.7748 99.6986 22.6377 100.322 22.391C101.405 21.9249 101.405 21.9249 102.408 22.7474C104.006 24.0633 104.765 25.8454 104.765 28.3128C104.765 30.0126 104.657 30.5883 104.061 31.6027C103.654 32.3155 103.221 32.8089 102.977 32.7541C102.76 32.6993 101.677 32.4251 100.565 32.151C95.4989 30.8624 89.2943 29.8755 83.5234 29.4094C81.5184 29.2723 79.7842 29.1353 79.6759 29.1353C79.5673 29.1353 79.4047 28.9159 79.3507 28.6417C79.2694 28.395 79.2151 29.9851 79.1881 32.1784C79.1612 34.8104 79.0256 36.6197 78.7547 37.5244C77.4813 41.774 72.3604 43.0898 69.2173 39.9371C67.7 38.4018 67.2396 36.7569 67.0497 32.4799C66.9684 30.6157 66.8058 29.2175 66.7248 29.3546C66.6435 29.5191 64.6655 29.9577 62.3626 30.3689C60.0594 30.7528 56.8353 31.3833 55.1824 31.7397L52.2292 32.4251L51.3079 31.5478C50.8202 31.0543 50.1158 30.0126 49.7094 29.2175C48.1921 26.0647 49.032 22.4184 51.7957 20.0881C53.2317 18.8817 56.9166 16.7982 57.7022 16.7708C58.7047 16.7433 56.7266 16.195 54.9928 16.0305L53.1504 15.8386L53.8007 14.4678C55.318 11.2054 58.6777 9.88941 61.7935 11.315C62.4439 11.6166 63.0399 11.8085 63.1212 11.7263C63.3651 11.4795 62.5522 9.91681 61.9288 9.42333C61.5766 9.12174 61.2788 8.76536 61.2788 8.60086C61.2788 7.91546 63.7712 5.58512 65.0989 5.00941C68.8108 3.41929 73.4443 5.03681 75.1781 8.57343L75.8554 9.91681L76.018 9.03951C76.5058 6.65434 79.6759 3.4467 82.3583 2.62423C87.723 1.03412 92.6813 3.6386 94.7946 9.2314L95.4446 10.9038L95.2824 9.12174C95.0112 5.63995 92.7896 2.48715 89.5112 0.95187C88.2648 0.37614 87.5061 0.211645 85.6637 0.156813C84.309 0.129398 82.9 0.266477 82.2497 0.458387ZM88.6982 37.9083C94.9299 38.813 101.974 40.4579 102.896 41.2257C103.221 41.4997 103.953 44.9815 104.223 47.6955C104.44 49.6971 104.522 49.6423 101.568 49.0117C98.5335 48.381 92.6813 47.5311 88.2917 47.0924C82.927 46.5717 68.8651 46.5717 63.1752 47.0652C58.9486 47.4491 52.1479 48.4086 49.9259 48.9021C49.2759 49.0389 48.6799 49.094 48.5986 49.0117C48.4087 48.8473 49.005 42.5963 49.2486 41.9109C49.3299 41.6641 50.1971 41.253 51.2266 40.9514C55.318 39.7176 64.9637 37.7711 65.1802 38.1551C65.2345 38.2374 65.4241 38.8405 65.5867 39.4709C66.0471 41.2257 67.7543 43.1994 69.5968 44.1041C72.577 45.5846 76.5328 45.0091 78.836 42.7607C79.8925 41.7465 80.9223 39.8272 81.1932 38.3742L81.3828 37.36H83.1169C84.0651 37.36 86.5849 37.6067 88.6982 37.9083ZM90.2698 51.7257C97.531 52.6579 104.359 54.0288 110.32 55.7558C113.652 56.7156 115.468 57.3735 115.468 57.6203C115.468 57.7298 115.142 58.0042 114.736 58.2506L114.032 58.6893L114.953 58.8813C117.229 59.3472 119.423 59.9231 119.694 60.1423C119.938 60.3342 119.911 61.76 119.667 61.76C119.64 61.76 118.909 61.4584 118.069 61.0745C116.064 60.1698 113.436 60.1423 111.674 60.9925L110.455 61.568L112.623 61.8971C115.224 62.3083 118.502 63.1034 118.827 63.4325C118.963 63.5693 118.936 63.8161 118.746 64.0628C118.421 64.4467 118.313 64.4467 117.608 64.0904C117.202 63.8709 116.497 63.6789 116.091 63.6789C115.251 63.6789 113.436 64.5015 113.436 64.8855C113.436 64.995 114.33 65.3514 115.413 65.6257C116.497 65.8997 117.473 66.2013 117.608 66.2561C117.825 66.3932 117.689 67.7914 117.445 67.7914C117.391 67.7914 116.904 67.4623 116.362 67.0511C115.088 66.0641 112.298 65.8173 110.753 66.5576C110.211 66.8319 109.805 67.0787 109.859 67.1335C109.913 67.1883 111.132 67.5446 112.596 67.9286C114.763 68.5041 116.551 69.1623 117.039 69.5735C117.066 69.6007 116.985 69.9574 116.849 70.341C116.578 71.054 116.578 71.054 115.685 70.5877C114.357 69.9298 111.891 69.8202 110.428 70.3958C109.751 70.6425 109.263 70.9441 109.371 71.0265C109.453 71.1088 110.645 71.4104 112 71.6844C115.305 72.3698 116.281 72.8086 116.091 73.494C115.982 73.96 115.847 74.0148 115.115 73.7956C113.896 73.4389 111.404 74.1792 111.404 74.8922C111.404 75.0018 112.162 75.2486 113.11 75.4405C115.034 75.8241 115.603 76.0984 115.359 76.5096C114.98 77.1675 112.84 77.1403 108.965 76.4272C96.095 74.0971 88.4004 73.4389 74.013 73.4389C59.5716 73.4117 55.1824 73.768 38.682 76.4C38.5194 76.4 38.3838 76.2356 38.3295 75.9888C38.2212 75.5225 40.172 74.755 42.2583 74.4535C43.559 74.2615 43.6673 74.0148 42.7461 73.4117C41.6353 72.6714 40.3346 72.6166 38.9529 73.2197C38.2756 73.5488 37.7065 73.6856 37.7065 73.5488C37.7065 73.4389 37.6252 73.1373 37.5439 72.9182C37.3543 72.3974 39.6032 71.52 42.963 70.8073C44.2633 70.5329 45.4014 70.2314 45.4554 70.1766C45.5367 70.0942 45.0763 69.8475 44.4259 69.5735C42.6648 68.8608 40.6867 68.9428 39.0342 69.8203C38.2756 70.2042 37.5439 70.4506 37.4083 70.3686C36.9748 70.1218 37.1374 69.2171 37.7065 68.8056C38.2756 68.3945 41.7705 67.1883 43.9381 66.64L45.1576 66.3384L44.0738 65.8449C42.0144 64.8855 39.1155 65.379 37.5169 66.9415C36.7583 67.6818 36.731 67.6818 36.3788 66.6948C36.1349 65.9545 36.1622 65.8449 36.8666 65.4886C37.273 65.269 38.4108 64.9127 39.3863 64.7207C40.3346 64.5291 41.2018 64.2272 41.2558 64.0904C41.4184 63.6789 39.6032 62.8566 38.4921 62.8566C37.8961 62.8566 37.1374 63.1306 36.5414 63.5421C35.5389 64.2 35.5389 64.2 35.241 63.6517C35.0511 63.2677 35.0241 62.9938 35.2137 62.8018C35.5932 62.4179 40.2263 61.2389 42.2583 61.0473C43.1795 60.9373 44.0194 60.773 44.0738 60.6634C44.3446 60.2246 41.9874 59.5667 40.172 59.5667C38.1943 59.5667 36.5144 60.0327 35.268 60.9373C34.2655 61.6504 34.1842 61.6228 34.1842 60.6906C34.1842 59.5667 34.9157 59.128 38.0317 58.4153C39.4676 58.0862 40.5784 57.7023 40.4971 57.5655C40.4158 57.4283 39.9011 57.1267 39.3594 56.9072L38.3838 56.4688L39.2781 56.0849C43.2065 54.44 56.2119 52.0272 64.9637 51.3421C69.7051 50.9582 86.314 51.2325 90.2698 51.7257ZM30.1471 63.0486C30.3097 63.4873 30.8245 64.7483 31.3393 65.8725C32.4231 68.2849 32.694 69.3815 33.2359 73.3569C33.6965 76.7839 34.3468 78.4561 35.6745 79.7446L36.6227 80.6493L34.9157 81.1976C32.0979 82.075 28.7653 82.7057 28.5215 82.4314C28.386 82.2942 28.386 81.5815 28.4944 80.814C28.9279 78.3465 28.7924 75.3582 28.2234 73.494C27.7628 71.9587 27.4377 71.4924 25.8662 69.9574C24.8366 68.9704 23.3464 67.7914 22.5065 67.2979C21.1517 66.5028 20.0951 65.2418 20.5828 64.9675C20.6911 64.8855 21.206 64.7483 21.7207 64.6659C24.1863 64.1724 26.5978 63.5421 27.9525 62.9662C29.8491 62.1711 29.822 62.1711 30.1471 63.0486ZM125.709 63.9532C126.956 64.3371 128.202 64.5015 130.099 64.5015C131.562 64.5015 132.835 64.6111 132.917 64.7483C133.269 65.2966 131.453 68.0929 129.123 70.5605C125.818 74.0423 125.655 74.4259 125.682 78.8124C125.709 82.8153 125.736 82.7877 123.244 82.459C121.808 82.2942 117.31 81.2524 117.121 81.0608C117.039 81.0056 117.5 80.5125 118.15 79.9642C119.586 78.7028 119.938 77.9901 120.318 75.4678C120.832 72.2055 122.133 67.2707 123.027 65.2418C123.487 64.2272 123.894 63.4049 123.948 63.4049C123.975 63.4049 124.788 63.6517 125.709 63.9532Z" fill="white"/>
<path d="M72.9303 60.033C72.9303 62.4178 72.849 65.187 72.7407 66.2012L72.5781 68.0657H77.1299C81.3296 68.0657 81.7091 68.0109 82.4677 67.4898C84.0119 66.366 84.5267 63.8164 83.4702 62.4454C82.9011 61.7327 82.9011 61.6779 83.3346 60.7729C83.9037 59.5395 83.8767 58.5249 83.2533 57.483C82.4404 56.1397 80.8418 55.7285 76.5339 55.7285H72.9303V60.033ZM78.4576 58.7444C78.8371 58.8812 79.1619 59.1828 79.1619 59.4295C79.1619 59.8682 78.0242 60.2794 77.5634 59.9778C77.2382 59.7862 77.1573 58.9364 77.4551 58.662C77.672 58.4153 77.6447 58.4153 78.4576 58.7444ZM79.1619 63.542C79.6497 64.1179 79.0267 64.8306 78.1055 64.721C77.5634 64.6662 77.3738 64.4743 77.3195 63.8712C77.2382 63.2129 77.3195 63.1309 78.0242 63.1309C78.4576 63.1309 78.9724 63.3228 79.1619 63.542Z" fill="white"/>
<path d="M64.721 56.4416C62.9328 56.6336 61.4425 56.8528 61.3612 56.9076C61.3073 56.99 61.4156 58.5801 61.6594 60.4446C61.876 62.2811 62.1472 65.0227 62.2282 66.476L62.4181 69.1627L63.3933 69.0256C66.0217 68.6416 69.1102 68.3401 70.1127 68.3401C71.4404 68.3401 71.576 68.1209 71.576 65.9549C71.576 64.4743 71.5487 64.4471 70.8986 64.6115C70.5465 64.6939 69.4897 64.8583 68.5954 64.9679C67.2138 65.105 66.9429 65.0502 66.8073 64.6391C66.5364 63.9536 67.1325 63.6793 68.9476 63.6793H70.4922V61.9523V60.1978L68.8123 60.4446C67.0242 60.691 66.0756 60.5266 66.2382 60.0331C66.3738 59.5943 67.3763 59.3476 69.2458 59.3204C70.4652 59.2928 70.79 59.2108 70.6817 58.9092C70.6005 58.7173 70.4379 57.977 70.3566 57.2643L70.167 56.0029L69.0289 56.0305C68.4328 56.0577 66.4821 56.2497 64.721 56.4416Z" fill="white"/>
<path d="M86.7479 56.3041C86.7479 57.3459 86.0702 62.7742 85.6368 65.1594C85.3389 66.7771 85.122 68.1753 85.1763 68.2025C85.2303 68.2573 86.9101 68.5589 88.9152 68.8608C90.9202 69.1895 92.8983 69.5187 93.2774 69.6007C93.9548 69.7654 94.036 69.6555 94.5781 68.0381C94.876 67.1059 95.1199 66.3108 95.0659 66.2836C95.0386 66.256 94.036 66.0641 92.844 65.8997C90.5411 65.5705 89.945 65.269 90.4868 64.7207C90.7306 64.4739 91.1911 64.4739 92.4648 64.7207C93.386 64.8854 94.226 64.9674 94.3342 64.9126C94.4425 64.8306 94.6051 64.3095 94.7134 63.7064C94.7947 63.1033 94.9303 62.4454 95.0116 62.2535C95.1199 61.9519 94.7134 61.7872 93.2234 61.568C91.2997 61.2664 90.4598 60.7457 91.2184 60.307C91.435 60.1974 92.4918 60.2794 93.5756 60.5262C94.6594 60.7457 95.5806 60.9373 95.6346 60.9373C95.6619 60.9373 95.6889 60.1422 95.6889 59.1556C95.6889 57.0991 96.285 57.3735 90.6224 56.6332C88.4817 56.3316 86.7479 56.1945 86.7479 56.3041Z" fill="white"/>
<path d="M50.984 58.6342C49.4397 59.0181 48.112 59.3469 48.085 59.402C48.0307 59.4568 48.3016 60.7726 48.7081 62.3352C49.0876 63.8981 49.6293 66.5301 49.9002 68.1474C50.1714 69.7651 50.4422 71.1633 50.5235 71.2453C50.7674 71.5197 55.0484 70.4503 55.0484 70.1215C55.0484 69.9571 54.8584 69.162 54.6146 68.367C54.398 67.5719 54.2624 66.8316 54.3437 66.7492C54.5333 66.5573 54.5063 66.5025 55.6714 68.3942C56.2131 69.2716 56.8095 69.9843 56.9991 69.9843C57.4325 69.9843 61.3613 69.162 61.4696 69.0521C61.5239 68.9973 60.9005 68.1202 60.0606 67.0784C59.248 66.0365 58.5707 65.1043 58.5707 64.9947C58.5707 64.8851 58.8415 64.364 59.1394 63.8157C60.0066 62.3352 59.7627 60.1147 58.6246 58.9357C57.839 58.1407 57.5951 58.0586 55.807 58.0035C54.4793 57.9763 52.9077 58.1682 50.984 58.6342ZM55.1566 62.0888C55.5631 62.7467 55.0753 63.5142 54.1811 63.6238C53.612 63.7061 53.4768 63.569 53.3142 62.8563C53.2329 62.3628 53.2329 61.8692 53.3142 61.7049C53.5581 61.2937 54.8315 61.5677 55.1566 62.0888Z" fill="white"/>
<path d="M97.8817 60.7178C97.5565 62.2807 96.9061 64.9399 96.4727 66.6397C96.0119 68.367 95.714 69.8199 95.768 69.8747C95.8493 69.9571 96.9061 70.2586 98.1525 70.5602C99.3989 70.8618 101.187 71.3553 102.135 71.6568C103.084 71.9856 103.924 72.1776 104.005 72.0955C104.086 72.0132 104.439 71.1357 104.764 70.1763L105.414 68.3942L103.327 68.0926C102.19 67.9282 101.16 67.6815 101.024 67.5443C100.781 67.2976 101.675 63.6514 102.677 60.663L103.192 59.1553L101.404 58.689C100.428 58.415 99.3716 58.1407 99.0464 58.0311C98.5317 57.8939 98.4504 58.1134 97.8817 60.7178Z" fill="white"/>
<path d="M80.03 12.6851C78.5127 13.6172 77.6458 15.6734 78.3231 16.7426C78.4857 17.0168 78.621 17.0168 78.8922 16.6604C79.5422 15.8653 80.8429 15.3719 82.2246 15.3719C83.2814 15.3719 83.7961 15.5363 84.7717 16.2217C85.449 16.7152 86.0451 17.0716 86.0721 17.0168C86.5055 16.5781 86.4242 15.3993 85.8825 14.3575C84.7987 12.2464 82.035 11.4514 80.03 12.6851Z" fill="white"/>
<path d="M82.1957 80.074C81.1932 80.4028 79.6759 81.7738 79.2695 82.7608C78.4838 84.6797 78.9716 86.8457 80.4889 88.1615C82.1417 89.5597 84.6072 89.7517 86.0702 88.5727L86.7475 88.0519L86.2058 86.9553C85.6097 85.8039 85.5015 85.7491 84.4716 86.1602C82.4666 86.9277 81.1392 84.0766 83.0899 83.1992C83.8216 82.8704 84.4446 82.98 85.1763 83.6107C85.5827 83.967 85.691 83.9122 86.3414 82.8976C86.7475 82.2945 87.0187 81.6094 86.9374 81.3898C86.5849 80.4304 83.6317 79.6353 82.1957 80.074Z" fill="white"/>
<path d="M68.0277 80.3206L66.7812 80.4301L66.9169 84.8714C66.9712 87.3114 67.0525 89.3127 67.0794 89.3403C67.0794 89.3675 67.8651 89.3127 68.8136 89.2307L70.5474 89.0935L70.3579 87.7774C70.2496 87.0374 70.2766 86.434 70.4122 86.434C70.5205 86.434 70.8996 87.0647 71.2248 87.8325C71.8208 89.1755 71.8751 89.2307 72.6881 89.066C73.1485 88.9839 73.9615 88.9016 74.4762 88.9016H75.3974L74.5575 87.2842L73.6906 85.6665L74.2866 84.8714C75.1535 83.6652 74.964 81.6364 73.9345 80.8413C73.1485 80.2658 70.8996 80.0462 68.0277 80.3206ZM71.3061 83.0073C71.5773 83.3361 71.5773 83.5008 71.3061 83.8296C70.7643 84.4875 69.9514 84.3507 69.9514 83.6104C69.9514 82.541 70.6561 82.2395 71.3061 83.0073Z" fill="white"/>
<path d="M61.4144 81.1699C59.9241 81.3891 58.6777 81.6086 58.6238 81.6634C58.5695 81.6906 58.732 83.3083 58.9759 85.2548C59.7076 91.0122 59.599 90.6283 60.2763 90.4364C60.6015 90.354 62.0648 90.1348 63.5277 89.9704L66.1558 89.6413V88.3255C66.1558 87.5852 66.1018 86.9821 66.0475 86.9821C65.9935 86.9821 65.3432 87.0917 64.5572 87.2561C62.9317 87.5576 62.173 87.3933 62.6608 86.8174C62.8504 86.5982 63.4738 86.4338 64.1511 86.4338H65.3432V85.1724V83.9114L64.4759 84.1034C63.9885 84.213 63.3925 84.3226 63.1756 84.4049C62.9587 84.4597 62.6065 84.4049 62.3899 84.2678C61.6853 83.8291 62.3899 83.4179 63.8799 83.4179H65.3972L65.2076 82.2389C65.0993 81.6086 64.9637 81.0055 64.8824 80.8683C64.7471 80.6488 64.9097 80.6216 61.4144 81.1699Z" fill="white"/>
<path d="M88.7835 84.8989C87.591 87.229 86.6698 89.203 86.7511 89.2578C87.0223 89.5046 90.0025 89.6417 90.0025 89.395C90.0025 88.9838 92.441 89.1482 92.6036 89.5594C92.6849 89.7789 93.1996 90.0257 93.7417 90.1077C94.2835 90.2173 95.0691 90.3545 95.4486 90.4368L96.1529 90.574L95.6381 87.8872C95.3673 86.4067 94.8795 84.323 94.5816 83.254C94.0126 81.3347 93.9853 81.2799 93.0101 81.1155C92.468 81.0332 91.7907 80.896 91.4928 80.814C91.032 80.6768 90.6529 81.2524 88.7835 84.8989ZM92.5223 86.0503C92.441 86.2695 92.1971 86.4343 92.0076 86.4343C91.4385 86.4343 91.2489 85.6664 91.6554 85.1729C91.9806 84.789 92.0345 84.789 92.3327 85.2005C92.5223 85.4472 92.6036 85.8308 92.5223 86.0503Z" fill="white"/>
<path d="M52.855 82.7053L50.2812 83.2808L50.8773 85.8852C51.2025 87.311 51.5546 89.1203 51.6629 89.8606C51.9068 91.8894 52.0964 92.0814 53.3428 91.725C53.9118 91.5331 55.3208 91.2587 56.4859 91.0668L58.5723 90.738V89.3671C58.5723 88.0785 58.5449 88.0237 57.9759 88.2156C57.6237 88.298 56.7838 88.4624 56.0795 88.5448C55.0226 88.6543 54.7787 88.6268 54.7787 88.2704C54.7787 87.8321 55.5647 87.5302 56.7568 87.5302C57.4611 87.5302 57.4884 87.4481 57.4884 86.2691C57.4884 85.3097 57.4071 85.0354 57.109 85.1453C56.9194 85.2273 56.1877 85.3921 55.4834 85.4741C54.4539 85.6385 54.237 85.6112 54.237 85.2549C54.237 84.9533 54.5892 84.7614 55.2665 84.6518C57.5697 84.2679 57.4611 84.3502 57.1633 83.1437C56.8381 81.8279 56.7298 81.8279 52.855 82.7053Z" fill="white"/>
<path d="M98.292 82.5135C98.2107 82.7875 98.0212 83.7469 97.8856 84.652C97.7233 85.5566 97.3438 87.1468 97.0456 88.2158C96.7478 89.2576 96.5039 90.2722 96.5039 90.409C96.5039 90.7106 99.1863 91.3961 99.5384 91.1769C99.6467 91.1221 99.8093 90.4638 99.9179 89.6963C100.026 88.9561 100.216 88.2706 100.351 88.1886C100.487 88.1062 101.002 88.9289 101.489 90.0255C102.41 91.9992 102.438 92.0267 103.765 92.3283L105.12 92.6571L106.204 88.2982L107.26 83.9665L106.556 83.8021C106.177 83.7197 105.445 83.5278 104.957 83.4182C103.955 83.1438 103.955 83.1438 103.684 85.1179C103.603 85.8306 103.413 86.4888 103.305 86.5709C103.169 86.6257 102.654 85.721 102.167 84.5148C101.327 82.4587 101.245 82.3215 100.46 82.3215C99.9992 82.3215 99.3489 82.2392 99.0237 82.1572C98.6172 82.0472 98.4007 82.1296 98.292 82.5135Z" fill="white"/>
<path d="M44.6172 84.7887C43.5877 85.0902 42.3956 85.4194 41.9891 85.5014C41.5556 85.6113 41.2305 85.8029 41.2305 85.9129C41.2305 86.0497 41.6366 87.6946 42.1517 89.5315C42.6664 91.3684 43.1542 93.2329 43.2625 93.644C43.3708 94.1923 43.5334 94.3843 43.8042 94.2747C44.0211 94.1923 45.4028 93.8084 46.8661 93.4248C49.7923 92.6298 50.7136 91.9167 50.7136 90.5185C50.7136 89.5863 50.2798 88.5996 49.711 88.2429C49.4398 88.1061 49.3585 87.7498 49.4672 87.1463C49.6567 86.1321 48.8168 84.5147 48.0852 84.5147C47.8143 84.5147 47.3538 84.4596 47.0557 84.3775C46.7575 84.3227 45.674 84.5147 44.6172 84.7887ZM46.0531 87.1739C45.9988 87.4482 45.701 87.6946 45.3488 87.7498C44.888 87.8318 44.7528 87.6946 44.7528 87.2835C44.7528 86.8448 44.9154 86.7079 45.4571 86.7079C45.9718 86.7079 46.1344 86.8448 46.0531 87.1739ZM47.2726 90.1898C47.5434 90.4637 46.92 91.0944 46.3513 91.0944C45.7823 91.0944 45.4571 90.6829 45.701 90.2718C45.8906 89.9702 47.0013 89.8882 47.2726 90.1898Z" fill="white"/>
<path d="M109.049 85.9948C108.345 86.5979 108.291 86.8171 108.291 88.5168C108.291 90.2989 108.263 90.4085 107.478 90.82C107.044 91.0392 106.611 91.2584 106.557 91.286C106.53 91.3135 106.557 91.9714 106.665 92.7117C106.855 94.0551 106.882 94.1099 107.667 94.1099C108.968 94.1099 110.512 93.534 111.19 92.8213C111.704 92.2454 111.813 91.8891 111.759 90.6005C111.704 89.2299 111.786 88.9556 112.328 88.4896C112.951 87.9685 112.978 87.8589 112.707 86.6252L112.409 85.3369H111.108C110.133 85.3369 109.618 85.5013 109.049 85.9948Z" fill="white"/>
<path d="M55.7557 94.2476C55.4845 95.0154 55.5658 96.5508 55.9723 97.4827C56.2705 98.2505 57.4083 99.3195 57.896 99.3195C57.9773 99.3195 58.0316 98.6892 58.0316 97.9489C58.0316 96.4136 57.6252 95.3993 56.5957 94.4395C56.0266 93.8912 55.9183 93.864 55.7557 94.2476Z" fill="white"/>
<path d="M97.4251 94.5765C96.26 95.7555 95.6366 98.0856 96.2057 99.0178C96.4226 99.3469 96.5579 99.3469 97.1269 98.963C98.1294 98.3051 98.7798 96.3859 98.4816 94.9329L98.265 93.7539L97.4251 94.5765Z" fill="white"/>
<path d="M103.25 96.0294C102.14 96.3586 101.164 97.126 100.541 98.1131C99.8637 99.2373 100.026 99.5936 101.245 99.5936C102.709 99.5936 103.494 99.0729 104.226 97.5923C105.093 95.8102 104.93 95.5087 103.25 96.0294Z" fill="white"/>
<path d="M49.7921 96.9068C50.1169 98.0582 50.7133 99.0177 51.3093 99.4288C51.9594 99.8951 54.5065 100.032 54.5065 99.6208C54.5065 99.1273 53.2331 97.5099 52.3658 96.934C51.8511 96.5777 51.0381 96.3037 50.5234 96.3037C49.6835 96.3037 49.6022 96.3585 49.7921 96.9068Z" fill="white"/>
<path d="M60.304 97.5651C60.0601 98.9357 60.6022 100.526 61.6317 101.403L62.4986 102.144L62.5799 100.827C62.6882 99.1004 62.526 98.4425 61.6587 97.4279C60.7648 96.3313 60.5209 96.3589 60.304 97.5651Z" fill="white"/>
<path d="M92.9254 97.3172C92.0041 98.3042 91.625 99.3185 91.625 100.854C91.625 102.17 91.7603 102.28 92.6545 101.621C93.5214 101.018 94.0635 99.7848 94.0635 98.4414C94.0635 96.7141 93.7653 96.4125 92.9254 97.3172Z" fill="white"/>
<path d="M65.9941 100.306C65.7502 101.622 66.2649 103.267 67.1592 103.953C67.5383 104.282 67.9718 104.528 68.0804 104.528C68.4326 104.528 68.3783 101.842 68.0261 101.156C67.6469 100.416 66.6714 99.3193 66.4005 99.3193C66.2649 99.3193 66.1024 99.7581 65.9941 100.306Z" fill="white"/>
<path d="M87.2613 99.8953C86.4487 100.718 85.9336 102.143 85.9336 103.569V104.83L86.7465 104.364C87.776 103.733 88.3724 102.445 88.3724 100.882C88.3724 99.3742 88.0473 99.1002 87.2613 99.8953Z" fill="white"/>
<path d="M72.311 100.882C72.2024 100.964 72.1211 101.786 72.1211 102.691C72.1211 104.171 72.2024 104.391 73.0696 105.268C73.5844 105.789 74.1261 106.145 74.2887 106.036C74.6409 105.816 74.6409 104.418 74.2887 103.13C74.0179 102.115 72.6362 100.552 72.311 100.882Z" fill="white"/>
<path d="M80.9506 101.649C79.9754 102.718 79.4333 105.022 79.9484 105.871C80.2732 106.392 81.2218 105.844 81.7365 104.802C82.197 103.897 82.3056 100.964 81.8718 100.964C81.7092 100.964 81.3031 101.265 80.9506 101.649Z" fill="white"/>
<path d="M93.6596 102.938C88.9996 105.131 82.6323 107.79 79.3809 108.915L76.7258 109.819L74.233 108.915C71.4963 107.928 63.7744 104.638 59.6834 102.718C58.2744 102.061 57.0823 101.567 57.028 101.622C56.8111 101.814 60.8211 104.83 63.0701 106.173C65.5086 107.626 68.76 109.134 71.0359 109.847C73.4744 110.642 73.3931 110.587 72.797 110.834C72.4449 110.998 72.9323 111.08 74.2873 111.108C75.3981 111.108 77.105 111.217 78.0805 111.355C79.0557 111.464 80.3834 111.492 81.0607 111.409L82.2801 111.217L81.142 110.998C79.9769 110.779 79.5165 110.285 80.4917 110.285C81.4672 110.285 86.615 108.448 88.9452 107.27C91.5733 105.926 95.4751 103.294 96.6129 102.088C97.0737 101.622 97.3715 101.238 97.2902 101.238C97.2362 101.266 95.6104 102.006 93.6596 102.938Z" fill="white"/>
<path d="M51.4993 103.788C50.9846 104.117 50.5781 104.528 50.5781 104.665C50.5781 104.83 51.0386 105.104 51.6076 105.268C52.4745 105.57 52.7997 105.542 53.6396 105.186C54.8047 104.72 55.9155 103.733 55.699 103.404C55.6177 103.267 54.8591 103.157 53.9922 103.157C52.7997 103.157 52.2037 103.322 51.4993 103.788Z" fill="white"/>
<path d="M98.4501 103.404C97.9623 103.706 99.4523 104.967 100.807 105.378C101.647 105.625 101.972 105.597 102.704 105.241C103.761 104.693 103.679 104.336 102.46 103.651C101.485 103.13 99.1001 102.965 98.4501 103.404Z" fill="white"/>
<path d="M58.0583 106.228C56.8119 106.447 55.0508 107.598 55.0508 108.202C55.0508 108.695 55.6468 108.915 56.9202 108.915C57.7332 108.915 58.2206 108.695 59.2231 107.79C59.9004 107.187 60.4695 106.584 60.4695 106.447C60.4695 106.118 59.3587 105.981 58.0583 106.228Z" fill="white"/>
<path d="M94.0921 107.023C95.2303 108.668 97.3166 109.38 98.7256 108.613C99.2673 108.311 99.2673 108.311 98.617 107.626C97.6418 106.557 96.6662 106.173 95.0134 106.173H93.4961L94.0921 107.023Z" fill="white"/>
<path d="M62.1172 109.244C60.0039 110.341 59.9769 111.355 62.036 111.383C63.0928 111.383 64.1496 110.862 65.0435 109.902C65.8295 109.052 65.7208 108.915 64.3392 108.751C63.6075 108.641 62.9845 108.778 62.1172 109.244Z" fill="white"/>
<path d="M88.9989 108.832C88.1863 108.997 88.2133 109.216 89.1615 110.121C90.191 111.135 91.7626 111.656 92.7921 111.355C93.7946 111.08 93.8489 111.025 93.632 110.477C93.2259 109.408 90.5975 108.476 88.9989 108.832Z" fill="white"/>
<path d="M67.9213 111.081C67.6231 111.218 67.0271 111.657 66.6206 112.096C65.8889 112.808 65.8889 112.891 66.3224 113.219C66.9458 113.686 68.1648 113.686 69.0861 113.192C70.0886 112.671 71.1454 111.493 70.9015 111.136C70.712 110.779 68.7069 110.752 67.9213 111.081Z" fill="white"/>
<path d="M83.2814 111.053C82.8479 111.355 83.7691 112.588 84.853 113.164C85.7199 113.603 87.2101 113.712 87.8062 113.329C88.3209 113 87.7792 112.04 86.6684 111.382C85.7742 110.834 83.9317 110.669 83.2814 111.053Z" fill="white"/>
</g>
<defs>
<clipPath id="clip0_444_5943">
<rect width="152" height="122" fill="white" transform="translate(0.777344 0.0742188)"/>
</clipPath>
</defs>
</svg>
