<svg width="128" height="51" viewBox="0 0 128 51" fill="none" xmlns="http://www.w3.org/2000/svg">
<path d="M190.875 50.0003C180.296 50.0003 180.296 38.9219 169.718 38.9219C159.139 38.9219 159.026 50.0003 148.56 50.0003C138.095 50.0003 137.982 38.9219 127.403 38.9219C116.824 38.9219 116.847 50.0003 106.268 50.0003C95.6894 50.0003 95.6893 38.9219 85.1106 38.9219C74.5319 38.9219 74.532 50.0003 63.9533 50.0003C53.3746 50.0003 53.3746 38.9219 42.7959 38.9219C32.2172 38.9219 32.1946 50.0003 21.6159 50.0003C11.0372 50.0003 11.0372 38.9219 0.45852 38.9219" stroke="black" stroke-width="2" stroke-miterlimit="10"/>
<path d="M190.875 31.2461C180.296 31.2461 180.296 20.2773 169.718 20.2773C159.139 20.2773 159.139 31.2461 148.56 31.2461C137.982 31.2461 137.982 20.2773 127.403 20.2773C116.824 20.2773 116.847 31.2461 106.268 31.2461C95.6894 31.2461 95.6893 20.2773 85.1106 20.2773C74.5319 20.2773 74.532 31.2461 63.9533 31.2461C53.3746 31.2461 53.3746 20.2773 42.7959 20.2773C32.2172 20.2773 32.1946 31.2461 21.6159 31.2461C11.0372 31.2461 11.0372 20.2773 0.45852 20.2773" stroke="black" stroke-width="2" stroke-miterlimit="10"/>
<path d="M190.875 12.5589C180.296 12.5589 180.296 1.48047 169.718 1.48047C159.139 1.48047 159.139 12.5589 148.56 12.5589C137.982 12.5589 137.982 1.48047 127.403 1.48047C116.824 1.48047 116.847 12.5589 106.268 12.5589C95.6894 12.5589 95.6893 1.48046 85.1106 1.48046C74.5319 1.48046 74.532 12.5589 63.9533 12.5589C53.3746 12.5589 53.3746 1.48046 42.7959 1.48046C32.2172 1.48046 32.1946 12.5589 21.6159 12.5589C11.0372 12.5589 11.0372 1.48046 0.45852 1.48046" stroke="black" stroke-width="2" stroke-miterlimit="10"/>
</svg>
