<svg width="30" height="30" viewBox="0 0 30 30" fill="none" xmlns="http://www.w3.org/2000/svg">
<path d="M25.9347 15L27.3147 12.6945C27.4806 12.4171 27.5257 12.0874 27.4401 11.7778C27.3546 11.4683 27.1453 11.2043 26.8585 11.0439L24.471 9.70987V7.05154C24.471 6.73107 24.3393 6.42372 24.1048 6.19712C23.8704 5.97051 23.5525 5.8432 23.221 5.8432H20.4722L19.0935 3.53649C18.9269 3.25968 18.6544 3.0574 18.3347 2.97341C18.1762 2.93186 18.0107 2.92115 17.8478 2.94189C17.6849 2.96263 17.528 3.01442 17.386 3.09424L14.9985 4.42824L12.611 3.09304C12.3239 2.93281 11.9827 2.88939 11.6625 2.97232C11.3422 3.05526 11.0692 3.25776 10.9035 3.53529L9.52346 5.8432H6.77471C6.44319 5.8432 6.12524 5.97051 5.89082 6.19712C5.6564 6.42372 5.52471 6.73107 5.52471 7.05154V9.70866L3.13721 11.0427C2.99475 11.1219 2.86988 11.2275 2.76979 11.3535C2.66969 11.4795 2.59634 11.6234 2.55394 11.7769C2.51155 11.9304 2.50094 12.0905 2.52274 12.2479C2.54454 12.4054 2.59831 12.5571 2.68096 12.6945L4.06096 15L2.68096 17.3055C2.51594 17.5831 2.47117 17.9125 2.5564 18.222C2.64164 18.5314 2.84996 18.7957 3.13596 18.9572L5.52346 20.2912V22.9484C5.52346 23.2688 5.65515 23.5762 5.88957 23.8028C6.12399 24.0294 6.44194 24.1567 6.77346 24.1567H9.52346L10.9035 26.4646C11.0141 26.6475 11.1721 26.7994 11.3619 26.9053C11.5517 27.0112 11.7668 27.0676 11.986 27.0688C12.2035 27.0688 12.4197 27.0132 12.6122 26.9057L14.9972 25.5717L17.3847 26.9057C17.6717 27.0657 18.0127 27.1091 18.3328 27.0264C18.6529 26.9437 18.926 26.7417 19.0922 26.4646L20.471 24.1567H23.2197C23.5512 24.1567 23.8692 24.0294 24.1036 23.8028C24.338 23.5762 24.4697 23.2688 24.4697 22.9484V20.2912L26.8572 18.9572C26.9994 18.8778 27.124 18.772 27.224 18.646C27.3239 18.52 27.3971 18.3762 27.4395 18.2228C27.4818 18.0693 27.4925 17.9094 27.4709 17.752C27.4493 17.5946 27.3958 17.4429 27.3135 17.3055L25.9347 15ZM11.8722 8.9462C12.3697 8.94636 12.8467 9.13754 13.1983 9.47768C13.5499 9.81781 13.7474 10.279 13.7472 10.7599C13.747 11.2408 13.5493 11.7019 13.1974 12.0418C12.8455 12.3817 12.3684 12.5726 11.871 12.5724C11.3735 12.5723 10.8965 12.3811 10.5449 12.0409C10.1932 11.7008 9.99579 11.2396 9.99596 10.7587C9.99612 10.2778 10.1939 9.81673 10.5458 9.47682C10.8976 9.13691 11.3748 8.94604 11.8722 8.9462ZM12.2472 20.5462L10.2472 19.0974L17.7472 9.43074L19.7472 10.8795L12.2472 20.5462ZM18.1222 21.0295C17.8759 21.0295 17.632 20.9825 17.4045 20.8913C17.177 20.8001 16.9702 20.6665 16.7961 20.4981C16.622 20.3296 16.4839 20.1297 16.3897 19.9097C16.2956 19.6897 16.2471 19.4539 16.2472 19.2158C16.2473 18.9777 16.2959 18.742 16.3902 18.522C16.4846 18.3021 16.6228 18.1023 16.797 17.9339C16.9712 17.7656 17.178 17.6322 17.4056 17.5411C17.6332 17.4501 17.8771 17.4032 18.1235 17.4033C18.6209 17.4035 19.0979 17.5947 19.4495 17.9348C19.8012 18.2749 19.9986 18.7362 19.9985 19.217C19.9983 19.6979 19.8005 20.159 19.4487 20.4989C19.0968 20.8388 18.6197 21.0297 18.1222 21.0295Z" fill="#FFCC02"/>
</svg>
