<svg width="150" height="52" viewBox="0 0 150 52" fill="none" xmlns="http://www.w3.org/2000/svg">
<path d="M150 50.1478C139.421 50.1478 139.421 39.0693 128.843 39.0693C118.264 39.0693 118.151 50.1478 107.685 50.1478C97.2195 50.1478 97.1066 39.0693 86.5279 39.0693C75.9492 39.0693 75.9718 50.1478 65.3931 50.1478C54.8144 50.1478 54.8143 39.0693 44.2356 39.0693C33.6569 39.0693 33.657 50.1478 23.0783 50.1478C12.4996 50.1478 12.4996 39.0693 1.92086 39.0693C-8.65784 39.0693 -8.68043 50.1478 -19.2591 50.1478C-29.8378 50.1478 -29.8378 39.0693 -40.4165 39.0693" stroke="#FFCC02" stroke-width="2" stroke-miterlimit="10"/>
<path d="M150 31.3935C139.421 31.3935 139.421 20.4248 128.843 20.4248C118.264 20.4248 118.264 31.3935 107.685 31.3935C97.1065 31.3935 97.1066 20.4248 86.5279 20.4248C75.9492 20.4248 75.9718 31.3935 65.3931 31.3935C54.8144 31.3935 54.8143 20.4248 44.2356 20.4248C33.6569 20.4248 33.657 31.3935 23.0783 31.3935C12.4996 31.3935 12.4996 20.4248 1.92086 20.4248C-8.65784 20.4248 -8.68043 31.3935 -19.2591 31.3935C-29.8378 31.3935 -29.8378 20.4248 -40.4165 20.4248" stroke="#FFCC02" stroke-width="2" stroke-miterlimit="10"/>
<path d="M150 12.7058C139.421 12.7058 139.421 1.62744 128.843 1.62744C118.264 1.62744 118.264 12.7058 107.685 12.7058C97.1065 12.7058 97.1066 1.62744 86.5279 1.62744C75.9492 1.62744 75.9718 12.7058 65.3931 12.7058C54.8144 12.7058 54.8143 1.62744 44.2356 1.62744C33.6569 1.62744 33.657 12.7058 23.0783 12.7058C12.4996 12.7058 12.4996 1.62744 1.92086 1.62744C-8.65784 1.62744 -8.68043 12.7058 -19.2591 12.7058C-29.8378 12.7058 -29.8378 1.62744 -40.4165 1.62744" stroke="#FFCC02" stroke-width="2" stroke-miterlimit="10"/>
</svg>
