<svg width="71" height="57" viewBox="0 0 71 57" fill="none" xmlns="http://www.w3.org/2000/svg">
<mask id="path-1-inside-1_440_1834" fill="white">
<path d="M65.3895 56.4555C70.3254 47.9064 71.6629 37.7467 69.1079 28.2114C66.553 18.6762 60.3148 10.5464 51.7657 5.61055C43.2166 0.674727 33.0569 -0.662823 23.5216 1.89215C13.9863 4.44712 5.85653 10.6853 0.9207 19.2344L33.1551 37.845L65.3895 56.4555Z"/>
</mask>
<path d="M65.3895 56.4555C70.3254 47.9064 71.6629 37.7467 69.1079 28.2114C66.553 18.6762 60.3148 10.5464 51.7657 5.61055C43.2166 0.674727 33.0569 -0.662823 23.5216 1.89215C13.9863 4.44712 5.85653 10.6853 0.9207 19.2344L33.1551 37.845L65.3895 56.4555Z" fill="#FFCC02" stroke="#FFCC02" stroke-width="6" mask="url(#path-1-inside-1_440_1834)"/>
</svg>
