<svg width="70" height="57" viewBox="0 0 70 57" fill="none" xmlns="http://www.w3.org/2000/svg">
<mask id="path-1-inside-1_440_1835" fill="white">
<path d="M5.11046 0.913617C0.174638 9.46272 -1.16292 19.6224 1.39206 29.1577C3.94703 38.693 10.1852 46.8228 18.7343 51.7586C27.2834 56.6944 37.4431 58.032 46.9784 55.477C56.5137 52.922 64.6435 46.6838 69.5793 38.1347L37.3449 19.5242L5.11046 0.913617Z"/>
</mask>
<path d="M5.11046 0.913617C0.174638 9.46272 -1.16292 19.6224 1.39206 29.1577C3.94703 38.693 10.1852 46.8228 18.7343 51.7586C27.2834 56.6944 37.4431 58.032 46.9784 55.477C56.5137 52.922 64.6435 46.6838 69.5793 38.1347L37.3449 19.5242L5.11046 0.913617Z" stroke="black" stroke-width="10" mask="url(#path-1-inside-1_440_1835)"/>
</svg>
